<ttFont>
<head>
    <!-- Most of this table will be recalculated by the compiler -->
    <tableVersion value="1.0"/>
    <fontRevision value="1.301"/>
    <checkSumAdjustment value="0x6a5f44c9"/>
    <magicNumber value="0x5f0f3cf5"/>
    <flags value="00000000 00001011"/>
    <unitsPerEm value="1000"/>
    <created value="Tue Oct  2 22:59:00 2007"/>
    <modified value="Thu Mar  6 18:35:53 2014"/>
    <xMin value="-96"/>
    <yMin value="-280"/>
    <xMax value="771"/>
    <yMax value="1068"/>
    <macStyle value="00000000 00000010"/>
    <lowestRecPPEM value="9"/>
    <fontDirectionHint value="2"/>
    <indexToLocFormat value="0"/>
    <glyphDataFormat value="0"/>
  </head>
    <TTGlyph name="A" xMin="-36" yMin="0" xMax="376" yMax="738">
      <contour>
        <pt x="273" y="0" on="1"/>
        <pt x="268" y="155" on="1"/>
        <pt x="127" y="155" on="1"/>
        <pt x="66" y="0" on="1"/>
        <pt x="-36" y="0" on="1"/>
        <pt x="266" y="738" on="1"/>
        <pt x="340" y="738" on="1"/>
        <pt x="376" y="0" on="1"/>
      </contour>
      <contour>
        <pt x="262" y="510" on="1"/>
        <pt x="163" y="247" on="1"/>
        <pt x="266" y="247" on="1"/>
      </contour>
    </TTGlyph>
    <TTGlyph name="AE" xMin="-41" yMin="0" xMax="658" yMax="733">
      <contour>
        <pt x="640" y="636" on="1"/>
        <pt x="460" y="636" on="1"/>
        <pt x="423" y="425" on="1"/>
        <pt x="585" y="425" on="1"/>
        <pt x="568" y="330" on="1"/>
        <pt x="406" y="330" on="1"/>
        <pt x="365" y="97" on="1"/>
        <pt x="545" y="97" on="1"/>
        <pt x="529" y="0" on="1"/>
        <pt x="246" y="0" on="1"/>
        <pt x="273" y="155" on="1"/>
        <pt x="140" y="155" on="1"/>
        <pt x="62" y="0" on="1"/>
        <pt x="-41" y="0" on="1"/>
        <pt x="336" y="733" on="1"/>
        <pt x="658" y="733" on="1"/>
      </contour>
      <contour>
        <pt x="348" y="578" on="1"/>
        <pt x="186" y="247" on="1"/>
        <pt x="290" y="247" on="1"/>
      </contour>
    </TTGlyph>
    <TTGlyph name="AEacute" xMin="-41" yMin="0" xMax="658" yMax="940">
      <component glyphName="acute" x="260" y="280" flags="0x4"/>
      <component glyphName="AE" x="0" y="0" flags="0x4"/>
    </TTGlyph>
    <TTGlyph name="Aacute" xMin="-36" yMin="0" xMax="458" yMax="945">
      <component glyphName="A" x="0" y="0" flags="0x204"/>
      <component glyphName="acute" x="119" y="285" flags="0x4"/>
    </TTGlyph>
    <TTGlyph name="Abreve" xMin="-36" yMin="0" xMax="444" yMax="905">
      <component glyphName="A" x="0" y="0" flags="0x204"/>
      <component glyphName="breve" x="64" y="285" flags="0x4"/>
    </TTGlyph>
    <TTGlyph name="Acircumflex" xMin="-36" yMin="0" xMax="434" yMax="928">
      <component glyphName="A" x="0" y="0" flags="0x204"/>
      <component glyphName="circumflex" x="57" y="285" flags="0x4"/>
    </TTGlyph>
    <TTGlyph name="Adieresis" xMin="-36" yMin="0" xMax="440" yMax="893">
      <component glyphName="A" x="0" y="0" flags="0x204"/>
      <component glyphName="dieresis" x="63" y="285" flags="0x4"/>
    </TTGlyph>
    <TTGlyph name="Agrave" xMin="-36" yMin="0" xMax="376" yMax="951">
      <component glyphName="A" x="0" y="0" flags="0x204"/>
      <component glyphName="grave" x="5" y="285" flags="0x4"/>
    </TTGlyph>
    <TTGlyph name="Amacron" xMin="-36" yMin="0" xMax="435" yMax="860">
      <component glyphName="A" x="0" y="0" flags="0x204"/>
      <component glyphName="macron" x="63" y="285" flags="0x4"/>
    </TTGlyph>
    <TTGlyph name="Aogonek" xMin="-36" yMin="-193" xMax="376" yMax="738">
      <contour>
        <pt x="350" y="-164" on="1"/>
        <pt x="335" y="-177" on="0"/>
        <pt x="296" y="-193" on="0"/>
        <pt x="272" y="-193" on="1"/>
        <pt x="242" y="-193" on="0"/>
        <pt x="209" y="-159" on="0"/>
        <pt x="209" y="-132" on="1"/>
        <pt x="209" y="-94" on="0"/>
        <pt x="250" y="-31" on="0"/>
        <pt x="282" y="0" on="1"/>
        <pt x="273" y="0" on="1"/>
        <pt x="268" y="155" on="1"/>
        <pt x="127" y="155" on="1"/>
        <pt x="66" y="0" on="1"/>
        <pt x="-36" y="0" on="1"/>
        <pt x="266" y="738" on="1"/>
        <pt x="340" y="738" on="1"/>
        <pt x="376" y="0" on="1"/>
        <pt x="340" y="0" on="1"/>
        <pt x="317" y="-25" on="0"/>
        <pt x="278" y="-79" on="0"/>
        <pt x="278" y="-108" on="1"/>
        <pt x="278" y="-135" on="0"/>
        <pt x="303" y="-135" on="1"/>
        <pt x="312" y="-135" on="0"/>
        <pt x="331" y="-128" on="0"/>
        <pt x="339" y="-123" on="1"/>
      </contour>
      <contour>
        <pt x="262" y="510" on="1"/>
        <pt x="163" y="247" on="1"/>
        <pt x="266" y="247" on="1"/>
      </contour>
    </TTGlyph>
    <TTGlyph name="Aring" xMin="-36" yMin="0" xMax="409" yMax="879">
      <contour>
        <pt x="409" y="797" on="1"/>
        <pt x="409" y="766" on="0"/>
        <pt x="373" y="713" on="0"/>
        <pt x="341" y="702" on="1"/>
        <pt x="376" y="0" on="1"/>
        <pt x="273" y="0" on="1"/>
        <pt x="268" y="155" on="1"/>
        <pt x="127" y="155" on="1"/>
        <pt x="66" y="0" on="1"/>
        <pt x="-36" y="0" on="1"/>
        <pt x="254" y="706" on="1"/>
        <pt x="234" y="717" on="0"/>
        <pt x="212" y="754" on="0"/>
        <pt x="212" y="776" on="1"/>
        <pt x="212" y="795" on="0"/>
        <pt x="227" y="833" on="0"/>
        <pt x="255" y="861" on="0"/>
        <pt x="295" y="879" on="0"/>
        <pt x="320" y="879" on="1"/>
        <pt x="361" y="879" on="0"/>
        <pt x="409" y="830" on="0"/>
      </contour>
      <contour>
        <pt x="262" y="510" on="1"/>
        <pt x="163" y="247" on="1"/>
        <pt x="266" y="247" on="1"/>
      </contour>
      <contour>
        <pt x="353" y="794" on="1"/>
        <pt x="353" y="811" on="0"/>
        <pt x="333" y="832" on="0"/>
        <pt x="317" y="832" on="1"/>
        <pt x="296" y="832" on="0"/>
        <pt x="269" y="802" on="0"/>
        <pt x="269" y="780" on="1"/>
        <pt x="269" y="762" on="0"/>
        <pt x="289" y="741" on="0"/>
        <pt x="305" y="741" on="1"/>
        <pt x="326" y="741" on="0"/>
        <pt x="353" y="771" on="0"/>
      </contour>
    </TTGlyph>
    <TTGlyph name="Aringacute" xMin="-36" yMin="0" xMax="482" yMax="1068">
      <component glyphName="acute" x="143" y="408" flags="0x4"/>
      <component glyphName="Aring" x="0" y="0" flags="0x4"/>
    </TTGlyph>
    <TTGlyph name="Atilde" xMin="-36" yMin="0" xMax="451" yMax="891">
      <component glyphName="A" x="0" y="0" flags="0x204"/>
      <component glyphName="tilde" x="56" y="285" flags="0x4"/>
    </TTGlyph>
    <TTGlyph name="B" xMin="6" yMin="-7" xMax="430" yMax="740">
      <contour>
        <pt x="430" y="574" on="1"/>
        <pt x="430" y="536" on="0"/>
        <pt x="409" y="473" on="0"/>
        <pt x="375" y="424" on="0"/>
        <pt x="331" y="388" on="0"/>
        <pt x="308" y="378" on="1"/>
        <pt x="346" y="358" on="0"/>
        <pt x="387" y="281" on="0"/>
        <pt x="387" y="235" on="1"/>
        <pt x="387" y="184" on="0"/>
        <pt x="352" y="96" on="0"/>
        <pt x="285" y="30" on="0"/>
        <pt x="188" y="-7" on="0"/>
        <pt x="127" y="-7" on="1"/>
        <pt x="115" y="-7" on="0"/>
        <pt x="82" y="-5" on="0"/>
        <pt x="48" y="-1" on="0"/>
        <pt x="17" y="4" on="0"/>
        <pt x="6" y="7" on="1"/>
        <pt x="133" y="728" on="1"/>
        <pt x="160" y="735" on="0"/>
        <pt x="218" y="740" on="0"/>
        <pt x="238" y="740" on="1"/>
        <pt x="289" y="740" on="0"/>
        <pt x="362" y="711" on="0"/>
        <pt x="408" y="664" on="0"/>
        <pt x="430" y="605" on="0"/>
      </contour>
      <contour>
        <pt x="325" y="556" on="1"/>
        <pt x="325" y="602" on="0"/>
        <pt x="278" y="648" on="0"/>
        <pt x="241" y="648" on="1"/>
        <pt x="230" y="648" on="0"/>
        <pt x="220" y="646" on="1"/>
        <pt x="180" y="416" on="1"/>
        <pt x="185" y="415" on="0"/>
        <pt x="203" y="415" on="1"/>
        <pt x="228" y="415" on="0"/>
        <pt x="272" y="434" on="0"/>
        <pt x="305" y="470" on="0"/>
        <pt x="325" y="523" on="0"/>
      </contour>
      <contour>
        <pt x="282" y="235" on="1"/>
        <pt x="282" y="282" on="0"/>
        <pt x="235" y="338" on="0"/>
        <pt x="190" y="338" on="1"/>
        <pt x="184" y="338" on="0"/>
        <pt x="169" y="337" on="0"/>
        <pt x="166" y="336" on="1"/>
        <pt x="122" y="88" on="1"/>
        <pt x="127" y="86" on="0"/>
        <pt x="146" y="85" on="0"/>
        <pt x="154" y="85" on="1"/>
        <pt x="184" y="85" on="0"/>
        <pt x="231" y="109" on="0"/>
        <pt x="264" y="150" on="0"/>
        <pt x="282" y="204" on="0"/>
      </contour>
    </TTGlyph>
    <TTGlyph name="C" xMin="40" yMin="-11" xMax="447" yMax="744">
      <contour>
        <pt x="395" y="613" on="1"/>
        <pt x="381" y="627" on="0"/>
        <pt x="349" y="647" on="0"/>
        <pt x="326" y="647" on="1"/>
        <pt x="290" y="647" on="0"/>
        <pt x="225" y="578" on="0"/>
        <pt x="176" y="467" on="0"/>
        <pt x="147" y="327" on="0"/>
        <pt x="147" y="256" on="1"/>
        <pt x="147" y="173" on="0"/>
        <pt x="196" y="87" on="0"/>
        <pt x="240" y="87" on="1"/>
        <pt x="260" y="87" on="0"/>
        <pt x="295" y="101" on="0"/>
        <pt x="308" y="109" on="1"/>
        <pt x="331" y="21" on="1"/>
        <pt x="301" y="1" on="0"/>
        <pt x="244" y="-11" on="0"/>
        <pt x="228" y="-11" on="1"/>
        <pt x="139" y="-11" on="0"/>
        <pt x="40" y="129" on="0"/>
        <pt x="40" y="256" on="1"/>
        <pt x="40" y="316" on="0"/>
        <pt x="59" y="435" on="0"/>
        <pt x="95" y="543" on="0"/>
        <pt x="146" y="636" on="0"/>
        <pt x="211" y="705" on="0"/>
        <pt x="286" y="744" on="0"/>
        <pt x="329" y="744" on="1"/>
        <pt x="395" y="744" on="0"/>
        <pt x="447" y="699" on="1"/>
      </contour>
    </TTGlyph>
    <TTGlyph name="Cacute" xMin="40" yMin="-11" xMax="474" yMax="945">
      <component glyphName="acute" x="135" y="285" flags="0x4"/>
      <component glyphName="C" x="0" y="0" flags="0x4"/>
    </TTGlyph>
    <TTGlyph name="Ccaron" xMin="40" yMin="-11" xMax="478" yMax="923">
      <component glyphName="caron" x="80" y="285" flags="0x4"/>
      <component glyphName="C" x="0" y="0" flags="0x4"/>
    </TTGlyph>
    <TTGlyph name="Ccedilla" xMin="40" yMin="-189" xMax="447" yMax="744">
      <contour>
        <pt x="262" y="-107" on="1"/>
        <pt x="262" y="-142" on="0"/>
        <pt x="211" y="-189" on="0"/>
        <pt x="167" y="-189" on="1"/>
        <pt x="142" y="-189" on="0"/>
        <pt x="94" y="-174" on="0"/>
        <pt x="76" y="-161" on="1"/>
        <pt x="100" y="-113" on="1"/>
        <pt x="122" y="-128" on="0"/>
        <pt x="156" y="-138" on="0"/>
        <pt x="171" y="-138" on="1"/>
        <pt x="185" y="-138" on="0"/>
        <pt x="204" y="-123" on="0"/>
        <pt x="204" y="-112" on="1"/>
        <pt x="204" y="-100" on="0"/>
        <pt x="176" y="-80" on="0"/>
        <pt x="134" y="-79" on="1"/>
        <pt x="132" y="-72" on="1"/>
        <pt x="163" y="0" on="1"/>
        <pt x="104" y="23" on="0"/>
        <pt x="40" y="154" on="0"/>
        <pt x="40" y="256" on="1"/>
        <pt x="40" y="316" on="0"/>
        <pt x="59" y="435" on="0"/>
        <pt x="95" y="543" on="0"/>
        <pt x="146" y="636" on="0"/>
        <pt x="211" y="705" on="0"/>
        <pt x="286" y="744" on="0"/>
        <pt x="329" y="744" on="1"/>
        <pt x="395" y="744" on="0"/>
        <pt x="447" y="699" on="1"/>
        <pt x="395" y="613" on="1"/>
        <pt x="381" y="627" on="0"/>
        <pt x="349" y="647" on="0"/>
        <pt x="326" y="647" on="1"/>
        <pt x="290" y="647" on="0"/>
        <pt x="225" y="578" on="0"/>
        <pt x="176" y="467" on="0"/>
        <pt x="147" y="327" on="0"/>
        <pt x="147" y="256" on="1"/>
        <pt x="147" y="173" on="0"/>
        <pt x="196" y="87" on="0"/>
        <pt x="240" y="87" on="1"/>
        <pt x="260" y="87" on="0"/>
        <pt x="295" y="101" on="0"/>
        <pt x="308" y="109" on="1"/>
        <pt x="331" y="21" on="1"/>
        <pt x="301" y="1" on="0"/>
        <pt x="244" y="-11" on="0"/>
        <pt x="228" y="-11" on="1"/>
        <pt x="220" y="-11" on="0"/>
        <pt x="207" y="-10" on="0"/>
        <pt x="200" y="-9" on="1"/>
        <pt x="188" y="-37" on="1"/>
        <pt x="230" y="-45" on="0"/>
        <pt x="262" y="-84" on="0"/>
      </contour>
    </TTGlyph>
    <TTGlyph name="Cdotaccent" xMin="40" yMin="-11" xMax="447" yMax="893">
      <component glyphName="C" x="0" y="0" flags="0x204"/>
      <component glyphName="dotaccent" x="79" y="285" flags="0x4"/>
    </TTGlyph>
    <TTGlyph name="D" xMin="10" yMin="-7" xMax="458" yMax="740">
      <contour>
        <pt x="112" y="-7" on="1"/>
        <pt x="81" y="-7" on="0"/>
        <pt x="27" y="1" on="0"/>
        <pt x="10" y="7" on="1"/>
        <pt x="137" y="731" on="1"/>
        <pt x="149" y="734" on="0"/>
        <pt x="196" y="740" on="0"/>
        <pt x="216" y="740" on="1"/>
        <pt x="319" y="740" on="0"/>
        <pt x="382" y="677" on="1"/>
        <pt x="420" y="639" on="0"/>
        <pt x="458" y="524" on="0"/>
        <pt x="458" y="454" on="1"/>
        <pt x="458" y="370" on="0"/>
        <pt x="414" y="205" on="0"/>
        <pt x="327" y="74" on="0"/>
        <pt x="197" y="-7" on="0"/>
      </contour>
      <contour>
        <pt x="226" y="645" on="1"/>
        <pt x="128" y="88" on="1"/>
        <pt x="131" y="88" on="1"/>
        <pt x="179" y="88" on="0"/>
        <pt x="260" y="152" on="0"/>
        <pt x="319" y="256" on="0"/>
        <pt x="351" y="385" on="0"/>
        <pt x="351" y="451" on="1"/>
        <pt x="351" y="506" on="0"/>
        <pt x="328" y="589" on="0"/>
        <pt x="303" y="615" on="1"/>
        <pt x="286" y="632" on="0"/>
        <pt x="247" y="645" on="0"/>
        <pt x="227" y="645" on="1"/>
      </contour>
    </TTGlyph>
    <TTGlyph name="Dcaron" xMin="10" yMin="-7" xMax="458" yMax="918">
      <component glyphName="caron" x="47" y="280" flags="0x4"/>
      <component glyphName="D" x="0" y="0" flags="0x4"/>
    </TTGlyph>
    <TTGlyph name="Dcroat" xMin="25" yMin="-7" xMax="473" yMax="740">
      <component glyphName="Eth" x="0" y="0" flags="0x204"/>
    </TTGlyph>
    <TTGlyph name="E" xMin="9" yMin="0" xMax="422" yMax="733">
      <contour>
        <pt x="405" y="636" on="1"/>
        <pt x="224" y="636" on="1"/>
        <pt x="187" y="425" on="1"/>
        <pt x="349" y="425" on="1"/>
        <pt x="332" y="330" on="1"/>
        <pt x="170" y="330" on="1"/>
        <pt x="129" y="97" on="1"/>
        <pt x="310" y="97" on="1"/>
        <pt x="293" y="0" on="1"/>
        <pt x="9" y="0" on="1"/>
        <pt x="138" y="733" on="1"/>
        <pt x="422" y="733" on="1"/>
      </contour>
    </TTGlyph>
    <TTGlyph name="Eacute" xMin="9" yMin="0" xMax="436" yMax="940">
      <component glyphName="acute" x="97" y="280" flags="0x4"/>
      <component glyphName="E" x="0" y="0" flags="0x4"/>
    </TTGlyph>
    <TTGlyph name="Ebreve" xMin="9" yMin="0" xMax="422" yMax="900">
      <component glyphName="E" x="0" y="0" flags="0x204"/>
      <component glyphName="breve" x="42" y="280" flags="0x4"/>
    </TTGlyph>
    <TTGlyph name="Ecaron" xMin="9" yMin="0" xMax="440" yMax="918">
      <component glyphName="caron" x="42" y="280" flags="0x4"/>
      <component glyphName="E" x="0" y="0" flags="0x4"/>
    </TTGlyph>
    <TTGlyph name="Ecircumflex" xMin="9" yMin="0" xMax="422" yMax="923">
      <component glyphName="circumflex" x="35" y="280" flags="0x4"/>
      <component glyphName="E" x="0" y="0" flags="0x4"/>
    </TTGlyph>
    <TTGlyph name="Edieresis" xMin="9" yMin="0" xMax="422" yMax="888">
      <component glyphName="dieresis" x="41" y="280" flags="0x4"/>
      <component glyphName="E" x="0" y="0" flags="0x4"/>
    </TTGlyph>
    <TTGlyph name="Edotaccent" xMin="9" yMin="0" xMax="422" yMax="888">
      <component glyphName="E" x="0" y="0" flags="0x204"/>
      <component glyphName="dotaccent" x="41" y="280" flags="0x4"/>
    </TTGlyph>
    <TTGlyph name="Egrave" xMin="9" yMin="0" xMax="422" yMax="946">
      <component glyphName="E" x="0" y="0" flags="0x204"/>
      <component glyphName="grave" x="-16" y="280" flags="0x4"/>
    </TTGlyph>
    <TTGlyph name="Emacron" xMin="9" yMin="0" xMax="422" yMax="855">
      <component glyphName="E" x="0" y="0" flags="0x204"/>
      <component glyphName="macron" x="41" y="280" flags="0x4"/>
    </TTGlyph>
    <TTGlyph name="Eogonek" xMin="9" yMin="-193" xMax="422" yMax="733">
      <contour>
        <pt x="405" y="636" on="1"/>
        <pt x="224" y="636" on="1"/>
        <pt x="187" y="425" on="1"/>
        <pt x="349" y="425" on="1"/>
        <pt x="332" y="330" on="1"/>
        <pt x="170" y="330" on="1"/>
        <pt x="129" y="97" on="1"/>
        <pt x="310" y="97" on="1"/>
        <pt x="293" y="0" on="1"/>
        <pt x="258" y="0" on="1"/>
        <pt x="235" y="-25" on="0"/>
        <pt x="196" y="-79" on="0"/>
        <pt x="196" y="-108" on="1"/>
        <pt x="196" y="-135" on="0"/>
        <pt x="221" y="-135" on="1"/>
        <pt x="230" y="-135" on="0"/>
        <pt x="249" y="-128" on="0"/>
        <pt x="257" y="-123" on="1"/>
        <pt x="268" y="-164" on="1"/>
        <pt x="253" y="-177" on="0"/>
        <pt x="214" y="-193" on="0"/>
        <pt x="190" y="-193" on="1"/>
        <pt x="160" y="-193" on="0"/>
        <pt x="127" y="-159" on="0"/>
        <pt x="127" y="-132" on="1"/>
        <pt x="127" y="-94" on="0"/>
        <pt x="168" y="-31" on="0"/>
        <pt x="200" y="0" on="1"/>
        <pt x="9" y="0" on="1"/>
        <pt x="138" y="733" on="1"/>
        <pt x="422" y="733" on="1"/>
      </contour>
    </TTGlyph>
    <TTGlyph name="Eth" xMin="25" yMin="-7" xMax="473" yMax="740">
      <contour>
        <pt x="473" y="454" on="1"/>
        <pt x="473" y="370" on="0"/>
        <pt x="429" y="205" on="0"/>
        <pt x="342" y="74" on="0"/>
        <pt x="212" y="-7" on="0"/>
        <pt x="127" y="-7" on="1"/>
        <pt x="96" y="-7" on="0"/>
        <pt x="42" y="1" on="0"/>
        <pt x="25" y="7" on="1"/>
        <pt x="81" y="328" on="1"/>
        <pt x="35" y="328" on="1"/>
        <pt x="49" y="412" on="1"/>
        <pt x="96" y="412" on="1"/>
        <pt x="152" y="731" on="1"/>
        <pt x="164" y="734" on="0"/>
        <pt x="211" y="740" on="0"/>
        <pt x="231" y="740" on="1"/>
        <pt x="334" y="740" on="0"/>
        <pt x="397" y="677" on="1"/>
        <pt x="435" y="639" on="0"/>
        <pt x="473" y="524" on="0"/>
      </contour>
      <contour>
        <pt x="366" y="451" on="1"/>
        <pt x="366" y="506" on="0"/>
        <pt x="343" y="589" on="0"/>
        <pt x="318" y="615" on="1"/>
        <pt x="301" y="632" on="0"/>
        <pt x="262" y="645" on="0"/>
        <pt x="242" y="645" on="1"/>
        <pt x="241" y="645" on="1"/>
        <pt x="200" y="412" on="1"/>
        <pt x="283" y="412" on="1"/>
        <pt x="269" y="328" on="1"/>
        <pt x="185" y="328" on="1"/>
        <pt x="143" y="88" on="1"/>
        <pt x="146" y="88" on="1"/>
        <pt x="194" y="88" on="0"/>
        <pt x="275" y="152" on="0"/>
        <pt x="334" y="256" on="0"/>
        <pt x="366" y="385" on="0"/>
      </contour>
    </TTGlyph>
    <TTGlyph name="Euro" xMin="17" yMin="-11" xMax="479" yMax="732">
      <contour>
        <pt x="75" y="315" on="1"/>
        <pt x="77" y="338" on="0"/>
        <pt x="84" y="384" on="0"/>
        <pt x="89" y="407" on="1"/>
        <pt x="46" y="407" on="1"/>
        <pt x="59" y="481" on="1"/>
        <pt x="109" y="481" on="1"/>
        <pt x="127" y="535" on="0"/>
        <pt x="178" y="626" on="0"/>
        <pt x="242" y="694" on="0"/>
        <pt x="318" y="732" on="0"/>
        <pt x="361" y="732" on="1"/>
        <pt x="393" y="732" on="0"/>
        <pt x="452" y="710" on="0"/>
        <pt x="479" y="686" on="1"/>
        <pt x="427" y="601" on="1"/>
        <pt x="413" y="614" on="0"/>
        <pt x="380" y="634" on="0"/>
        <pt x="357" y="634" on="1"/>
        <pt x="315" y="634" on="0"/>
        <pt x="243" y="549" on="0"/>
        <pt x="218" y="481" on="1"/>
        <pt x="379" y="481" on="1"/>
        <pt x="366" y="407" on="1"/>
        <pt x="197" y="407" on="1"/>
        <pt x="187" y="362" on="0"/>
        <pt x="182" y="315" on="1"/>
        <pt x="350" y="315" on="1"/>
        <pt x="337" y="241" on="1"/>
        <pt x="179" y="241" on="1"/>
        <pt x="181" y="165" on="0"/>
        <pt x="230" y="87" on="0"/>
        <pt x="272" y="87" on="1"/>
        <pt x="290" y="87" on="0"/>
        <pt x="327" y="101" on="0"/>
        <pt x="340" y="109" on="1"/>
        <pt x="363" y="21" on="1"/>
        <pt x="333" y="1" on="0"/>
        <pt x="276" y="-11" on="0"/>
        <pt x="259" y="-11" on="1"/>
        <pt x="217" y="-11" on="0"/>
        <pt x="149" y="24" on="0"/>
        <pt x="101" y="89" on="0"/>
        <pt x="74" y="182" on="0"/>
        <pt x="73" y="241" on="1"/>
        <pt x="17" y="241" on="1"/>
        <pt x="29" y="315" on="1"/>
      </contour>
    </TTGlyph>
    <TTGlyph name="Euro.lin" xMin="17" yMin="-11" xMax="479" yMax="732">
      <contour>
        <pt x="109" y="481" on="1"/>
        <pt x="127" y="535" on="0"/>
        <pt x="178" y="626" on="0"/>
        <pt x="242" y="694" on="0"/>
        <pt x="318" y="732" on="0"/>
        <pt x="361" y="732" on="1"/>
        <pt x="393" y="732" on="0"/>
        <pt x="452" y="710" on="0"/>
        <pt x="479" y="686" on="1"/>
        <pt x="427" y="601" on="1"/>
        <pt x="413" y="614" on="0"/>
        <pt x="380" y="634" on="0"/>
        <pt x="357" y="634" on="1"/>
        <pt x="315" y="634" on="0"/>
        <pt x="243" y="549" on="0"/>
        <pt x="218" y="481" on="1"/>
        <pt x="379" y="481" on="1"/>
        <pt x="366" y="407" on="1"/>
        <pt x="197" y="407" on="1"/>
        <pt x="187" y="362" on="0"/>
        <pt x="182" y="315" on="1"/>
        <pt x="350" y="315" on="1"/>
        <pt x="337" y="241" on="1"/>
        <pt x="179" y="241" on="1"/>
        <pt x="181" y="165" on="0"/>
        <pt x="230" y="87" on="0"/>
        <pt x="272" y="87" on="1"/>
        <pt x="290" y="87" on="0"/>
        <pt x="327" y="101" on="0"/>
        <pt x="340" y="109" on="1"/>
        <pt x="363" y="21" on="1"/>
        <pt x="333" y="1" on="0"/>
        <pt x="276" y="-11" on="0"/>
        <pt x="259" y="-11" on="1"/>
        <pt x="217" y="-11" on="0"/>
        <pt x="149" y="24" on="0"/>
        <pt x="101" y="89" on="0"/>
        <pt x="74" y="182" on="0"/>
        <pt x="73" y="241" on="1"/>
        <pt x="17" y="241" on="1"/>
        <pt x="29" y="315" on="1"/>
        <pt x="75" y="315" on="1"/>
        <pt x="77" y="338" on="0"/>
        <pt x="84" y="384" on="0"/>
        <pt x="89" y="407" on="1"/>
        <pt x="46" y="407" on="1"/>
        <pt x="59" y="481" on="1"/>
      </contour>
    </TTGlyph>
    <TTGlyph name="F" xMin="9" yMin="0" xMax="417" yMax="733">
      <contour>
        <pt x="400" y="636" on="1"/>
        <pt x="225" y="636" on="1"/>
        <pt x="186" y="417" on="1"/>
        <pt x="339" y="417" on="1"/>
        <pt x="323" y="322" on="1"/>
        <pt x="169" y="322" on="1"/>
        <pt x="112" y="0" on="1"/>
        <pt x="9" y="0" on="1"/>
        <pt x="138" y="733" on="1"/>
        <pt x="417" y="733" on="1"/>
      </contour>
    </TTGlyph>
    <TTGlyph name="G" xMin="42" yMin="-11" xMax="457" yMax="744">
      <contour>
        <pt x="351" y="29" on="1"/>
        <pt x="325" y="11" on="0"/>
        <pt x="263" y="-11" on="0"/>
        <pt x="229" y="-11" on="1"/>
        <pt x="187" y="-11" on="0"/>
        <pt x="119" y="23" on="0"/>
        <pt x="69" y="89" on="0"/>
        <pt x="42" y="188" on="0"/>
        <pt x="42" y="254" on="1"/>
        <pt x="42" y="342" on="0"/>
        <pt x="81" y="517" on="0"/>
        <pt x="156" y="657" on="0"/>
        <pt x="264" y="744" on="0"/>
        <pt x="332" y="744" on="1"/>
        <pt x="370" y="744" on="0"/>
        <pt x="434" y="712" on="0"/>
        <pt x="457" y="691" on="1"/>
        <pt x="409" y="604" on="1"/>
        <pt x="395" y="619" on="0"/>
        <pt x="354" y="646" on="0"/>
        <pt x="327" y="646" on="1"/>
        <pt x="286" y="646" on="0"/>
        <pt x="220" y="573" on="0"/>
        <pt x="174" y="457" on="0"/>
        <pt x="148" y="316" on="0"/>
        <pt x="148" y="248" on="1"/>
        <pt x="148" y="162" on="0"/>
        <pt x="198" y="81" on="0"/>
        <pt x="242" y="81" on="1"/>
        <pt x="250" y="81" on="0"/>
        <pt x="260" y="84" on="0"/>
        <pt x="265" y="86" on="1"/>
        <pt x="309" y="317" on="1"/>
        <pt x="229" y="317" on="1"/>
        <pt x="246" y="413" on="1"/>
        <pt x="422" y="413" on="1"/>
      </contour>
    </TTGlyph>
    <TTGlyph name="G.alt" xMin="41" yMin="-12" xMax="467" yMax="744">
      <contour>
        <pt x="439" y="413" on="1"/>
        <pt x="432" y="317" on="0"/>
        <pt x="396" y="160" on="0"/>
        <pt x="339" y="49" on="0"/>
        <pt x="260" y="-12" on="0"/>
        <pt x="210" y="-12" on="1"/>
        <pt x="132" y="-12" on="0"/>
        <pt x="41" y="120" on="0"/>
        <pt x="41" y="248" on="1"/>
        <pt x="41" y="345" on="0"/>
        <pt x="83" y="524" on="0"/>
        <pt x="158" y="662" on="0"/>
        <pt x="263" y="744" on="0"/>
        <pt x="327" y="744" on="1"/>
        <pt x="377" y="744" on="0"/>
        <pt x="447" y="699" on="0"/>
        <pt x="467" y="670" on="1"/>
        <pt x="403" y="595" on="1"/>
        <pt x="391" y="614" on="0"/>
        <pt x="352" y="646" on="0"/>
        <pt x="324" y="646" on="1"/>
        <pt x="286" y="646" on="0"/>
        <pt x="222" y="579" on="0"/>
        <pt x="175" y="466" on="0"/>
        <pt x="148" y="319" on="0"/>
        <pt x="148" y="238" on="1"/>
        <pt x="148" y="162" on="0"/>
        <pt x="183" y="85" on="0"/>
        <pt x="214" y="85" on="1"/>
        <pt x="235" y="85" on="0"/>
        <pt x="271" y="122" on="0"/>
        <pt x="300" y="185" on="0"/>
        <pt x="321" y="270" on="0"/>
        <pt x="326" y="317" on="1"/>
        <pt x="227" y="317" on="1"/>
        <pt x="244" y="413" on="1"/>
      </contour>
    </TTGlyph>
    <TTGlyph name="Gbreve" xMin="42" yMin="-11" xMax="466" yMax="905">
      <component glyphName="G" x="0" y="0" flags="0x204"/>
      <component glyphName="breve" x="86" y="285" flags="0x4"/>
    </TTGlyph>
    <TTGlyph name="Gbreve.alt" xMin="41" yMin="-12" xMax="467" yMax="905">
      <component glyphName="G.alt" x="0" y="0" flags="0x204"/>
      <component glyphName="breve" x="86" y="285" flags="0x4"/>
    </TTGlyph>
    <TTGlyph name="Gcommaaccent" xMin="42" yMin="-276" xMax="457" yMax="744">
      <component glyphName="commaaccent" x="90" y="0" flags="0x4"/>
      <component glyphName="G" x="0" y="0" flags="0x4"/>
    </TTGlyph>
    <TTGlyph name="Gcommaaccent.alt" xMin="41" yMin="-276" xMax="467" yMax="744">
      <component glyphName="commaaccent" x="90" y="0" flags="0x4"/>
      <component glyphName="G.alt" x="0" y="0" flags="0x4"/>
    </TTGlyph>
    <TTGlyph name="Gdotaccent" xMin="42" yMin="-11" xMax="457" yMax="893">
      <component glyphName="G" x="0" y="0" flags="0x204"/>
      <component glyphName="dotaccent" x="85" y="285" flags="0x4"/>
    </TTGlyph>
    <TTGlyph name="Gdotaccent.alt" xMin="41" yMin="-12" xMax="467" yMax="893">
      <component glyphName="G.alt" x="0" y="0" flags="0x4"/>
      <component glyphName="dotaccent" x="85" y="285" flags="0x4"/>
    </TTGlyph>
    <TTGlyph name="H" xMin="10" yMin="0" xMax="500" yMax="733">
      <contour>
        <pt x="371" y="0" on="1"/>
        <pt x="267" y="0" on="1"/>
        <pt x="324" y="324" on="1"/>
        <pt x="171" y="324" on="1"/>
        <pt x="114" y="0" on="1"/>
        <pt x="10" y="0" on="1"/>
        <pt x="139" y="733" on="1"/>
        <pt x="243" y="733" on="1"/>
        <pt x="189" y="421" on="1"/>
        <pt x="341" y="421" on="1"/>
        <pt x="396" y="733" on="1"/>
        <pt x="500" y="733" on="1"/>
      </contour>
    </TTGlyph>
    <TTGlyph name="Hbar" xMin="10" yMin="0" xMax="528" yMax="733">
      <contour>
        <pt x="478" y="612" on="1"/>
        <pt x="528" y="612" on="1"/>
        <pt x="516" y="543" on="1"/>
        <pt x="466" y="543" on="1"/>
        <pt x="371" y="0" on="1"/>
        <pt x="267" y="0" on="1"/>
        <pt x="324" y="324" on="1"/>
        <pt x="171" y="324" on="1"/>
        <pt x="114" y="0" on="1"/>
        <pt x="10" y="0" on="1"/>
        <pt x="105" y="543" on="1"/>
        <pt x="55" y="543" on="1"/>
        <pt x="67" y="612" on="1"/>
        <pt x="117" y="612" on="1"/>
        <pt x="139" y="733" on="1"/>
        <pt x="243" y="733" on="1"/>
        <pt x="222" y="612" on="1"/>
        <pt x="374" y="612" on="1"/>
        <pt x="396" y="733" on="1"/>
        <pt x="500" y="733" on="1"/>
      </contour>
      <contour>
        <pt x="341" y="421" on="1"/>
        <pt x="362" y="543" on="1"/>
        <pt x="210" y="543" on="1"/>
        <pt x="189" y="421" on="1"/>
      </contour>
    </TTGlyph>
    <TTGlyph name="I" xMin="11" yMin="0" xMax="245" yMax="733">
      <contour>
        <pt x="115" y="0" on="1"/>
        <pt x="11" y="0" on="1"/>
        <pt x="141" y="733" on="1"/>
        <pt x="245" y="733" on="1"/>
      </contour>
    </TTGlyph>
    <TTGlyph name="Iacute" xMin="11" yMin="0" xMax="348" yMax="940">
      <component glyphName="I" x="0" y="0" flags="0x204"/>
      <component glyphName="acute" x="9" y="280" flags="0x4"/>
    </TTGlyph>
    <TTGlyph name="Ibreve" xMin="11" yMin="0" xMax="336" yMax="900">
      <component glyphName="I" x="0" y="0" flags="0x204"/>
      <component glyphName="breve" x="-44" y="280" flags="0x4"/>
    </TTGlyph>
    <TTGlyph name="Icircumflex" xMin="11" yMin="0" xMax="326" yMax="923">
      <component glyphName="I" x="0" y="0" flags="0x204"/>
      <component glyphName="circumflex" x="-51" y="280" flags="0x4"/>
    </TTGlyph>
    <TTGlyph name="Idieresis" xMin="11" yMin="0" xMax="332" yMax="888">
      <component glyphName="I" x="0" y="0" flags="0x204"/>
      <component glyphName="dieresis" x="-45" y="280" flags="0x4"/>
    </TTGlyph>
    <TTGlyph name="Idotaccent" xMin="11" yMin="0" xMax="262" yMax="888">
      <component glyphName="I" x="0" y="0" flags="0x204"/>
      <component glyphName="dotaccent" x="-45" y="280" flags="0x4"/>
    </TTGlyph>
    <TTGlyph name="Igrave" xMin="11" yMin="0" xMax="258" yMax="946">
      <component glyphName="I" x="0" y="0" flags="0x204"/>
      <component glyphName="grave" x="-103" y="280" flags="0x4"/>
    </TTGlyph>
    <TTGlyph name="Imacron" xMin="11" yMin="0" xMax="327" yMax="855">
      <component glyphName="I" x="0" y="0" flags="0x204"/>
      <component glyphName="macron" x="-45" y="280" flags="0x4"/>
    </TTGlyph>
    <TTGlyph name="Iogonek" xMin="-39" yMin="-193" xMax="245" yMax="733">
      <contour>
        <pt x="115" y="0" on="1"/>
        <pt x="93" y="0" on="1"/>
        <pt x="70" y="-25" on="0"/>
        <pt x="31" y="-79" on="0"/>
        <pt x="31" y="-108" on="1"/>
        <pt x="31" y="-135" on="0"/>
        <pt x="56" y="-135" on="1"/>
        <pt x="65" y="-135" on="0"/>
        <pt x="84" y="-128" on="0"/>
        <pt x="92" y="-123" on="1"/>
        <pt x="103" y="-164" on="1"/>
        <pt x="88" y="-177" on="0"/>
        <pt x="49" y="-193" on="0"/>
        <pt x="25" y="-193" on="1"/>
        <pt x="-6" y="-193" on="0"/>
        <pt x="-39" y="-159" on="0"/>
        <pt x="-39" y="-132" on="1"/>
        <pt x="-39" y="-94" on="0"/>
        <pt x="3" y="-31" on="0"/>
        <pt x="35" y="0" on="1"/>
        <pt x="11" y="0" on="1"/>
        <pt x="141" y="733" on="1"/>
        <pt x="245" y="733" on="1"/>
      </contour>
    </TTGlyph>
    <TTGlyph name="J" xMin="-25" yMin="-9" xMax="355" yMax="733">
      <contour>
        <pt x="251" y="147" on="1"/>
        <pt x="237" y="70" on="0"/>
        <pt x="162" y="-9" on="0"/>
        <pt x="98" y="-9" on="1"/>
        <pt x="71" y="-9" on="0"/>
        <pt x="7" y="11" on="0"/>
        <pt x="-25" y="33" on="1"/>
        <pt x="14" y="118" on="1"/>
        <pt x="52" y="90" on="0"/>
        <pt x="86" y="90" on="1"/>
        <pt x="137" y="90" on="0"/>
        <pt x="150" y="164" on="1"/>
        <pt x="251" y="733" on="1"/>
        <pt x="355" y="733" on="1"/>
      </contour>
    </TTGlyph>
    <TTGlyph name="K" xMin="9" yMin="0" xMax="495" yMax="733">
      <contour>
        <pt x="270" y="372" on="1"/>
        <pt x="368" y="0" on="1"/>
        <pt x="259" y="0" on="1"/>
        <pt x="175" y="356" on="1"/>
        <pt x="113" y="0" on="1"/>
        <pt x="9" y="0" on="1"/>
        <pt x="138" y="733" on="1"/>
        <pt x="242" y="733" on="1"/>
        <pt x="182" y="397" on="1"/>
        <pt x="382" y="733" on="1"/>
        <pt x="495" y="733" on="1"/>
      </contour>
    </TTGlyph>
    <TTGlyph name="Kcommaaccent" xMin="9" yMin="-271" xMax="495" yMax="733">
      <component glyphName="commaaccent" x="81" y="5" flags="0x4"/>
      <component glyphName="K" x="0" y="0" flags="0x4"/>
    </TTGlyph>
    <TTGlyph name="L" xMin="9" yMin="0" xMax="291" yMax="733">
      <contour>
        <pt x="274" y="0" on="1"/>
        <pt x="9" y="0" on="1"/>
        <pt x="138" y="733" on="1"/>
        <pt x="242" y="733" on="1"/>
        <pt x="130" y="97" on="1"/>
        <pt x="291" y="97" on="1"/>
      </contour>
    </TTGlyph>
    <TTGlyph name="Lacute" xMin="9" yMin="0" xMax="345" yMax="940">
      <component glyphName="acute" x="6" y="280" flags="0x4"/>
      <component glyphName="L" x="0" y="0" flags="0x4"/>
    </TTGlyph>
    <TTGlyph name="Lcaron" xMin="9" yMin="0" xMax="369" yMax="734">
      <component glyphName="caron.alt" x="206" y="-6" flags="0x4"/>
      <component glyphName="L" x="0" y="0" flags="0x4"/>
    </TTGlyph>
    <TTGlyph name="Lcommaaccent" xMin="9" yMin="-276" xMax="291" yMax="733">
      <component glyphName="commaaccent" x="40" y="0" flags="0x4"/>
      <component glyphName="L" x="0" y="0" flags="0x4"/>
    </TTGlyph>
    <TTGlyph name="Ldot" xMin="9" yMin="0" xMax="339" yMax="733">
      <component glyphName="L" x="0" y="0" flags="0x204"/>
      <component glyphName="dotaccent" x="32" y="-189" flags="0x4"/>
    </TTGlyph>
    <TTGlyph name="Lslash" xMin="10" yMin="0" xMax="306" yMax="733">
      <contour>
        <pt x="289" y="0" on="1"/>
        <pt x="24" y="0" on="1"/>
        <pt x="73" y="275" on="1"/>
        <pt x="10" y="249" on="1"/>
        <pt x="27" y="346" on="1"/>
        <pt x="90" y="373" on="1"/>
        <pt x="153" y="733" on="1"/>
        <pt x="257" y="733" on="1"/>
        <pt x="202" y="421" on="1"/>
        <pt x="302" y="463" on="1"/>
        <pt x="285" y="365" on="1"/>
        <pt x="185" y="323" on="1"/>
        <pt x="145" y="97" on="1"/>
        <pt x="306" y="97" on="1"/>
      </contour>
    </TTGlyph>
    <TTGlyph name="M" xMin="2" yMin="0" xMax="545" yMax="736">
      <contour>
        <pt x="449" y="0" on="1"/>
        <pt x="348" y="0" on="1"/>
        <pt x="413" y="428" on="1"/>
        <pt x="263" y="133" on="1"/>
        <pt x="241" y="133" on="1"/>
        <pt x="186" y="428" on="1"/>
        <pt x="102" y="0" on="1"/>
        <pt x="2" y="0" on="1"/>
        <pt x="148" y="733" on="1"/>
        <pt x="201" y="736" on="1"/>
        <pt x="285" y="328" on="1"/>
        <pt x="491" y="736" on="1"/>
        <pt x="545" y="733" on="1"/>
      </contour>
    </TTGlyph>
    <TTGlyph name="M.alt" xMin="2" yMin="0" xMax="545" yMax="736">
      <contour>
        <pt x="449" y="0" on="1"/>
        <pt x="348" y="0" on="1"/>
        <pt x="413" y="428" on="1"/>
        <pt x="263" y="133" on="1"/>
        <pt x="241" y="133" on="1"/>
        <pt x="186" y="428" on="1"/>
        <pt x="102" y="0" on="1"/>
        <pt x="2" y="0" on="1"/>
        <pt x="148" y="733" on="1"/>
        <pt x="201" y="736" on="1"/>
        <pt x="285" y="328" on="1"/>
        <pt x="491" y="736" on="1"/>
        <pt x="545" y="733" on="1"/>
      </contour>
    </TTGlyph>
    <TTGlyph name="N" xMin="9" yMin="-2" xMax="499" yMax="735">
      <contour>
        <pt x="369" y="0" on="1"/>
        <pt x="318" y="-2" on="1"/>
        <pt x="188" y="441" on="1"/>
        <pt x="110" y="0" on="1"/>
        <pt x="9" y="0" on="1"/>
        <pt x="138" y="733" on="1"/>
        <pt x="190" y="735" on="1"/>
        <pt x="321" y="300" on="1"/>
        <pt x="398" y="733" on="1"/>
        <pt x="499" y="733" on="1"/>
      </contour>
    </TTGlyph>
    <TTGlyph name="Nacute" xMin="9" yMin="-2" xMax="499" yMax="940">
      <component glyphName="acute" x="135" y="280" flags="0x4"/>
      <component glyphName="N" x="0" y="0" flags="0x4"/>
    </TTGlyph>
    <TTGlyph name="Ncaron" xMin="9" yMin="-2" xMax="499" yMax="918">
      <component glyphName="caron" x="80" y="280" flags="0x4"/>
      <component glyphName="N" x="0" y="0" flags="0x4"/>
    </TTGlyph>
    <TTGlyph name="Ncommaaccent" xMin="9" yMin="-280" xMax="499" yMax="735">
      <component glyphName="commaaccent" x="85" y="-4" flags="0x4"/>
      <component glyphName="N" x="0" y="0" flags="0x4"/>
    </TTGlyph>
    <TTGlyph name="Ntilde" xMin="9" yMin="-2" xMax="499" yMax="886">
      <component glyphName="N" x="0" y="0" flags="0x204"/>
      <component glyphName="tilde" x="72" y="280" flags="0x4"/>
    </TTGlyph>
    <TTGlyph name="O" xMin="39" yMin="-11" xMax="467" yMax="744">
      <contour>
        <pt x="467" y="495" on="1"/>
        <pt x="467" y="447" on="0"/>
        <pt x="454" y="336" on="0"/>
        <pt x="425" y="223" on="0"/>
        <pt x="382" y="118" on="0"/>
        <pt x="323" y="38" on="0"/>
        <pt x="246" y="-11" on="0"/>
        <pt x="199" y="-11" on="1"/>
        <pt x="158" y="-11" on="0"/>
        <pt x="98" y="25" on="0"/>
        <pt x="58" y="90" on="0"/>
        <pt x="39" y="182" on="0"/>
        <pt x="39" y="238" on="1"/>
        <pt x="39" y="286" on="0"/>
        <pt x="52" y="398" on="0"/>
        <pt x="81" y="510" on="0"/>
        <pt x="124" y="615" on="0"/>
        <pt x="183" y="696" on="0"/>
        <pt x="260" y="744" on="0"/>
        <pt x="307" y="744" on="1"/>
        <pt x="348" y="744" on="0"/>
        <pt x="408" y="708" on="0"/>
        <pt x="448" y="643" on="0"/>
        <pt x="467" y="551" on="0"/>
      </contour>
      <contour>
        <pt x="363" y="510" on="1"/>
        <pt x="363" y="580" on="0"/>
        <pt x="329" y="653" on="0"/>
        <pt x="300" y="653" on="1"/>
        <pt x="275" y="653" on="0"/>
        <pt x="231" y="606" on="0"/>
        <pt x="197" y="530" on="0"/>
        <pt x="170" y="436" on="0"/>
        <pt x="152" y="340" on="0"/>
        <pt x="143" y="253" on="0"/>
        <pt x="143" y="223" on="1"/>
        <pt x="143" y="153" on="0"/>
        <pt x="177" y="81" on="0"/>
        <pt x="206" y="81" on="1"/>
        <pt x="232" y="81" on="0"/>
        <pt x="275" y="128" on="0"/>
        <pt x="309" y="203" on="0"/>
        <pt x="336" y="298" on="0"/>
        <pt x="354" y="393" on="0"/>
        <pt x="363" y="480" on="0"/>
      </contour>
    </TTGlyph>
    <TTGlyph name="OE" xMin="44" yMin="-5" xMax="674" yMax="739">
      <contour>
        <pt x="657" y="636" on="1"/>
        <pt x="476" y="636" on="1"/>
        <pt x="439" y="425" on="1"/>
        <pt x="601" y="425" on="1"/>
        <pt x="584" y="330" on="1"/>
        <pt x="422" y="330" on="1"/>
        <pt x="381" y="97" on="1"/>
        <pt x="562" y="97" on="1"/>
        <pt x="545" y="0" on="1"/>
        <pt x="342" y="0" on="1"/>
        <pt x="333" y="-2" on="0"/>
        <pt x="300" y="-5" on="0"/>
        <pt x="286" y="-5" on="1"/>
        <pt x="227" y="-5" on="0"/>
        <pt x="137" y="37" on="0"/>
        <pt x="75" y="112" on="0"/>
        <pt x="44" y="218" on="0"/>
        <pt x="44" y="282" on="1"/>
        <pt x="44" y="364" on="0"/>
        <pt x="89" y="527" on="0"/>
        <pt x="176" y="658" on="0"/>
        <pt x="305" y="739" on="0"/>
        <pt x="390" y="739" on="1"/>
        <pt x="428" y="739" on="0"/>
        <pt x="457" y="733" on="1"/>
        <pt x="457" y="733" on="0"/>
        <pt x="477" y="733" on="0"/>
        <pt x="508" y="733" on="0"/>
        <pt x="547" y="733" on="0"/>
        <pt x="567" y="733" on="1"/>
        <pt x="674" y="733" on="1"/>
      </contour>
      <contour>
        <pt x="199" y="121" on="1"/>
        <pt x="216" y="104" on="0"/>
        <pt x="255" y="91" on="0"/>
        <pt x="275" y="91" on="1"/>
        <pt x="276" y="91" on="1"/>
        <pt x="374" y="644" on="1"/>
        <pt x="373" y="644" on="1"/>
        <pt x="321" y="644" on="0"/>
        <pt x="239" y="577" on="0"/>
        <pt x="182" y="472" on="0"/>
        <pt x="151" y="343" on="0"/>
        <pt x="151" y="281" on="1"/>
        <pt x="151" y="229" on="0"/>
        <pt x="174" y="147" on="0"/>
      </contour>
    </TTGlyph>
    <TTGlyph name="Oacute" xMin="39" yMin="-11" xMax="474" yMax="945">
      <component glyphName="acute" x="135" y="285" flags="0x4"/>
      <component glyphName="O" x="0" y="0" flags="0x4"/>
    </TTGlyph>
    <TTGlyph name="Obreve" xMin="39" yMin="-11" xMax="467" yMax="905">
      <component glyphName="O" x="0" y="0" flags="0x204"/>
      <component glyphName="breve" x="80" y="285" flags="0x4"/>
    </TTGlyph>
    <TTGlyph name="Ocircumflex" xMin="39" yMin="-11" xMax="467" yMax="928">
      <component glyphName="circumflex" x="74" y="285" flags="0x4"/>
      <component glyphName="O" x="0" y="0" flags="0x4"/>
    </TTGlyph>
    <TTGlyph name="Odieresis" xMin="39" yMin="-11" xMax="467" yMax="893">
      <component glyphName="dieresis" x="80" y="285" flags="0x4"/>
      <component glyphName="O" x="0" y="0" flags="0x4"/>
    </TTGlyph>
    <TTGlyph name="Ograve" xMin="39" yMin="-11" xMax="467" yMax="951">
      <component glyphName="O" x="0" y="0" flags="0x204"/>
      <component glyphName="grave" x="21" y="285" flags="0x4"/>
    </TTGlyph>
    <TTGlyph name="Ohungarumlaut" xMin="39" yMin="-11" xMax="528" yMax="976">
      <component glyphName="hungarumlaut" x="110" y="285" flags="0x4"/>
      <component glyphName="O" x="0" y="0" flags="0x4"/>
    </TTGlyph>
    <TTGlyph name="Omacron" xMin="39" yMin="-11" xMax="467" yMax="860">
      <component glyphName="macron" x="79" y="285" flags="0x4"/>
      <component glyphName="O" x="0" y="0" flags="0x4"/>
    </TTGlyph>
    <TTGlyph name="Oslash" xMin="-13" yMin="-11" xMax="514" yMax="747">
      <contour>
        <pt x="467" y="495" on="1"/>
        <pt x="467" y="447" on="0"/>
        <pt x="454" y="336" on="0"/>
        <pt x="425" y="223" on="0"/>
        <pt x="382" y="118" on="0"/>
        <pt x="323" y="38" on="0"/>
        <pt x="246" y="-11" on="0"/>
        <pt x="199" y="-11" on="1"/>
        <pt x="157" y="-11" on="0"/>
        <pt x="96" y="26" on="0"/>
        <pt x="76" y="60" on="1"/>
        <pt x="30" y="-11" on="1"/>
        <pt x="-13" y="14" on="1"/>
        <pt x="54" y="114" on="1"/>
        <pt x="39" y="168" on="0"/>
        <pt x="39" y="238" on="1"/>
        <pt x="39" y="286" on="0"/>
        <pt x="52" y="398" on="0"/>
        <pt x="81" y="510" on="0"/>
        <pt x="124" y="615" on="0"/>
        <pt x="183" y="696" on="0"/>
        <pt x="260" y="744" on="0"/>
        <pt x="307" y="744" on="1"/>
        <pt x="347" y="744" on="0"/>
        <pt x="406" y="710" on="0"/>
        <pt x="426" y="678" on="1"/>
        <pt x="472" y="747" on="1"/>
        <pt x="514" y="722" on="1"/>
        <pt x="450" y="625" on="1"/>
        <pt x="467" y="568" on="0"/>
      </contour>
      <contour>
        <pt x="206" y="81" on="1"/>
        <pt x="231" y="81" on="0"/>
        <pt x="273" y="126" on="0"/>
        <pt x="308" y="199" on="0"/>
        <pt x="334" y="291" on="0"/>
        <pt x="352" y="384" on="0"/>
        <pt x="362" y="471" on="0"/>
        <pt x="363" y="502" on="1"/>
        <pt x="148" y="159" on="1"/>
        <pt x="162" y="81" on="0"/>
      </contour>
      <contour>
        <pt x="300" y="653" on="1"/>
        <pt x="276" y="653" on="0"/>
        <pt x="234" y="611" on="0"/>
        <pt x="201" y="542" on="0"/>
        <pt x="174" y="454" on="0"/>
        <pt x="155" y="364" on="0"/>
        <pt x="144" y="278" on="0"/>
        <pt x="143" y="245" on="1"/>
        <pt x="357" y="582" on="1"/>
        <pt x="342" y="653" on="0"/>
      </contour>
    </TTGlyph>
    <TTGlyph name="Oslashacute" xMin="-13" yMin="-11" xMax="514" yMax="945">
      <component glyphName="Oslash" x="0" y="0" flags="0x204"/>
      <component glyphName="acute" x="132" y="285" flags="0x4"/>
    </TTGlyph>
    <TTGlyph name="Otilde" xMin="39" yMin="-11" xMax="467" yMax="891">
      <component glyphName="O" x="0" y="0" flags="0x204"/>
      <component glyphName="tilde" x="72" y="285" flags="0x4"/>
    </TTGlyph>
    <TTGlyph name="P" xMin="9" yMin="0" xMax="442" yMax="740">
      <contour>
        <pt x="442" y="538" on="1"/>
        <pt x="442" y="485" on="0"/>
        <pt x="407" y="382" on="0"/>
        <pt x="341" y="301" on="0"/>
        <pt x="245" y="251" on="0"/>
        <pt x="184" y="251" on="1"/>
        <pt x="179" y="251" on="0"/>
        <pt x="162" y="252" on="0"/>
        <pt x="157" y="253" on="1"/>
        <pt x="113" y="0" on="1"/>
        <pt x="9" y="0" on="1"/>
        <pt x="137" y="728" on="1"/>
        <pt x="156" y="733" on="0"/>
        <pt x="206" y="740" on="0"/>
        <pt x="232" y="740" on="1"/>
        <pt x="286" y="740" on="0"/>
        <pt x="365" y="708" on="0"/>
        <pt x="417" y="653" on="0"/>
        <pt x="442" y="579" on="0"/>
      </contour>
      <contour>
        <pt x="336" y="531" on="1"/>
        <pt x="336" y="585" on="0"/>
        <pt x="286" y="645" on="0"/>
        <pt x="244" y="645" on="1"/>
        <pt x="236" y="645" on="0"/>
        <pt x="226" y="643" on="1"/>
        <pt x="174" y="346" on="1"/>
        <pt x="178" y="345" on="0"/>
        <pt x="187" y="344" on="0"/>
        <pt x="194" y="344" on="1"/>
        <pt x="228" y="344" on="0"/>
        <pt x="281" y="375" on="0"/>
        <pt x="317" y="426" on="0"/>
        <pt x="336" y="494" on="0"/>
      </contour>
    </TTGlyph>
    <TTGlyph name="Q" xMin="39" yMin="-23" xMax="467" yMax="744">
      <contour>
        <pt x="467" y="495" on="1"/>
        <pt x="467" y="449" on="0"/>
        <pt x="454" y="341" on="0"/>
        <pt x="428" y="232" on="0"/>
        <pt x="387" y="129" on="0"/>
        <pt x="359" y="88" on="1"/>
        <pt x="396" y="15" on="1"/>
        <pt x="331" y="-23" on="1"/>
        <pt x="305" y="30" on="1"/>
        <pt x="282" y="11" on="0"/>
        <pt x="229" y="-11" on="0"/>
        <pt x="199" y="-11" on="1"/>
        <pt x="158" y="-11" on="0"/>
        <pt x="98" y="25" on="0"/>
        <pt x="58" y="90" on="0"/>
        <pt x="39" y="182" on="0"/>
        <pt x="39" y="238" on="1"/>
        <pt x="39" y="286" on="0"/>
        <pt x="52" y="398" on="0"/>
        <pt x="81" y="510" on="0"/>
        <pt x="124" y="615" on="0"/>
        <pt x="183" y="696" on="0"/>
        <pt x="260" y="744" on="0"/>
        <pt x="307" y="744" on="1"/>
        <pt x="348" y="744" on="0"/>
        <pt x="408" y="708" on="0"/>
        <pt x="448" y="643" on="0"/>
        <pt x="467" y="551" on="0"/>
      </contour>
      <contour>
        <pt x="363" y="510" on="1"/>
        <pt x="363" y="580" on="0"/>
        <pt x="329" y="653" on="0"/>
        <pt x="300" y="653" on="1"/>
        <pt x="275" y="653" on="0"/>
        <pt x="231" y="606" on="0"/>
        <pt x="197" y="530" on="0"/>
        <pt x="170" y="436" on="0"/>
        <pt x="152" y="340" on="0"/>
        <pt x="143" y="253" on="0"/>
        <pt x="143" y="223" on="1"/>
        <pt x="143" y="153" on="0"/>
        <pt x="177" y="81" on="0"/>
        <pt x="206" y="81" on="1"/>
        <pt x="222" y="81" on="0"/>
        <pt x="250" y="99" on="0"/>
        <pt x="263" y="115" on="1"/>
        <pt x="203" y="238" on="1"/>
        <pt x="266" y="280" on="1"/>
        <pt x="306" y="200" on="1"/>
        <pt x="320" y="237" on="0"/>
        <pt x="342" y="323" on="0"/>
        <pt x="356" y="407" on="0"/>
        <pt x="363" y="483" on="0"/>
      </contour>
    </TTGlyph>
    <TTGlyph name="R" xMin="9" yMin="0" xMax="444" yMax="740">
      <contour>
        <pt x="444" y="549" on="1"/>
        <pt x="444" y="474" on="0"/>
        <pt x="374" y="343" on="0"/>
        <pt x="311" y="308" on="1"/>
        <pt x="369" y="0" on="1"/>
        <pt x="260" y="0" on="1"/>
        <pt x="215" y="279" on="1"/>
        <pt x="210" y="278" on="0"/>
        <pt x="199" y="278" on="0"/>
        <pt x="194" y="278" on="1"/>
        <pt x="183" y="278" on="0"/>
        <pt x="169" y="278" on="0"/>
        <pt x="162" y="279" on="1"/>
        <pt x="113" y="0" on="1"/>
        <pt x="9" y="0" on="1"/>
        <pt x="137" y="728" on="1"/>
        <pt x="156" y="733" on="0"/>
        <pt x="208" y="740" on="0"/>
        <pt x="239" y="740" on="1"/>
        <pt x="292" y="740" on="0"/>
        <pt x="369" y="710" on="0"/>
        <pt x="420" y="657" on="0"/>
        <pt x="444" y="588" on="0"/>
      </contour>
      <contour>
        <pt x="339" y="540" on="1"/>
        <pt x="339" y="590" on="0"/>
        <pt x="290" y="645" on="0"/>
        <pt x="246" y="645" on="1"/>
        <pt x="232" y="645" on="0"/>
        <pt x="226" y="643" on="1"/>
        <pt x="177" y="366" on="1"/>
        <pt x="182" y="365" on="0"/>
        <pt x="192" y="364" on="0"/>
        <pt x="198" y="364" on="1"/>
        <pt x="231" y="364" on="0"/>
        <pt x="283" y="392" on="0"/>
        <pt x="319" y="440" on="0"/>
        <pt x="339" y="504" on="0"/>
      </contour>
    </TTGlyph>
    <TTGlyph name="Racute" xMin="9" yMin="0" xMax="449" yMax="940">
      <component glyphName="acute" x="110" y="280" flags="0x4"/>
      <component glyphName="R" x="0" y="0" flags="0x4"/>
    </TTGlyph>
    <TTGlyph name="Rcaron" xMin="9" yMin="0" xMax="453" yMax="918">
      <component glyphName="caron" x="55" y="280" flags="0x4"/>
      <component glyphName="R" x="0" y="0" flags="0x4"/>
    </TTGlyph>
    <TTGlyph name="Rcommaaccent" xMin="9" yMin="-271" xMax="444" yMax="740">
      <component glyphName="commaaccent" x="61" y="5" flags="0x4"/>
      <component glyphName="R" x="0" y="0" flags="0x4"/>
    </TTGlyph>
    <TTGlyph name="S" xMin="-17" yMin="-11" xMax="414" yMax="744">
      <contour>
        <pt x="372" y="599" on="1"/>
        <pt x="347" y="623" on="0"/>
        <pt x="296" y="650" on="0"/>
        <pt x="270" y="650" on="1"/>
        <pt x="249" y="650" on="0"/>
        <pt x="217" y="635" on="0"/>
        <pt x="197" y="609" on="0"/>
        <pt x="187" y="577" on="0"/>
        <pt x="187" y="561" on="1"/>
        <pt x="187" y="522" on="0"/>
        <pt x="231" y="444" on="0"/>
        <pt x="259" y="404" on="1"/>
        <pt x="275" y="381" on="0"/>
        <pt x="307" y="332" on="0"/>
        <pt x="331" y="280" on="0"/>
        <pt x="346" y="223" on="0"/>
        <pt x="346" y="192" on="1"/>
        <pt x="346" y="147" on="0"/>
        <pt x="318" y="72" on="0"/>
        <pt x="269" y="19" on="0"/>
        <pt x="200" y="-11" on="0"/>
        <pt x="160" y="-11" on="1"/>
        <pt x="104" y="-11" on="0"/>
        <pt x="17" y="34" on="0"/>
        <pt x="-17" y="63" on="1"/>
        <pt x="26" y="153" on="1"/>
        <pt x="58" y="123" on="0"/>
        <pt x="120" y="84" on="0"/>
        <pt x="158" y="84" on="1"/>
        <pt x="196" y="84" on="0"/>
        <pt x="244" y="142" on="0"/>
        <pt x="244" y="185" on="1"/>
        <pt x="244" y="207" on="0"/>
        <pt x="230" y="248" on="0"/>
        <pt x="208" y="289" on="0"/>
        <pt x="180" y="328" on="0"/>
        <pt x="167" y="348" on="1"/>
        <pt x="152" y="370" on="0"/>
        <pt x="123" y="417" on="0"/>
        <pt x="99" y="466" on="0"/>
        <pt x="85" y="521" on="0"/>
        <pt x="85" y="553" on="1"/>
        <pt x="85" y="596" on="0"/>
        <pt x="113" y="666" on="0"/>
        <pt x="162" y="716" on="0"/>
        <pt x="229" y="744" on="0"/>
        <pt x="269" y="744" on="1"/>
        <pt x="319" y="744" on="0"/>
        <pt x="391" y="707" on="0"/>
        <pt x="414" y="688" on="1"/>
      </contour>
    </TTGlyph>
    <TTGlyph name="Sacute" xMin="-17" yMin="-11" xMax="431" yMax="945">
      <component glyphName="acute" x="92" y="285" flags="0x4"/>
      <component glyphName="S" x="0" y="0" flags="0x4"/>
    </TTGlyph>
    <TTGlyph name="Scaron" xMin="-17" yMin="-11" xMax="435" yMax="923">
      <component glyphName="caron" x="37" y="285" flags="0x4"/>
      <component glyphName="S" x="0" y="0" flags="0x4"/>
    </TTGlyph>
    <TTGlyph name="Scedilla" xMin="-17" yMin="-189" xMax="414" yMax="744">
      <contour>
        <pt x="220" y="-107" on="1"/>
        <pt x="220" y="-142" on="0"/>
        <pt x="169" y="-189" on="0"/>
        <pt x="125" y="-189" on="1"/>
        <pt x="100" y="-189" on="0"/>
        <pt x="52" y="-174" on="0"/>
        <pt x="34" y="-161" on="1"/>
        <pt x="58" y="-113" on="1"/>
        <pt x="80" y="-128" on="0"/>
        <pt x="114" y="-138" on="0"/>
        <pt x="129" y="-138" on="1"/>
        <pt x="143" y="-138" on="0"/>
        <pt x="162" y="-123" on="0"/>
        <pt x="162" y="-112" on="1"/>
        <pt x="162" y="-100" on="0"/>
        <pt x="134" y="-80" on="0"/>
        <pt x="92" y="-79" on="1"/>
        <pt x="90" y="-72" on="1"/>
        <pt x="118" y="-7" on="1"/>
        <pt x="77" y="1" on="0"/>
        <pt x="10" y="39" on="0"/>
        <pt x="-17" y="63" on="1"/>
        <pt x="26" y="153" on="1"/>
        <pt x="58" y="123" on="0"/>
        <pt x="120" y="84" on="0"/>
        <pt x="158" y="84" on="1"/>
        <pt x="196" y="84" on="0"/>
        <pt x="244" y="142" on="0"/>
        <pt x="244" y="185" on="1"/>
        <pt x="244" y="207" on="0"/>
        <pt x="230" y="248" on="0"/>
        <pt x="208" y="289" on="0"/>
        <pt x="180" y="328" on="0"/>
        <pt x="167" y="348" on="1"/>
        <pt x="152" y="370" on="0"/>
        <pt x="123" y="417" on="0"/>
        <pt x="99" y="466" on="0"/>
        <pt x="85" y="521" on="0"/>
        <pt x="85" y="553" on="1"/>
        <pt x="85" y="596" on="0"/>
        <pt x="113" y="666" on="0"/>
        <pt x="162" y="716" on="0"/>
        <pt x="229" y="744" on="0"/>
        <pt x="269" y="744" on="1"/>
        <pt x="319" y="744" on="0"/>
        <pt x="391" y="707" on="0"/>
        <pt x="414" y="688" on="1"/>
        <pt x="372" y="599" on="1"/>
        <pt x="347" y="623" on="0"/>
        <pt x="296" y="650" on="0"/>
        <pt x="270" y="650" on="1"/>
        <pt x="249" y="650" on="0"/>
        <pt x="217" y="635" on="0"/>
        <pt x="197" y="609" on="0"/>
        <pt x="187" y="577" on="0"/>
        <pt x="187" y="561" on="1"/>
        <pt x="187" y="522" on="0"/>
        <pt x="231" y="444" on="0"/>
        <pt x="259" y="404" on="1"/>
        <pt x="275" y="381" on="0"/>
        <pt x="307" y="332" on="0"/>
        <pt x="331" y="280" on="0"/>
        <pt x="346" y="223" on="0"/>
        <pt x="346" y="192" on="1"/>
        <pt x="346" y="147" on="0"/>
        <pt x="318" y="72" on="0"/>
        <pt x="269" y="19" on="0"/>
        <pt x="200" y="-11" on="0"/>
        <pt x="160" y="-11" on="1"/>
        <pt x="158" y="-11" on="1"/>
        <pt x="146" y="-37" on="1"/>
        <pt x="188" y="-45" on="0"/>
        <pt x="220" y="-84" on="0"/>
      </contour>
    </TTGlyph>
    <TTGlyph name="Scommaaccent" xMin="-17" yMin="-276" xMax="414" yMax="744">
      <component glyphName="commaaccent" x="41" y="0" flags="0x4"/>
      <component glyphName="S" x="0" y="0" flags="0x4"/>
    </TTGlyph>
    <TTGlyph name="T" xMin="86" yMin="0" xMax="430" yMax="733">
      <contour>
        <pt x="414" y="636" on="1"/>
        <pt x="303" y="636" on="1"/>
        <pt x="190" y="0" on="1"/>
        <pt x="86" y="0" on="1"/>
        <pt x="199" y="636" on="1"/>
        <pt x="88" y="636" on="1"/>
        <pt x="104" y="733" on="1"/>
        <pt x="430" y="733" on="1"/>
      </contour>
    </TTGlyph>
    <TTGlyph name="Tcaron" xMin="86" yMin="0" xMax="430" yMax="918">
      <component glyphName="caron" x="31" y="280" flags="0x4"/>
      <component glyphName="T" x="0" y="0" flags="0x4"/>
    </TTGlyph>
    <TTGlyph name="Tcommaaccent" xMin="41" yMin="-276" xMax="430" yMax="733">
      <component glyphName="commaaccent" x="36" y="0" flags="0x4"/>
      <component glyphName="T" x="0" y="0" flags="0x4"/>
    </TTGlyph>
    <TTGlyph name="Thorn" xMin="9" yMin="0" xMax="422" yMax="733">
      <contour>
        <pt x="139" y="733" on="1"/>
        <pt x="243" y="733" on="1"/>
        <pt x="224" y="629" on="1"/>
        <pt x="273" y="627" on="0"/>
        <pt x="347" y="595" on="0"/>
        <pt x="397" y="541" on="0"/>
        <pt x="422" y="469" on="0"/>
        <pt x="422" y="427" on="1"/>
        <pt x="422" y="373" on="0"/>
        <pt x="388" y="270" on="0"/>
        <pt x="322" y="189" on="0"/>
        <pt x="226" y="140" on="0"/>
        <pt x="165" y="140" on="1"/>
        <pt x="160" y="140" on="0"/>
        <pt x="143" y="140" on="0"/>
        <pt x="138" y="141" on="1"/>
        <pt x="113" y="0" on="1"/>
        <pt x="9" y="0" on="1"/>
      </contour>
      <contour>
        <pt x="316" y="420" on="1"/>
        <pt x="316" y="474" on="0"/>
        <pt x="267" y="534" on="0"/>
        <pt x="224" y="534" on="1"/>
        <pt x="215" y="534" on="0"/>
        <pt x="207" y="532" on="1"/>
        <pt x="154" y="234" on="1"/>
        <pt x="164" y="232" on="0"/>
        <pt x="175" y="232" on="1"/>
        <pt x="209" y="232" on="0"/>
        <pt x="261" y="263" on="0"/>
        <pt x="297" y="315" on="0"/>
        <pt x="316" y="383" on="0"/>
      </contour>
    </TTGlyph>
    <TTGlyph name="U" xMin="36" yMin="-11" xMax="490" yMax="733">
      <contour>
        <pt x="397" y="201" on="1"/>
        <pt x="380" y="92" on="0"/>
        <pt x="277" y="-11" on="0"/>
        <pt x="196" y="-11" on="1"/>
        <pt x="162" y="-11" on="0"/>
        <pt x="103" y="7" on="0"/>
        <pt x="60" y="45" on="0"/>
        <pt x="36" y="101" on="0"/>
        <pt x="36" y="139" on="1"/>
        <pt x="36" y="151" on="0"/>
        <pt x="39" y="183" on="0"/>
        <pt x="41" y="197" on="1"/>
        <pt x="135" y="733" on="1"/>
        <pt x="239" y="733" on="1"/>
        <pt x="144" y="194" on="1"/>
        <pt x="142" y="185" on="0"/>
        <pt x="140" y="160" on="0"/>
        <pt x="140" y="149" on="1"/>
        <pt x="140" y="118" on="0"/>
        <pt x="173" y="83" on="0"/>
        <pt x="205" y="83" on="1"/>
        <pt x="272" y="83" on="0"/>
        <pt x="291" y="191" on="1"/>
        <pt x="386" y="733" on="1"/>
        <pt x="490" y="733" on="1"/>
      </contour>
    </TTGlyph>
    <TTGlyph name="Uacute" xMin="36" yMin="-11" xMax="490" yMax="940">
      <component glyphName="acute" x="128" y="280" flags="0x4"/>
      <component glyphName="U" x="0" y="0" flags="0x4"/>
    </TTGlyph>
    <TTGlyph name="Ubreve" xMin="36" yMin="-11" xMax="490" yMax="900">
      <component glyphName="U" x="0" y="0" flags="0x204"/>
      <component glyphName="breve" x="73" y="280" flags="0x4"/>
    </TTGlyph>
    <TTGlyph name="Ucircumflex" xMin="36" yMin="-11" xMax="490" yMax="923">
      <component glyphName="circumflex" x="66" y="280" flags="0x4"/>
      <component glyphName="U" x="0" y="0" flags="0x4"/>
    </TTGlyph>
    <TTGlyph name="Udieresis" xMin="36" yMin="-11" xMax="490" yMax="888">
      <component glyphName="dieresis" x="72" y="280" flags="0x4"/>
      <component glyphName="U" x="0" y="0" flags="0x4"/>
    </TTGlyph>
    <TTGlyph name="Ugrave" xMin="36" yMin="-11" xMax="490" yMax="946">
      <component glyphName="U" x="0" y="0" flags="0x204"/>
      <component glyphName="grave" x="14" y="280" flags="0x4"/>
    </TTGlyph>
    <TTGlyph name="Uhungarumlaut" xMin="36" yMin="-11" xMax="521" yMax="971">
      <component glyphName="U" x="0" y="0" flags="0x204"/>
      <component glyphName="hungarumlaut" x="103" y="280" flags="0x4"/>
    </TTGlyph>
    <TTGlyph name="Umacron" xMin="36" yMin="-11" xMax="490" yMax="855">
      <component glyphName="U" x="0" y="0" flags="0x204"/>
      <component glyphName="macron" x="72" y="280" flags="0x4"/>
    </TTGlyph>
    <TTGlyph name="Uogonek" xMin="36" yMin="-193" xMax="490" yMax="733">
      <contour>
        <pt x="397" y="201" on="1"/>
        <pt x="381" y="98" on="0"/>
        <pt x="287" y="-5" on="0"/>
        <pt x="214" y="-10" on="1"/>
        <pt x="193" y="-33" on="0"/>
        <pt x="161" y="-82" on="0"/>
        <pt x="161" y="-108" on="1"/>
        <pt x="161" y="-135" on="0"/>
        <pt x="187" y="-135" on="1"/>
        <pt x="195" y="-135" on="0"/>
        <pt x="215" y="-128" on="0"/>
        <pt x="222" y="-123" on="1"/>
        <pt x="234" y="-164" on="1"/>
        <pt x="218" y="-177" on="0"/>
        <pt x="180" y="-193" on="0"/>
        <pt x="155" y="-193" on="1"/>
        <pt x="125" y="-193" on="0"/>
        <pt x="92" y="-159" on="0"/>
        <pt x="92" y="-132" on="1"/>
        <pt x="92" y="-97" on="0"/>
        <pt x="129" y="-36" on="0"/>
        <pt x="158" y="-7" on="1"/>
        <pt x="104" y="1" on="0"/>
        <pt x="36" y="73" on="0"/>
        <pt x="36" y="139" on="1"/>
        <pt x="36" y="151" on="0"/>
        <pt x="39" y="183" on="0"/>
        <pt x="41" y="197" on="1"/>
        <pt x="135" y="733" on="1"/>
        <pt x="239" y="733" on="1"/>
        <pt x="144" y="194" on="1"/>
        <pt x="142" y="185" on="0"/>
        <pt x="140" y="160" on="0"/>
        <pt x="140" y="149" on="1"/>
        <pt x="140" y="118" on="0"/>
        <pt x="173" y="83" on="0"/>
        <pt x="205" y="83" on="1"/>
        <pt x="272" y="83" on="0"/>
        <pt x="291" y="191" on="1"/>
        <pt x="386" y="733" on="1"/>
        <pt x="490" y="733" on="1"/>
      </contour>
    </TTGlyph>
    <TTGlyph name="Uring" xMin="36" yMin="-11" xMax="490" yMax="972">
      <component glyphName="ring" x="69" y="280" flags="0x4"/>
      <component glyphName="U" x="0" y="0" flags="0x4"/>
    </TTGlyph>
    <TTGlyph name="V" xMin="99" yMin="-7" xMax="494" yMax="734">
      <contour>
        <pt x="197" y="-7" on="1"/>
        <pt x="118" y="-7" on="1"/>
        <pt x="99" y="734" on="1"/>
        <pt x="202" y="734" on="1"/>
        <pt x="203" y="233" on="1"/>
        <pt x="386" y="734" on="1"/>
        <pt x="494" y="734" on="1"/>
      </contour>
    </TTGlyph>
    <TTGlyph name="W" xMin="73" yMin="-2" xMax="662" yMax="733">
      <contour>
        <pt x="411" y="-2" on="1"/>
        <pt x="349" y="-2" on="1"/>
        <pt x="330" y="467" on="1"/>
        <pt x="136" y="-2" on="1"/>
        <pt x="73" y="-2" on="1"/>
        <pt x="101" y="733" on="1"/>
        <pt x="205" y="733" on="1"/>
        <pt x="171" y="273" on="1"/>
        <pt x="350" y="733" on="1"/>
        <pt x="407" y="733" on="1"/>
        <pt x="417" y="273" on="1"/>
        <pt x="555" y="733" on="1"/>
        <pt x="662" y="733" on="1"/>
      </contour>
    </TTGlyph>
    <TTGlyph name="Wacute" xMin="73" yMin="-2" xMax="662" yMax="940">
      <component glyphName="acute" x="194" y="280" flags="0x4"/>
      <component glyphName="W" x="0" y="0" flags="0x4"/>
    </TTGlyph>
    <TTGlyph name="Wcircumflex" xMin="73" yMin="-2" xMax="662" yMax="923">
      <component glyphName="circumflex" x="133" y="280" flags="0x4"/>
      <component glyphName="W" x="0" y="0" flags="0x4"/>
    </TTGlyph>
    <TTGlyph name="Wdieresis" xMin="73" yMin="-2" xMax="662" yMax="888">
      <component glyphName="dieresis" x="139" y="280" flags="0x4"/>
      <component glyphName="W" x="0" y="0" flags="0x4"/>
    </TTGlyph>
    <TTGlyph name="Wgrave" xMin="73" yMin="-2" xMax="662" yMax="946">
      <component glyphName="W" x="0" y="0" flags="0x204"/>
      <component glyphName="grave" x="80" y="280" flags="0x4"/>
    </TTGlyph>
    <TTGlyph name="X" xMin="-42" yMin="0" xMax="474" yMax="733">
      <contour>
        <pt x="279" y="366" on="1"/>
        <pt x="351" y="0" on="1"/>
        <pt x="247" y="0" on="1"/>
        <pt x="204" y="275" on="1"/>
        <pt x="65" y="0" on="1"/>
        <pt x="-42" y="0" on="1"/>
        <pt x="164" y="375" on="1"/>
        <pt x="94" y="733" on="1"/>
        <pt x="196" y="733" on="1"/>
        <pt x="239" y="470" on="1"/>
        <pt x="368" y="733" on="1"/>
        <pt x="474" y="733" on="1"/>
      </contour>
    </TTGlyph>
    <TTGlyph name="Y" xMin="86" yMin="0" xMax="482" yMax="733">
      <contour>
        <pt x="254" y="271" on="1"/>
        <pt x="206" y="0" on="1"/>
        <pt x="102" y="0" on="1"/>
        <pt x="150" y="272" on="1"/>
        <pt x="86" y="733" on="1"/>
        <pt x="187" y="733" on="1"/>
        <pt x="225" y="403" on="1"/>
        <pt x="372" y="733" on="1"/>
        <pt x="482" y="733" on="1"/>
      </contour>
    </TTGlyph>
    <TTGlyph name="Yacute" xMin="86" yMin="0" xMax="482" yMax="940">
      <component glyphName="Y" x="0" y="0" flags="0x204"/>
      <component glyphName="acute" x="101" y="280" flags="0x4"/>
    </TTGlyph>
    <TTGlyph name="Ycircumflex" xMin="86" yMin="0" xMax="482" yMax="923">
      <component glyphName="Y" x="0" y="0" flags="0x204"/>
      <component glyphName="circumflex" x="39" y="280" flags="0x4"/>
    </TTGlyph>
    <TTGlyph name="Ydieresis" xMin="86" yMin="0" xMax="482" yMax="888">
      <component glyphName="Y" x="0" y="0" flags="0x204"/>
      <component glyphName="dieresis" x="45" y="280" flags="0x4"/>
    </TTGlyph>
    <TTGlyph name="Ygrave" xMin="86" yMin="0" xMax="482" yMax="946">
      <component glyphName="Y" x="0" y="0" flags="0x204"/>
      <component glyphName="grave" x="-12" y="280" flags="0x4"/>
    </TTGlyph>
    <TTGlyph name="Z" xMin="-29" yMin="0" xMax="444" yMax="733">
      <contour>
        <pt x="121" y="98" on="1"/>
        <pt x="324" y="98" on="1"/>
        <pt x="307" y="0" on="1"/>
        <pt x="-25" y="0" on="1"/>
        <pt x="-29" y="16" on="1"/>
        <pt x="297" y="636" on="1"/>
        <pt x="99" y="636" on="1"/>
        <pt x="117" y="733" on="1"/>
        <pt x="439" y="733" on="1"/>
        <pt x="444" y="717" on="1"/>
      </contour>
    </TTGlyph>
    <TTGlyph name="Zacute" xMin="-29" yMin="0" xMax="444" yMax="940">
      <component glyphName="acute" x="89" y="280" flags="0x4"/>
      <component glyphName="Z" x="0" y="0" flags="0x4"/>
    </TTGlyph>
    <TTGlyph name="Zcaron" xMin="-29" yMin="0" xMax="444" yMax="918">
      <component glyphName="caron" x="34" y="280" flags="0x4"/>
      <component glyphName="Z" x="0" y="0" flags="0x4"/>
    </TTGlyph>
    <TTGlyph name="Zdotaccent" xMin="-29" yMin="0" xMax="444" yMax="888">
      <component glyphName="Z" x="0" y="0" flags="0x204"/>
      <component glyphName="dotaccent" x="33" y="280" flags="0x4"/>
    </TTGlyph>
    <TTGlyph name="a" xMin="-1" yMin="-8" xMax="322" yMax="471">
      <contour>
        <pt x="322" y="364" on="1"/>
        <pt x="322" y="355" on="0"/>
        <pt x="320" y="331" on="0"/>
        <pt x="318" y="320" on="1"/>
        <pt x="262" y="0" on="1"/>
        <pt x="172" y="0" on="1"/>
        <pt x="180" y="48" on="1"/>
        <pt x="166" y="28" on="0"/>
        <pt x="121" y="-8" on="0"/>
        <pt x="89" y="-8" on="1"/>
        <pt x="51" y="-8" on="0"/>
        <pt x="-1" y="53" on="0"/>
        <pt x="-1" y="111" on="1"/>
        <pt x="-1" y="145" on="0"/>
        <pt x="18" y="210" on="0"/>
        <pt x="54" y="260" on="0"/>
        <pt x="103" y="290" on="0"/>
        <pt x="133" y="290" on="1"/>
        <pt x="159" y="290" on="0"/>
        <pt x="198" y="268" on="0"/>
        <pt x="213" y="253" on="1"/>
        <pt x="222" y="303" on="1"/>
        <pt x="223" y="309" on="0"/>
        <pt x="225" y="329" on="0"/>
        <pt x="225" y="335" on="1"/>
        <pt x="225" y="360" on="0"/>
        <pt x="193" y="384" on="0"/>
        <pt x="165" y="384" on="1"/>
        <pt x="145" y="384" on="0"/>
        <pt x="104" y="373" on="0"/>
        <pt x="90" y="366" on="1"/>
        <pt x="87" y="446" on="1"/>
        <pt x="105" y="454" on="0"/>
        <pt x="168" y="471" on="0"/>
        <pt x="197" y="471" on="1"/>
        <pt x="222" y="471" on="0"/>
        <pt x="268" y="459" on="0"/>
        <pt x="302" y="433" on="0"/>
        <pt x="322" y="392" on="0"/>
      </contour>
      <contour>
        <pt x="204" y="199" on="1"/>
        <pt x="196" y="210" on="0"/>
        <pt x="172" y="227" on="0"/>
        <pt x="156" y="227" on="1"/>
        <pt x="128" y="227" on="0"/>
        <pt x="93" y="166" on="0"/>
        <pt x="93" y="124" on="1"/>
        <pt x="93" y="98" on="0"/>
        <pt x="115" y="67" on="0"/>
        <pt x="135" y="67" on="1"/>
        <pt x="149" y="67" on="0"/>
        <pt x="175" y="83" on="0"/>
        <pt x="185" y="94" on="1"/>
      </contour>
    </TTGlyph>
    <TTGlyph name="aacute" xMin="-1" yMin="-8" xMax="372" yMax="662">
      <component glyphName="a" x="0" y="0" flags="0x204"/>
      <component glyphName="acute" x="33" y="2" flags="0x4"/>
    </TTGlyph>
    <TTGlyph name="abreve" xMin="-1" yMin="-8" xMax="360" yMax="622">
      <component glyphName="a" x="0" y="0" flags="0x204"/>
      <component glyphName="breve" x="-20" y="2" flags="0x4"/>
    </TTGlyph>
    <TTGlyph name="acircumflex" xMin="-1" yMin="-8" xMax="350" yMax="645">
      <component glyphName="a" x="0" y="0" flags="0x204"/>
      <component glyphName="circumflex" x="-27" y="2" flags="0x4"/>
    </TTGlyph>
    <TTGlyph name="acute" xMin="152" yMin="502" xMax="339" yMax="660">
      <contour>
        <pt x="180" y="502" on="1"/>
        <pt x="152" y="543" on="1"/>
        <pt x="293" y="660" on="1"/>
        <pt x="339" y="587" on="1"/>
      </contour>
    </TTGlyph>
    <TTGlyph name="adieresis" xMin="-1" yMin="-8" xMax="356" yMax="610">
      <component glyphName="a" x="0" y="0" flags="0x204"/>
      <component glyphName="dieresis" x="-21" y="2" flags="0x4"/>
    </TTGlyph>
    <TTGlyph name="ae" xMin="1" yMin="-11" xMax="512" yMax="471">
      <contour>
        <pt x="107" y="-9" on="1"/>
        <pt x="62" y="-9" on="0"/>
        <pt x="1" y="55" on="0"/>
        <pt x="1" y="114" on="1"/>
        <pt x="1" y="148" on="0"/>
        <pt x="20" y="211" on="0"/>
        <pt x="55" y="260" on="0"/>
        <pt x="104" y="290" on="0"/>
        <pt x="134" y="290" on="1"/>
        <pt x="160" y="290" on="0"/>
        <pt x="199" y="268" on="0"/>
        <pt x="214" y="253" on="1"/>
        <pt x="222" y="303" on="1"/>
        <pt x="224" y="308" on="0"/>
        <pt x="226" y="329" on="0"/>
        <pt x="226" y="335" on="1"/>
        <pt x="226" y="360" on="0"/>
        <pt x="193" y="384" on="0"/>
        <pt x="166" y="384" on="1"/>
        <pt x="146" y="384" on="0"/>
        <pt x="105" y="373" on="0"/>
        <pt x="91" y="366" on="1"/>
        <pt x="88" y="446" on="1"/>
        <pt x="97" y="450" on="0"/>
        <pt x="122" y="458" on="0"/>
        <pt x="152" y="466" on="0"/>
        <pt x="184" y="471" on="0"/>
        <pt x="198" y="471" on="1"/>
        <pt x="233" y="471" on="0"/>
        <pt x="280" y="444" on="0"/>
        <pt x="291" y="412" on="1"/>
        <pt x="333" y="471" on="0"/>
        <pt x="397" y="471" on="1"/>
        <pt x="456" y="471" on="0"/>
        <pt x="512" y="390" on="0"/>
        <pt x="512" y="321" on="1"/>
        <pt x="512" y="295" on="0"/>
        <pt x="500" y="230" on="0"/>
        <pt x="490" y="198" on="1"/>
        <pt x="291" y="198" on="1"/>
        <pt x="290" y="190" on="0"/>
        <pt x="289" y="172" on="0"/>
        <pt x="289" y="162" on="1"/>
        <pt x="289" y="120" on="0"/>
        <pt x="327" y="72" on="0"/>
        <pt x="363" y="72" on="1"/>
        <pt x="383" y="72" on="0"/>
        <pt x="423" y="86" on="0"/>
        <pt x="436" y="93" on="1"/>
        <pt x="444" y="17" on="1"/>
        <pt x="396" y="-11" on="0"/>
        <pt x="347" y="-11" on="1"/>
        <pt x="304" y="-11" on="0"/>
        <pt x="241" y="35" on="0"/>
        <pt x="230" y="80" on="1"/>
        <pt x="223" y="66" on="0"/>
        <pt x="202" y="35" on="0"/>
        <pt x="172" y="9" on="0"/>
        <pt x="133" y="-9" on="0"/>
      </contour>
      <contour>
        <pt x="131" y="67" on="1"/>
        <pt x="152" y="67" on="0"/>
        <pt x="196" y="136" on="0"/>
        <pt x="204" y="199" on="1"/>
        <pt x="196" y="211" on="0"/>
        <pt x="172" y="227" on="0"/>
        <pt x="156" y="227" on="1"/>
        <pt x="129" y="227" on="0"/>
        <pt x="92" y="166" on="0"/>
        <pt x="92" y="124" on="1"/>
        <pt x="92" y="98" on="0"/>
        <pt x="112" y="67" on="0"/>
      </contour>
      <contour>
        <pt x="419" y="261" on="1"/>
        <pt x="423" y="275" on="0"/>
        <pt x="427" y="315" on="0"/>
        <pt x="427" y="331" on="1"/>
        <pt x="427" y="354" on="0"/>
        <pt x="412" y="390" on="0"/>
        <pt x="391" y="390" on="1"/>
        <pt x="376" y="390" on="0"/>
        <pt x="348" y="369" on="0"/>
        <pt x="326" y="333" on="0"/>
        <pt x="308" y="286" on="0"/>
        <pt x="302" y="261" on="1"/>
      </contour>
    </TTGlyph>
    <TTGlyph name="aeacute" xMin="1" yMin="-11" xMax="512" yMax="660">
      <component glyphName="acute" x="116" y="0" flags="0x4"/>
      <component glyphName="ae" x="0" y="0" flags="0x4"/>
    </TTGlyph>
    <TTGlyph name="agrave" xMin="-1" yMin="-8" xMax="322" yMax="668">
      <component glyphName="a" x="0" y="0" flags="0x204"/>
      <component glyphName="grave" x="-80" y="2" flags="0x4"/>
    </TTGlyph>
    <TTGlyph name="amacron" xMin="-1" yMin="-8" xMax="351" yMax="577">
      <component glyphName="a" x="0" y="0" flags="0x204"/>
      <component glyphName="macron" x="-21" y="2" flags="0x4"/>
    </TTGlyph>
    <TTGlyph name="ampersand" xMin="7" yMin="-15" xMax="457" yMax="735">
      <contour>
        <pt x="457" y="314" on="1"/>
        <pt x="432" y="260" on="0"/>
        <pt x="383" y="168" on="0"/>
        <pt x="358" y="130" on="1"/>
        <pt x="375" y="99" on="0"/>
        <pt x="403" y="51" on="0"/>
        <pt x="414" y="35" on="1"/>
        <pt x="329" y="-15" on="1"/>
        <pt x="327" y="-12" on="0"/>
        <pt x="316" y="7" on="0"/>
        <pt x="304" y="28" on="0"/>
        <pt x="293" y="47" on="0"/>
        <pt x="291" y="51" on="1"/>
        <pt x="260" y="21" on="0"/>
        <pt x="193" y="-11" on="0"/>
        <pt x="156" y="-11" on="1"/>
        <pt x="121" y="-11" on="0"/>
        <pt x="66" y="14" on="0"/>
        <pt x="28" y="57" on="0"/>
        <pt x="7" y="117" on="0"/>
        <pt x="7" y="152" on="1"/>
        <pt x="7" y="215" on="0"/>
        <pt x="71" y="339" on="0"/>
        <pt x="151" y="389" on="1"/>
        <pt x="136" y="453" on="0"/>
        <pt x="136" y="516" on="1"/>
        <pt x="136" y="556" on="0"/>
        <pt x="156" y="635" on="0"/>
        <pt x="195" y="697" on="0"/>
        <pt x="255" y="735" on="0"/>
        <pt x="295" y="735" on="1"/>
        <pt x="325" y="735" on="0"/>
        <pt x="372" y="712" on="0"/>
        <pt x="404" y="673" on="0"/>
        <pt x="420" y="624" on="0"/>
        <pt x="420" y="597" on="1"/>
        <pt x="420" y="555" on="0"/>
        <pt x="395" y="482" on="0"/>
        <pt x="351" y="420" on="0"/>
        <pt x="292" y="370" on="0"/>
        <pt x="259" y="352" on="1"/>
        <pt x="270" y="315" on="0"/>
        <pt x="299" y="245" on="0"/>
        <pt x="314" y="212" on="1"/>
        <pt x="335" y="247" on="0"/>
        <pt x="371" y="323" on="0"/>
        <pt x="385" y="356" on="1"/>
      </contour>
      <contour>
        <pt x="252" y="126" on="1"/>
        <pt x="230" y="168" on="0"/>
        <pt x="191" y="259" on="0"/>
        <pt x="176" y="306" on="1"/>
        <pt x="147" y="283" on="0"/>
        <pt x="105" y="215" on="0"/>
        <pt x="105" y="166" on="1"/>
        <pt x="105" y="133" on="0"/>
        <pt x="139" y="80" on="0"/>
        <pt x="174" y="80" on="1"/>
        <pt x="211" y="80" on="0"/>
      </contour>
      <contour>
        <pt x="331" y="591" on="1"/>
        <pt x="331" y="618" on="0"/>
        <pt x="310" y="650" on="0"/>
        <pt x="291" y="650" on="1"/>
        <pt x="274" y="650" on="0"/>
        <pt x="251" y="626" on="0"/>
        <pt x="236" y="587" on="0"/>
        <pt x="229" y="537" on="0"/>
        <pt x="229" y="512" on="1"/>
        <pt x="229" y="491" on="0"/>
        <pt x="234" y="449" on="0"/>
        <pt x="239" y="427" on="1"/>
        <pt x="283" y="459" on="0"/>
        <pt x="331" y="541" on="0"/>
      </contour>
    </TTGlyph>
    <TTGlyph name="ampersand.cap" xMin="7" yMin="-15" xMax="457" yMax="735">
      <contour>
        <pt x="457" y="314" on="1"/>
        <pt x="432" y="260" on="0"/>
        <pt x="383" y="168" on="0"/>
        <pt x="358" y="130" on="1"/>
        <pt x="375" y="99" on="0"/>
        <pt x="403" y="51" on="0"/>
        <pt x="414" y="35" on="1"/>
        <pt x="329" y="-15" on="1"/>
        <pt x="327" y="-12" on="0"/>
        <pt x="316" y="7" on="0"/>
        <pt x="304" y="28" on="0"/>
        <pt x="293" y="47" on="0"/>
        <pt x="291" y="51" on="1"/>
        <pt x="260" y="21" on="0"/>
        <pt x="193" y="-11" on="0"/>
        <pt x="156" y="-11" on="1"/>
        <pt x="121" y="-11" on="0"/>
        <pt x="66" y="14" on="0"/>
        <pt x="28" y="57" on="0"/>
        <pt x="7" y="117" on="0"/>
        <pt x="7" y="152" on="1"/>
        <pt x="7" y="215" on="0"/>
        <pt x="71" y="339" on="0"/>
        <pt x="151" y="389" on="1"/>
        <pt x="136" y="453" on="0"/>
        <pt x="136" y="516" on="1"/>
        <pt x="136" y="556" on="0"/>
        <pt x="156" y="635" on="0"/>
        <pt x="195" y="697" on="0"/>
        <pt x="255" y="735" on="0"/>
        <pt x="295" y="735" on="1"/>
        <pt x="325" y="735" on="0"/>
        <pt x="372" y="712" on="0"/>
        <pt x="404" y="673" on="0"/>
        <pt x="420" y="624" on="0"/>
        <pt x="420" y="597" on="1"/>
        <pt x="420" y="555" on="0"/>
        <pt x="395" y="482" on="0"/>
        <pt x="351" y="420" on="0"/>
        <pt x="292" y="370" on="0"/>
        <pt x="259" y="352" on="1"/>
        <pt x="270" y="315" on="0"/>
        <pt x="299" y="245" on="0"/>
        <pt x="314" y="212" on="1"/>
        <pt x="335" y="247" on="0"/>
        <pt x="371" y="323" on="0"/>
        <pt x="385" y="356" on="1"/>
      </contour>
      <contour>
        <pt x="252" y="126" on="1"/>
        <pt x="230" y="168" on="0"/>
        <pt x="191" y="259" on="0"/>
        <pt x="176" y="306" on="1"/>
        <pt x="147" y="283" on="0"/>
        <pt x="105" y="215" on="0"/>
        <pt x="105" y="166" on="1"/>
        <pt x="105" y="133" on="0"/>
        <pt x="139" y="80" on="0"/>
        <pt x="174" y="80" on="1"/>
        <pt x="211" y="80" on="0"/>
      </contour>
      <contour>
        <pt x="239" y="427" on="1"/>
        <pt x="283" y="459" on="0"/>
        <pt x="331" y="541" on="0"/>
        <pt x="331" y="591" on="1"/>
        <pt x="331" y="618" on="0"/>
        <pt x="310" y="650" on="0"/>
        <pt x="291" y="650" on="1"/>
        <pt x="274" y="650" on="0"/>
        <pt x="251" y="626" on="0"/>
        <pt x="236" y="587" on="0"/>
        <pt x="229" y="537" on="0"/>
        <pt x="229" y="512" on="1"/>
        <pt x="229" y="491" on="0"/>
        <pt x="234" y="449" on="0"/>
      </contour>
    </TTGlyph>
    <TTGlyph name="aogonek" xMin="-1" yMin="-193" xMax="322" yMax="471">
      <contour>
        <pt x="239" y="-164" on="1"/>
        <pt x="224" y="-177" on="0"/>
        <pt x="185" y="-193" on="0"/>
        <pt x="161" y="-193" on="1"/>
        <pt x="131" y="-193" on="0"/>
        <pt x="98" y="-159" on="0"/>
        <pt x="98" y="-132" on="1"/>
        <pt x="98" y="-94" on="0"/>
        <pt x="140" y="-30" on="0"/>
        <pt x="172" y="1" on="1"/>
        <pt x="180" y="48" on="1"/>
        <pt x="166" y="28" on="0"/>
        <pt x="121" y="-8" on="0"/>
        <pt x="89" y="-8" on="1"/>
        <pt x="51" y="-8" on="0"/>
        <pt x="-1" y="53" on="0"/>
        <pt x="-1" y="111" on="1"/>
        <pt x="-1" y="145" on="0"/>
        <pt x="18" y="210" on="0"/>
        <pt x="54" y="260" on="0"/>
        <pt x="103" y="290" on="0"/>
        <pt x="133" y="290" on="1"/>
        <pt x="159" y="290" on="0"/>
        <pt x="198" y="268" on="0"/>
        <pt x="213" y="253" on="1"/>
        <pt x="222" y="303" on="1"/>
        <pt x="223" y="309" on="0"/>
        <pt x="225" y="329" on="0"/>
        <pt x="225" y="335" on="1"/>
        <pt x="225" y="360" on="0"/>
        <pt x="193" y="384" on="0"/>
        <pt x="165" y="384" on="1"/>
        <pt x="145" y="384" on="0"/>
        <pt x="104" y="373" on="0"/>
        <pt x="90" y="366" on="1"/>
        <pt x="87" y="446" on="1"/>
        <pt x="105" y="454" on="0"/>
        <pt x="168" y="471" on="0"/>
        <pt x="197" y="471" on="1"/>
        <pt x="222" y="471" on="0"/>
        <pt x="268" y="459" on="0"/>
        <pt x="302" y="433" on="0"/>
        <pt x="322" y="392" on="0"/>
        <pt x="322" y="364" on="1"/>
        <pt x="322" y="355" on="0"/>
        <pt x="320" y="331" on="0"/>
        <pt x="318" y="320" on="1"/>
        <pt x="262" y="0" on="1"/>
        <pt x="229" y="0" on="1"/>
        <pt x="206" y="-25" on="0"/>
        <pt x="167" y="-79" on="0"/>
        <pt x="167" y="-108" on="1"/>
        <pt x="167" y="-135" on="0"/>
        <pt x="192" y="-135" on="1"/>
        <pt x="201" y="-135" on="0"/>
        <pt x="220" y="-128" on="0"/>
        <pt x="228" y="-123" on="1"/>
      </contour>
      <contour>
        <pt x="204" y="199" on="1"/>
        <pt x="196" y="210" on="0"/>
        <pt x="172" y="227" on="0"/>
        <pt x="156" y="227" on="1"/>
        <pt x="128" y="227" on="0"/>
        <pt x="93" y="166" on="0"/>
        <pt x="93" y="124" on="1"/>
        <pt x="93" y="98" on="0"/>
        <pt x="115" y="67" on="0"/>
        <pt x="135" y="67" on="1"/>
        <pt x="149" y="67" on="0"/>
        <pt x="175" y="83" on="0"/>
        <pt x="185" y="94" on="1"/>
      </contour>
    </TTGlyph>
    <TTGlyph name="aring" xMin="-1" yMin="-8" xMax="342" yMax="694">
      <component glyphName="a" x="0" y="0" flags="0x204"/>
      <component glyphName="ring" x="-24" y="2" flags="0x4"/>
    </TTGlyph>
    <TTGlyph name="aringacute" xMin="-1" yMin="-8" xMax="412" yMax="881">
      <component glyphName="a" x="0" y="0" flags="0x204"/>
      <component glyphName="acute" x="73" y="221" flags="0x4"/>
      <component glyphName="ring" x="-24" y="0" flags="0x4"/>
    </TTGlyph>
    <TTGlyph name="arrowleft" xMin="24" yMin="50" xMax="406" yMax="486">
      <contour>
        <pt x="133" y="225" on="1"/>
        <pt x="199" y="96" on="1"/>
        <pt x="128" y="50" on="1"/>
        <pt x="24" y="261" on="1"/>
        <pt x="27" y="275" on="1"/>
        <pt x="205" y="486" on="1"/>
        <pt x="268" y="433" on="1"/>
        <pt x="160" y="311" on="1"/>
        <pt x="406" y="311" on="1"/>
        <pt x="390" y="225" on="1"/>
      </contour>
    </TTGlyph>
    <TTGlyph name="arrowleft.cap" xMin="43" yMin="153" xMax="425" yMax="589">
      <component glyphName="arrowleft" x="19" y="103" flags="0x204"/>
    </TTGlyph>
    <TTGlyph name="arrowright" xMin="31" yMin="50" xMax="412" yMax="486">
      <contour>
        <pt x="303" y="311" on="1"/>
        <pt x="238" y="440" on="1"/>
        <pt x="309" y="486" on="1"/>
        <pt x="412" y="275" on="1"/>
        <pt x="409" y="261" on="1"/>
        <pt x="232" y="50" on="1"/>
        <pt x="169" y="103" on="1"/>
        <pt x="277" y="225" on="1"/>
        <pt x="31" y="225" on="1"/>
        <pt x="46" y="311" on="1"/>
      </contour>
    </TTGlyph>
    <TTGlyph name="arrowright.cap" xMin="49" yMin="153" xMax="430" yMax="589">
      <component glyphName="arrowright" x="18" y="103" flags="0x204"/>
    </TTGlyph>
    <TTGlyph name="asciicircum" xMin="128" yMin="566" xMax="396" yMax="715">
      <contour>
        <pt x="314" y="566" on="1"/>
        <pt x="278" y="644" on="1"/>
        <pt x="213" y="566" on="1"/>
        <pt x="128" y="566" on="1"/>
        <pt x="263" y="715" on="1"/>
        <pt x="313" y="715" on="1"/>
        <pt x="396" y="566" on="1"/>
      </contour>
    </TTGlyph>
    <TTGlyph name="asciitilde" xMin="61" yMin="197" xMax="347" yMax="305">
      <contour>
        <pt x="347" y="243" on="1"/>
        <pt x="327" y="221" on="0"/>
        <pt x="275" y="197" on="0"/>
        <pt x="252" y="197" on="1"/>
        <pt x="236" y="197" on="0"/>
        <pt x="211" y="205" on="0"/>
        <pt x="197" y="213" on="1"/>
        <pt x="168" y="229" on="0"/>
        <pt x="148" y="229" on="1"/>
        <pt x="117" y="229" on="0"/>
        <pt x="88" y="197" on="1"/>
        <pt x="61" y="253" on="1"/>
        <pt x="109" y="304" on="0"/>
        <pt x="157" y="304" on="1"/>
        <pt x="172" y="304" on="0"/>
        <pt x="198" y="295" on="0"/>
        <pt x="211" y="288" on="1"/>
        <pt x="240" y="272" on="0"/>
        <pt x="261" y="272" on="1"/>
        <pt x="289" y="272" on="0"/>
        <pt x="321" y="305" on="1"/>
      </contour>
    </TTGlyph>
    <TTGlyph name="asterisk" xMin="79" yMin="527" xMax="288" yMax="733">
      <contour>
        <pt x="215" y="615" on="1"/>
        <pt x="252" y="554" on="1"/>
        <pt x="202" y="527" on="1"/>
        <pt x="176" y="593" on="1"/>
        <pt x="128" y="534" on="1"/>
        <pt x="89" y="567" on="1"/>
        <pt x="146" y="620" on="1"/>
        <pt x="79" y="644" on="1"/>
        <pt x="105" y="692" on="1"/>
        <pt x="165" y="659" on="1"/>
        <pt x="173" y="733" on="1"/>
        <pt x="228" y="730" on="1"/>
        <pt x="209" y="656" on="1"/>
        <pt x="280" y="678" on="1"/>
        <pt x="288" y="628" on="1"/>
      </contour>
    </TTGlyph>
    <TTGlyph name="at" xMin="51" yMin="-11" xMax="504" yMax="651">
      <contour>
        <pt x="504" y="422" on="1"/>
        <pt x="504" y="378" on="0"/>
        <pt x="487" y="285" on="0"/>
        <pt x="455" y="208" on="0"/>
        <pt x="406" y="158" on="0"/>
        <pt x="375" y="158" on="1"/>
        <pt x="351" y="158" on="0"/>
        <pt x="322" y="187" on="0"/>
        <pt x="316" y="210" on="1"/>
        <pt x="303" y="193" on="0"/>
        <pt x="263" y="160" on="0"/>
        <pt x="235" y="160" on="1"/>
        <pt x="204" y="160" on="0"/>
        <pt x="163" y="203" on="0"/>
        <pt x="163" y="242" on="1"/>
        <pt x="163" y="264" on="0"/>
        <pt x="176" y="304" on="0"/>
        <pt x="199" y="334" on="0"/>
        <pt x="232" y="351" on="0"/>
        <pt x="253" y="351" on="1"/>
        <pt x="273" y="351" on="0"/>
        <pt x="302" y="336" on="0"/>
        <pt x="313" y="325" on="1"/>
        <pt x="317" y="343" on="0"/>
        <pt x="319" y="360" on="0"/>
        <pt x="319" y="366" on="1"/>
        <pt x="319" y="384" on="0"/>
        <pt x="295" y="402" on="0"/>
        <pt x="275" y="402" on="1"/>
        <pt x="261" y="402" on="0"/>
        <pt x="233" y="394" on="0"/>
        <pt x="222" y="389" on="1"/>
        <pt x="220" y="447" on="1"/>
        <pt x="233" y="452" on="0"/>
        <pt x="279" y="465" on="0"/>
        <pt x="299" y="465" on="1"/>
        <pt x="334" y="465" on="0"/>
        <pt x="388" y="429" on="0"/>
        <pt x="388" y="388" on="1"/>
        <pt x="388" y="380" on="0"/>
        <pt x="385" y="360" on="0"/>
        <pt x="384" y="352" on="1"/>
        <pt x="371" y="278" on="1"/>
        <pt x="363" y="237" on="0"/>
        <pt x="374" y="206" on="0"/>
        <pt x="387" y="206" on="1"/>
        <pt x="403" y="206" on="0"/>
        <pt x="431" y="246" on="0"/>
        <pt x="451" y="308" on="0"/>
        <pt x="462" y="384" on="0"/>
        <pt x="462" y="420" on="1"/>
        <pt x="462" y="456" on="0"/>
        <pt x="448" y="524" on="0"/>
        <pt x="417" y="576" on="0"/>
        <pt x="365" y="608" on="0"/>
        <pt x="327" y="608" on="1"/>
        <pt x="279" y="608" on="0"/>
        <pt x="194" y="550" on="0"/>
        <pt x="130" y="450" on="0"/>
        <pt x="92" y="317" on="0"/>
        <pt x="92" y="242" on="1"/>
        <pt x="92" y="195" on="0"/>
        <pt x="112" y="118" on="0"/>
        <pt x="152" y="63" on="0"/>
        <pt x="210" y="32" on="0"/>
        <pt x="249" y="32" on="1"/>
        <pt x="274" y="32" on="0"/>
        <pt x="318" y="44" on="0"/>
        <pt x="334" y="52" on="1"/>
        <pt x="341" y="11" on="1"/>
        <pt x="327" y="3" on="0"/>
        <pt x="275" y="-11" on="0"/>
        <pt x="246" y="-11" on="1"/>
        <pt x="199" y="-11" on="0"/>
        <pt x="126" y="25" on="0"/>
        <pt x="76" y="91" on="0"/>
        <pt x="51" y="182" on="0"/>
        <pt x="51" y="237" on="1"/>
        <pt x="51" y="325" on="0"/>
        <pt x="96" y="477" on="0"/>
        <pt x="173" y="588" on="0"/>
        <pt x="275" y="651" on="0"/>
        <pt x="332" y="651" on="1"/>
        <pt x="375" y="651" on="0"/>
        <pt x="440" y="616" on="0"/>
        <pt x="483" y="554" on="0"/>
        <pt x="504" y="470" on="0"/>
      </contour>
      <contour>
        <pt x="306" y="284" on="1"/>
        <pt x="301" y="293" on="0"/>
        <pt x="282" y="306" on="0"/>
        <pt x="269" y="306" on="1"/>
        <pt x="251" y="306" on="0"/>
        <pt x="229" y="274" on="0"/>
        <pt x="229" y="251" on="1"/>
        <pt x="229" y="216" on="0"/>
        <pt x="257" y="216" on="1"/>
        <pt x="270" y="216" on="0"/>
        <pt x="291" y="231" on="0"/>
        <pt x="298" y="240" on="1"/>
      </contour>
    </TTGlyph>
    <TTGlyph name="at.cap" xMin="55" yMin="-11" xMax="519" yMax="744">
      <contour>
        <pt x="342" y="11" on="1"/>
        <pt x="326" y="2" on="0"/>
        <pt x="276" y="-11" on="0"/>
        <pt x="250" y="-11" on="1"/>
        <pt x="201" y="-11" on="0"/>
        <pt x="128" y="29" on="0"/>
        <pt x="79" y="99" on="0"/>
        <pt x="55" y="197" on="0"/>
        <pt x="55" y="255" on="1"/>
        <pt x="55" y="350" on="0"/>
        <pt x="102" y="526" on="0"/>
        <pt x="183" y="662" on="0"/>
        <pt x="290" y="744" on="0"/>
        <pt x="351" y="744" on="1"/>
        <pt x="396" y="744" on="0"/>
        <pt x="459" y="706" on="0"/>
        <pt x="500" y="642" on="0"/>
        <pt x="519" y="555" on="0"/>
        <pt x="519" y="506" on="1"/>
        <pt x="519" y="457" on="0"/>
        <pt x="500" y="344" on="0"/>
        <pt x="464" y="248" on="0"/>
        <pt x="411" y="185" on="0"/>
        <pt x="378" y="185" on="1"/>
        <pt x="355" y="185" on="0"/>
        <pt x="327" y="214" on="0"/>
        <pt x="321" y="237" on="1"/>
        <pt x="308" y="220" on="0"/>
        <pt x="267" y="187" on="0"/>
        <pt x="238" y="187" on="1"/>
        <pt x="208" y="187" on="0"/>
        <pt x="168" y="232" on="0"/>
        <pt x="168" y="274" on="1"/>
        <pt x="168" y="299" on="0"/>
        <pt x="182" y="346" on="0"/>
        <pt x="207" y="383" on="0"/>
        <pt x="243" y="405" on="0"/>
        <pt x="264" y="405" on="1"/>
        <pt x="283" y="405" on="0"/>
        <pt x="312" y="390" on="0"/>
        <pt x="323" y="379" on="1"/>
        <pt x="328" y="410" on="0"/>
        <pt x="331" y="432" on="0"/>
        <pt x="331" y="439" on="1"/>
        <pt x="331" y="457" on="0"/>
        <pt x="307" y="475" on="0"/>
        <pt x="287" y="475" on="1"/>
        <pt x="273" y="475" on="0"/>
        <pt x="245" y="467" on="0"/>
        <pt x="234" y="462" on="1"/>
        <pt x="232" y="520" on="1"/>
        <pt x="245" y="525" on="0"/>
        <pt x="291" y="538" on="0"/>
        <pt x="311" y="538" on="1"/>
        <pt x="346" y="538" on="0"/>
        <pt x="400" y="502" on="0"/>
        <pt x="400" y="459" on="1"/>
        <pt x="400" y="453" on="0"/>
        <pt x="398" y="436" on="0"/>
        <pt x="397" y="428" on="1"/>
        <pt x="375" y="304" on="1"/>
        <pt x="368" y="262" on="0"/>
        <pt x="380" y="233" on="0"/>
        <pt x="392" y="233" on="1"/>
        <pt x="408" y="233" on="0"/>
        <pt x="439" y="286" on="0"/>
        <pt x="463" y="366" on="0"/>
        <pt x="477" y="462" on="0"/>
        <pt x="477" y="504" on="1"/>
        <pt x="477" y="542" on="0"/>
        <pt x="464" y="614" on="0"/>
        <pt x="434" y="669" on="0"/>
        <pt x="384" y="702" on="0"/>
        <pt x="347" y="702" on="1"/>
        <pt x="296" y="702" on="0"/>
        <pt x="204" y="624" on="0"/>
        <pt x="136" y="498" on="0"/>
        <pt x="96" y="340" on="0"/>
        <pt x="96" y="260" on="1"/>
        <pt x="96" y="212" on="0"/>
        <pt x="115" y="128" on="0"/>
        <pt x="154" y="67" on="0"/>
        <pt x="213" y="32" on="0"/>
        <pt x="253" y="32" on="1"/>
        <pt x="279" y="32" on="0"/>
        <pt x="318" y="44" on="0"/>
        <pt x="335" y="52" on="1"/>
      </contour>
      <contour>
        <pt x="315" y="338" on="1"/>
        <pt x="310" y="347" on="0"/>
        <pt x="292" y="360" on="0"/>
        <pt x="279" y="360" on="1"/>
        <pt x="259" y="360" on="0"/>
        <pt x="234" y="315" on="0"/>
        <pt x="234" y="284" on="1"/>
        <pt x="234" y="265" on="0"/>
        <pt x="249" y="243" on="0"/>
        <pt x="264" y="243" on="1"/>
        <pt x="275" y="243" on="0"/>
        <pt x="296" y="258" on="0"/>
        <pt x="303" y="267" on="1"/>
      </contour>
    </TTGlyph>
    <TTGlyph name="atilde" xMin="-1" yMin="-8" xMax="367" yMax="608">
      <component glyphName="a" x="0" y="0" flags="0x204"/>
      <component glyphName="tilde" x="-28" y="2" flags="0x4"/>
    </TTGlyph>
    <TTGlyph name="b" xMin="-2" yMin="-8" xMax="348" yMax="733">
      <contour>
        <pt x="348" y="327" on="1"/>
        <pt x="348" y="264" on="0"/>
        <pt x="323" y="143" on="0"/>
        <pt x="278" y="49" on="0"/>
        <pt x="215" y="-8" on="0"/>
        <pt x="178" y="-8" on="1"/>
        <pt x="128" y="-8" on="0"/>
        <pt x="97" y="38" on="1"/>
        <pt x="90" y="0" on="1"/>
        <pt x="-2" y="0" on="1"/>
        <pt x="127" y="733" on="1"/>
        <pt x="223" y="733" on="1"/>
        <pt x="169" y="423" on="1"/>
        <pt x="208" y="468" on="0"/>
        <pt x="253" y="468" on="1"/>
        <pt x="292" y="468" on="0"/>
        <pt x="348" y="401" on="0"/>
      </contour>
      <contour>
        <pt x="253" y="321" on="1"/>
        <pt x="253" y="361" on="0"/>
        <pt x="228" y="388" on="0"/>
        <pt x="211" y="388" on="1"/>
        <pt x="197" y="388" on="0"/>
        <pt x="169" y="372" on="0"/>
        <pt x="158" y="362" on="1"/>
        <pt x="111" y="94" on="1"/>
        <pt x="119" y="83" on="0"/>
        <pt x="140" y="69" on="0"/>
        <pt x="154" y="69" on="1"/>
        <pt x="178" y="69" on="0"/>
        <pt x="215" y="122" on="0"/>
        <pt x="240" y="199" on="0"/>
        <pt x="253" y="286" on="0"/>
      </contour>
    </TTGlyph>
    <TTGlyph name="backslash" xMin="75" yMin="-216" xMax="214" yMax="733">
      <contour>
        <pt x="141" y="-216" on="1"/>
        <pt x="75" y="733" on="1"/>
        <pt x="148" y="733" on="1"/>
        <pt x="214" y="-216" on="1"/>
      </contour>
    </TTGlyph>
    <TTGlyph name="backslash.cap" xMin="94" yMin="-111" xMax="233" yMax="838">
      <component glyphName="backslash" x="19" y="105" flags="0x204"/>
    </TTGlyph>
    <TTGlyph name="bar" xMin="-22" yMin="-215" xMax="219" yMax="734">
      <contour>
        <pt x="-22" y="-215" on="1"/>
        <pt x="146" y="734" on="1"/>
        <pt x="219" y="734" on="1"/>
        <pt x="51" y="-215" on="1"/>
      </contour>
    </TTGlyph>
    <TTGlyph name="bar.cap" xMin="-3" yMin="-111" xMax="238" yMax="838">
      <component glyphName="bar" x="19" y="104" flags="0x204"/>
    </TTGlyph>
    <TTGlyph name="braceleft" xMin="16" yMin="-223" xMax="328" yMax="740">
      <contour>
        <pt x="314" y="658" on="1"/>
        <pt x="308" y="658" on="1"/>
        <pt x="283" y="658" on="0"/>
        <pt x="245" y="636" on="0"/>
        <pt x="238" y="594" on="1"/>
        <pt x="196" y="357" on="1"/>
        <pt x="191" y="332" on="0"/>
        <pt x="176" y="298" on="0"/>
        <pt x="155" y="276" on="0"/>
        <pt x="128" y="262" on="0"/>
        <pt x="113" y="258" on="1"/>
        <pt x="138" y="245" on="0"/>
        <pt x="162" y="209" on="0"/>
        <pt x="162" y="181" on="1"/>
        <pt x="162" y="174" on="0"/>
        <pt x="160" y="153" on="0"/>
        <pt x="158" y="143" on="1"/>
        <pt x="123" y="-58" on="1"/>
        <pt x="121" y="-68" on="0"/>
        <pt x="118" y="-85" on="0"/>
        <pt x="118" y="-96" on="1"/>
        <pt x="118" y="-122" on="0"/>
        <pt x="151" y="-140" on="0"/>
        <pt x="174" y="-140" on="1"/>
        <pt x="159" y="-223" on="1"/>
        <pt x="103" y="-223" on="0"/>
        <pt x="31" y="-169" on="0"/>
        <pt x="31" y="-115" on="1"/>
        <pt x="31" y="-108" on="0"/>
        <pt x="33" y="-88" on="0"/>
        <pt x="35" y="-79" on="1"/>
        <pt x="76" y="153" on="1"/>
        <pt x="77" y="158" on="0"/>
        <pt x="79" y="171" on="0"/>
        <pt x="79" y="176" on="1"/>
        <pt x="79" y="201" on="0"/>
        <pt x="50" y="221" on="0"/>
        <pt x="30" y="221" on="1"/>
        <pt x="16" y="221" on="1"/>
        <pt x="31" y="303" on="1"/>
        <pt x="44" y="303" on="1"/>
        <pt x="66" y="303" on="0"/>
        <pt x="106" y="324" on="0"/>
        <pt x="112" y="356" on="1"/>
        <pt x="157" y="613" on="1"/>
        <pt x="164" y="654" on="0"/>
        <pt x="196" y="704" on="0"/>
        <pt x="240" y="731" on="0"/>
        <pt x="294" y="740" on="0"/>
        <pt x="323" y="740" on="1"/>
        <pt x="328" y="740" on="1"/>
      </contour>
    </TTGlyph>
    <TTGlyph name="braceleft.cap" xMin="35" yMin="-118" xMax="347" yMax="845">
      <component glyphName="braceleft" x="19" y="105" flags="0x204"/>
    </TTGlyph>
    <TTGlyph name="braceright" xMin="-80" yMin="-223" xMax="233" yMax="740">
      <contour>
        <pt x="-66" y="-141" on="1"/>
        <pt x="-60" y="-141" on="1"/>
        <pt x="-35" y="-141" on="0"/>
        <pt x="4" y="-119" on="0"/>
        <pt x="11" y="-77" on="1"/>
        <pt x="53" y="161" on="1"/>
        <pt x="62" y="210" on="0"/>
        <pt x="105" y="250" on="0"/>
        <pt x="136" y="260" on="1"/>
        <pt x="111" y="273" on="0"/>
        <pt x="87" y="309" on="0"/>
        <pt x="87" y="337" on="1"/>
        <pt x="87" y="344" on="0"/>
        <pt x="89" y="365" on="0"/>
        <pt x="91" y="374" on="1"/>
        <pt x="126" y="575" on="1"/>
        <pt x="128" y="585" on="0"/>
        <pt x="131" y="602" on="0"/>
        <pt x="131" y="613" on="1"/>
        <pt x="131" y="639" on="0"/>
        <pt x="98" y="657" on="0"/>
        <pt x="75" y="657" on="1"/>
        <pt x="90" y="740" on="1"/>
        <pt x="146" y="740" on="0"/>
        <pt x="218" y="686" on="0"/>
        <pt x="218" y="632" on="1"/>
        <pt x="218" y="625" on="0"/>
        <pt x="216" y="605" on="0"/>
        <pt x="214" y="596" on="1"/>
        <pt x="173" y="365" on="1"/>
        <pt x="172" y="360" on="0"/>
        <pt x="170" y="346" on="0"/>
        <pt x="170" y="341" on="1"/>
        <pt x="170" y="317" on="0"/>
        <pt x="199" y="296" on="0"/>
        <pt x="219" y="296" on="1"/>
        <pt x="233" y="296" on="1"/>
        <pt x="218" y="214" on="1"/>
        <pt x="205" y="214" on="1"/>
        <pt x="183" y="214" on="0"/>
        <pt x="143" y="193" on="0"/>
        <pt x="137" y="161" on="1"/>
        <pt x="92" y="-96" on="1"/>
        <pt x="85" y="-137" on="0"/>
        <pt x="53" y="-187" on="0"/>
        <pt x="9" y="-214" on="0"/>
        <pt x="-45" y="-223" on="0"/>
        <pt x="-75" y="-223" on="1"/>
        <pt x="-80" y="-223" on="1"/>
      </contour>
    </TTGlyph>
    <TTGlyph name="braceright.cap" xMin="-61" yMin="-118" xMax="252" yMax="845">
      <component glyphName="braceright" x="19" y="105" flags="0x204"/>
    </TTGlyph>
    <TTGlyph name="bracketleft" xMin="-33" yMin="-216" xMax="318" yMax="733">
      <contour>
        <pt x="304" y="654" on="1"/>
        <pt x="206" y="654" on="1"/>
        <pt x="67" y="-137" on="1"/>
        <pt x="165" y="-137" on="1"/>
        <pt x="151" y="-216" on="1"/>
        <pt x="-33" y="-216" on="1"/>
        <pt x="135" y="733" on="1"/>
        <pt x="318" y="733" on="1"/>
      </contour>
    </TTGlyph>
    <TTGlyph name="bracketleft.cap" xMin="-14" yMin="-111" xMax="337" yMax="838">
      <component glyphName="bracketleft" x="19" y="105" flags="0x204"/>
    </TTGlyph>
    <TTGlyph name="bracketright" xMin="-80" yMin="-216" xMax="272" yMax="733">
      <contour>
        <pt x="104" y="-216" on="1"/>
        <pt x="-80" y="-216" on="1"/>
        <pt x="-65" y="-137" on="1"/>
        <pt x="34" y="-137" on="1"/>
        <pt x="173" y="654" on="1"/>
        <pt x="75" y="654" on="1"/>
        <pt x="89" y="733" on="1"/>
        <pt x="272" y="733" on="1"/>
      </contour>
    </TTGlyph>
    <TTGlyph name="bracketright.cap" xMin="-61" yMin="-111" xMax="291" yMax="838">
      <component glyphName="bracketright" x="19" y="105" flags="0x204"/>
    </TTGlyph>
    <TTGlyph name="breve" xMin="149" yMin="505" xMax="380" yMax="620">
      <contour>
        <pt x="380" y="615" on="1"/>
        <pt x="377" y="592" on="0"/>
        <pt x="357" y="552" on="0"/>
        <pt x="324" y="522" on="0"/>
        <pt x="280" y="505" on="0"/>
        <pt x="253" y="505" on="1"/>
        <pt x="203" y="505" on="0"/>
        <pt x="149" y="560" on="0"/>
        <pt x="149" y="600" on="1"/>
        <pt x="149" y="604" on="0"/>
        <pt x="149" y="613" on="0"/>
        <pt x="150" y="615" on="1"/>
        <pt x="221" y="620" on="1"/>
        <pt x="221" y="617" on="0"/>
        <pt x="220" y="611" on="0"/>
        <pt x="220" y="609" on="1"/>
        <pt x="220" y="565" on="0"/>
        <pt x="259" y="565" on="1"/>
        <pt x="301" y="565" on="0"/>
        <pt x="309" y="620" on="1"/>
      </contour>
    </TTGlyph>
    <TTGlyph name="bullet" xMin="54" yMin="250" xMax="282" yMax="483">
      <contour>
        <pt x="282" y="376" on="1"/>
        <pt x="282" y="350" on="0"/>
        <pt x="262" y="304" on="0"/>
        <pt x="228" y="270" on="0"/>
        <pt x="184" y="250" on="0"/>
        <pt x="160" y="250" on="1"/>
        <pt x="109" y="250" on="0"/>
        <pt x="54" y="309" on="0"/>
        <pt x="54" y="357" on="1"/>
        <pt x="54" y="383" on="0"/>
        <pt x="74" y="429" on="0"/>
        <pt x="107" y="463" on="0"/>
        <pt x="152" y="483" on="0"/>
        <pt x="176" y="483" on="1"/>
        <pt x="227" y="483" on="0"/>
        <pt x="282" y="423" on="0"/>
      </contour>
    </TTGlyph>
    <TTGlyph name="c" xMin="19" yMin="-11" xMax="313" yMax="471">
      <contour>
        <pt x="269" y="364" on="1"/>
        <pt x="257" y="375" on="0"/>
        <pt x="233" y="386" on="0"/>
        <pt x="218" y="386" on="1"/>
        <pt x="194" y="386" on="0"/>
        <pt x="155" y="348" on="0"/>
        <pt x="127" y="286" on="0"/>
        <pt x="112" y="209" on="0"/>
        <pt x="112" y="169" on="1"/>
        <pt x="112" y="128" on="0"/>
        <pt x="141" y="74" on="0"/>
        <pt x="173" y="74" on="1"/>
        <pt x="184" y="74" on="0"/>
        <pt x="212" y="83" on="0"/>
        <pt x="225" y="94" on="1"/>
        <pt x="246" y="20" on="1"/>
        <pt x="226" y="6" on="0"/>
        <pt x="177" y="-11" on="0"/>
        <pt x="154" y="-11" on="1"/>
        <pt x="120" y="-11" on="0"/>
        <pt x="70" y="16" on="0"/>
        <pt x="36" y="63" on="0"/>
        <pt x="19" y="126" on="0"/>
        <pt x="19" y="163" on="1"/>
        <pt x="19" y="221" on="0"/>
        <pt x="46" y="331" on="0"/>
        <pt x="98" y="418" on="0"/>
        <pt x="172" y="471" on="0"/>
        <pt x="219" y="471" on="1"/>
        <pt x="248" y="471" on="0"/>
        <pt x="296" y="452" on="0"/>
        <pt x="313" y="436" on="1"/>
      </contour>
    </TTGlyph>
    <TTGlyph name="cacute" xMin="19" yMin="-11" xMax="369" yMax="662">
      <component glyphName="acute" x="30" y="2" flags="0x4"/>
      <component glyphName="c" x="0" y="0" flags="0x4"/>
    </TTGlyph>
    <TTGlyph name="caron" xMin="146" yMin="503" xMax="398" yMax="638">
      <contour>
        <pt x="272" y="503" on="1"/>
        <pt x="224" y="503" on="1"/>
        <pt x="146" y="638" on="1"/>
        <pt x="221" y="638" on="1"/>
        <pt x="257" y="567" on="1"/>
        <pt x="317" y="638" on="1"/>
        <pt x="398" y="638" on="1"/>
      </contour>
    </TTGlyph>
    <TTGlyph name="caron.alt" xMin="24" yMin="517" xMax="163" yMax="740">
      <contour>
        <pt x="163" y="733" on="1"/>
        <pt x="154" y="667" on="0"/>
        <pt x="103" y="558" on="0"/>
        <pt x="55" y="517" on="1"/>
        <pt x="24" y="540" on="1"/>
        <pt x="58" y="586" on="0"/>
        <pt x="84" y="685" on="0"/>
        <pt x="91" y="740" on="1"/>
      </contour>
    </TTGlyph>
    <TTGlyph name="ccaron" xMin="19" yMin="-11" xMax="375" yMax="640">
      <component glyphName="caron" x="-23" y="2" flags="0x4"/>
      <component glyphName="c" x="0" y="0" flags="0x4"/>
    </TTGlyph>
    <TTGlyph name="ccedilla" xMin="19" yMin="-189" xMax="313" yMax="471">
      <contour>
        <pt x="206" y="-107" on="1"/>
        <pt x="206" y="-142" on="0"/>
        <pt x="155" y="-189" on="0"/>
        <pt x="111" y="-189" on="1"/>
        <pt x="86" y="-189" on="0"/>
        <pt x="38" y="-174" on="0"/>
        <pt x="20" y="-161" on="1"/>
        <pt x="44" y="-113" on="1"/>
        <pt x="66" y="-128" on="0"/>
        <pt x="100" y="-138" on="0"/>
        <pt x="115" y="-138" on="1"/>
        <pt x="129" y="-138" on="0"/>
        <pt x="148" y="-123" on="0"/>
        <pt x="148" y="-112" on="1"/>
        <pt x="148" y="-100" on="0"/>
        <pt x="120" y="-80" on="0"/>
        <pt x="78" y="-79" on="1"/>
        <pt x="76" y="-72" on="1"/>
        <pt x="106" y="-3" on="1"/>
        <pt x="62" y="14" on="0"/>
        <pt x="19" y="103" on="0"/>
        <pt x="19" y="163" on="1"/>
        <pt x="19" y="221" on="0"/>
        <pt x="46" y="331" on="0"/>
        <pt x="98" y="418" on="0"/>
        <pt x="172" y="471" on="0"/>
        <pt x="219" y="471" on="1"/>
        <pt x="248" y="471" on="0"/>
        <pt x="296" y="452" on="0"/>
        <pt x="313" y="436" on="1"/>
        <pt x="269" y="364" on="1"/>
        <pt x="257" y="375" on="0"/>
        <pt x="233" y="386" on="0"/>
        <pt x="218" y="386" on="1"/>
        <pt x="194" y="386" on="0"/>
        <pt x="155" y="348" on="0"/>
        <pt x="127" y="286" on="0"/>
        <pt x="112" y="209" on="0"/>
        <pt x="112" y="169" on="1"/>
        <pt x="112" y="128" on="0"/>
        <pt x="141" y="74" on="0"/>
        <pt x="173" y="74" on="1"/>
        <pt x="184" y="74" on="0"/>
        <pt x="212" y="83" on="0"/>
        <pt x="225" y="94" on="1"/>
        <pt x="246" y="20" on="1"/>
        <pt x="226" y="6" on="0"/>
        <pt x="177" y="-11" on="0"/>
        <pt x="154" y="-11" on="1"/>
        <pt x="151" y="-11" on="0"/>
        <pt x="146" y="-10" on="0"/>
        <pt x="144" y="-10" on="1"/>
        <pt x="132" y="-37" on="1"/>
        <pt x="174" y="-45" on="0"/>
        <pt x="206" y="-84" on="0"/>
      </contour>
    </TTGlyph>
    <TTGlyph name="cdotaccent" xMin="19" yMin="-11" xMax="313" yMax="610">
      <component glyphName="c" x="0" y="0" flags="0x204"/>
      <component glyphName="dotaccent" x="-24" y="2" flags="0x4"/>
    </TTGlyph>
    <TTGlyph name="cedilla" xMin="47" yMin="-189" xMax="233" yMax="17">
      <contour>
        <pt x="233" y="-107" on="1"/>
        <pt x="233" y="-142" on="0"/>
        <pt x="182" y="-189" on="0"/>
        <pt x="138" y="-189" on="1"/>
        <pt x="113" y="-189" on="0"/>
        <pt x="65" y="-174" on="0"/>
        <pt x="47" y="-161" on="1"/>
        <pt x="71" y="-113" on="1"/>
        <pt x="93" y="-128" on="0"/>
        <pt x="127" y="-138" on="0"/>
        <pt x="142" y="-138" on="1"/>
        <pt x="156" y="-138" on="0"/>
        <pt x="175" y="-123" on="0"/>
        <pt x="175" y="-112" on="1"/>
        <pt x="175" y="-100" on="0"/>
        <pt x="147" y="-80" on="0"/>
        <pt x="105" y="-79" on="1"/>
        <pt x="103" y="-72" on="1"/>
        <pt x="142" y="17" on="1"/>
        <pt x="179" y="7" on="1"/>
        <pt x="159" y="-37" on="1"/>
        <pt x="201" y="-45" on="0"/>
        <pt x="233" y="-84" on="0"/>
      </contour>
    </TTGlyph>
    <TTGlyph name="cent" xMin="22" yMin="-78" xMax="330" yMax="546">
      <contour>
        <pt x="281" y="461" on="1"/>
        <pt x="295" y="456" on="0"/>
        <pt x="319" y="439" on="0"/>
        <pt x="330" y="430" on="1"/>
        <pt x="286" y="359" on="1"/>
        <pt x="281" y="364" on="0"/>
        <pt x="267" y="377" on="0"/>
        <pt x="258" y="382" on="1"/>
        <pt x="169" y="69" on="1"/>
        <pt x="180" y="69" on="1"/>
        <pt x="193" y="69" on="0"/>
        <pt x="221" y="82" on="0"/>
        <pt x="235" y="92" on="1"/>
        <pt x="255" y="20" on="1"/>
        <pt x="235" y="6" on="0"/>
        <pt x="186" y="-11" on="0"/>
        <pt x="163" y="-11" on="1"/>
        <pt x="158" y="-11" on="0"/>
        <pt x="151" y="-10" on="0"/>
        <pt x="147" y="-10" on="1"/>
        <pt x="128" y="-78" on="1"/>
        <pt x="80" y="-68" on="1"/>
        <pt x="100" y="3" on="1"/>
        <pt x="61" y="23" on="0"/>
        <pt x="22" y="110" on="0"/>
        <pt x="22" y="164" on="1"/>
        <pt x="22" y="223" on="0"/>
        <pt x="50" y="334" on="0"/>
        <pt x="103" y="419" on="0"/>
        <pt x="180" y="471" on="0"/>
        <pt x="228" y="471" on="1"/>
        <pt x="233" y="471" on="1"/>
        <pt x="255" y="546" on="1"/>
        <pt x="302" y="536" on="1"/>
      </contour>
      <contour>
        <pt x="111" y="164" on="1"/>
        <pt x="111" y="116" on="0"/>
        <pt x="126" y="94" on="1"/>
        <pt x="211" y="393" on="1"/>
        <pt x="188" y="387" on="0"/>
        <pt x="152" y="342" on="0"/>
        <pt x="125" y="279" on="0"/>
        <pt x="111" y="203" on="0"/>
      </contour>
    </TTGlyph>
    <TTGlyph name="cent.lin" xMin="46" yMin="59" xMax="354" yMax="683">
      <component glyphName="cent" x="24" y="137" flags="0x204"/>
    </TTGlyph>
    <TTGlyph name="circumflex" xMin="125" yMin="508" xMax="377" yMax="643">
      <contour>
        <pt x="300" y="508" on="1"/>
        <pt x="267" y="579" on="1"/>
        <pt x="205" y="508" on="1"/>
        <pt x="125" y="508" on="1"/>
        <pt x="253" y="643" on="1"/>
        <pt x="301" y="643" on="1"/>
        <pt x="377" y="508" on="1"/>
      </contour>
    </TTGlyph>
    <TTGlyph name="colon" xMin="-7" yMin="-11" xMax="165" yMax="414">
      <contour>
        <pt x="165" y="358" on="1"/>
        <pt x="165" y="331" on="0"/>
        <pt x="127" y="292" on="0"/>
        <pt x="102" y="292" on="1"/>
        <pt x="76" y="292" on="0"/>
        <pt x="46" y="323" on="0"/>
        <pt x="46" y="348" on="1"/>
        <pt x="46" y="375" on="0"/>
        <pt x="84" y="414" on="0"/>
        <pt x="110" y="414" on="1"/>
        <pt x="136" y="414" on="0"/>
        <pt x="165" y="382" on="0"/>
      </contour>
      <contour>
        <pt x="113" y="55" on="1"/>
        <pt x="113" y="28" on="0"/>
        <pt x="75" y="-11" on="0"/>
        <pt x="49" y="-11" on="1"/>
        <pt x="23" y="-11" on="0"/>
        <pt x="-7" y="21" on="0"/>
        <pt x="-7" y="45" on="1"/>
        <pt x="-7" y="72" on="0"/>
        <pt x="32" y="111" on="0"/>
        <pt x="57" y="111" on="1"/>
        <pt x="83" y="111" on="0"/>
        <pt x="113" y="80" on="0"/>
      </contour>
    </TTGlyph>
    <TTGlyph name="comma" xMin="-36" yMin="-107" xMax="105" yMax="112">
      <contour>
        <pt x="105" y="49" on="1"/>
        <pt x="105" y="26" on="0"/>
        <pt x="81" y="-22" on="0"/>
        <pt x="43" y="-65" on="0"/>
        <pt x="-4" y="-98" on="0"/>
        <pt x="-26" y="-107" on="1"/>
        <pt x="-36" y="-91" on="1"/>
        <pt x="3" y="-63" on="0"/>
        <pt x="33" y="-19" on="0"/>
        <pt x="40" y="-1" on="1"/>
        <pt x="17" y="1" on="0"/>
        <pt x="-10" y="30" on="0"/>
        <pt x="-10" y="50" on="1"/>
        <pt x="-10" y="75" on="0"/>
        <pt x="26" y="112" on="0"/>
        <pt x="50" y="112" on="1"/>
        <pt x="74" y="112" on="0"/>
        <pt x="105" y="79" on="0"/>
      </contour>
    </TTGlyph>
    <TTGlyph name="commaaccent" xMin="5" yMin="-276" xMax="139" yMax="-68">
      <contour>
        <pt x="139" y="-128" on="1"/>
        <pt x="139" y="-150" on="0"/>
        <pt x="116" y="-196" on="0"/>
        <pt x="80" y="-236" on="0"/>
        <pt x="36" y="-268" on="0"/>
        <pt x="15" y="-276" on="1"/>
        <pt x="5" y="-260" on="1"/>
        <pt x="42" y="-234" on="0"/>
        <pt x="70" y="-192" on="0"/>
        <pt x="76" y="-175" on="1"/>
        <pt x="54" y="-173" on="0"/>
        <pt x="30" y="-146" on="0"/>
        <pt x="30" y="-127" on="1"/>
        <pt x="30" y="-103" on="0"/>
        <pt x="63" y="-68" on="0"/>
        <pt x="86" y="-68" on="1"/>
        <pt x="109" y="-68" on="0"/>
        <pt x="139" y="-99" on="0"/>
      </contour>
    </TTGlyph>
    <TTGlyph name="copyright" xMin="40" yMin="-12" xMax="505" yMax="745">
      <contour>
        <pt x="320" y="198" on="1"/>
        <pt x="303" y="187" on="0"/>
        <pt x="274" y="181" on="0"/>
        <pt x="263" y="181" on="1"/>
        <pt x="218" y="181" on="0"/>
        <pt x="165" y="254" on="0"/>
        <pt x="165" y="318" on="1"/>
        <pt x="165" y="364" on="0"/>
        <pt x="188" y="451" on="0"/>
        <pt x="228" y="518" on="0"/>
        <pt x="283" y="559" on="0"/>
        <pt x="315" y="559" on="1"/>
        <pt x="351" y="559" on="0"/>
        <pt x="378" y="536" on="1"/>
        <pt x="348" y="484" on="1"/>
        <pt x="342" y="491" on="0"/>
        <pt x="326" y="500" on="0"/>
        <pt x="315" y="500" on="1"/>
        <pt x="298" y="500" on="0"/>
        <pt x="268" y="469" on="0"/>
        <pt x="244" y="418" on="0"/>
        <pt x="230" y="352" on="0"/>
        <pt x="230" y="318" on="1"/>
        <pt x="230" y="280" on="0"/>
        <pt x="255" y="240" on="0"/>
        <pt x="275" y="240" on="1"/>
        <pt x="283" y="240" on="0"/>
        <pt x="299" y="246" on="0"/>
        <pt x="306" y="250" on="1"/>
      </contour>
      <contour>
        <pt x="461" y="462" on="1"/>
        <pt x="461" y="513" on="0"/>
        <pt x="443" y="601" on="0"/>
        <pt x="409" y="667" on="0"/>
        <pt x="357" y="705" on="0"/>
        <pt x="323" y="705" on="1"/>
        <pt x="273" y="705" on="0"/>
        <pt x="186" y="627" on="0"/>
        <pt x="121" y="504" on="0"/>
        <pt x="83" y="349" on="0"/>
        <pt x="83" y="273" on="1"/>
        <pt x="83" y="222" on="0"/>
        <pt x="101" y="133" on="0"/>
        <pt x="136" y="66" on="0"/>
        <pt x="188" y="28" on="0"/>
        <pt x="222" y="28" on="1"/>
        <pt x="272" y="28" on="0"/>
        <pt x="359" y="106" on="0"/>
        <pt x="424" y="231" on="0"/>
        <pt x="461" y="385" on="0"/>
      </contour>
      <contour>
        <pt x="505" y="465" on="1"/>
        <pt x="505" y="377" on="0"/>
        <pt x="462" y="206" on="0"/>
        <pt x="385" y="71" on="0"/>
        <pt x="280" y="-12" on="0"/>
        <pt x="219" y="-12" on="1"/>
        <pt x="177" y="-12" on="0"/>
        <pt x="110" y="30" on="0"/>
        <pt x="64" y="105" on="0"/>
        <pt x="40" y="209" on="0"/>
        <pt x="40" y="270" on="1"/>
        <pt x="40" y="328" on="0"/>
        <pt x="60" y="444" on="0"/>
        <pt x="96" y="550" on="0"/>
        <pt x="148" y="641" on="0"/>
        <pt x="212" y="707" on="0"/>
        <pt x="286" y="745" on="0"/>
        <pt x="327" y="745" on="1"/>
        <pt x="369" y="745" on="0"/>
        <pt x="436" y="703" on="0"/>
        <pt x="481" y="628" on="0"/>
        <pt x="505" y="526" on="0"/>
      </contour>
    </TTGlyph>
    <TTGlyph name="d" xMin="15" yMin="-8" xMax="414" yMax="733">
      <contour>
        <pt x="284" y="0" on="1"/>
        <pt x="193" y="0" on="1"/>
        <pt x="201" y="44" on="1"/>
        <pt x="178" y="16" on="0"/>
        <pt x="132" y="-8" on="0"/>
        <pt x="111" y="-8" on="1"/>
        <pt x="68" y="-8" on="0"/>
        <pt x="15" y="67" on="0"/>
        <pt x="15" y="141" on="1"/>
        <pt x="15" y="204" on="0"/>
        <pt x="40" y="321" on="0"/>
        <pt x="85" y="413" on="0"/>
        <pt x="149" y="468" on="0"/>
        <pt x="187" y="468" on="1"/>
        <pt x="231" y="468" on="0"/>
        <pt x="263" y="426" on="1"/>
        <pt x="318" y="733" on="1"/>
        <pt x="414" y="733" on="1"/>
      </contour>
      <contour>
        <pt x="252" y="367" on="1"/>
        <pt x="242" y="378" on="0"/>
        <pt x="222" y="390" on="0"/>
        <pt x="208" y="390" on="1"/>
        <pt x="184" y="390" on="0"/>
        <pt x="147" y="338" on="0"/>
        <pt x="122" y="262" on="0"/>
        <pt x="109" y="176" on="0"/>
        <pt x="109" y="142" on="1"/>
        <pt x="109" y="101" on="0"/>
        <pt x="135" y="72" on="0"/>
        <pt x="152" y="72" on="1"/>
        <pt x="166" y="72" on="0"/>
        <pt x="194" y="89" on="0"/>
        <pt x="206" y="100" on="1"/>
      </contour>
    </TTGlyph>
    <TTGlyph name="dagger" xMin="75" yMin="217" xMax="346" yMax="733">
      <contour>
        <pt x="331" y="516" on="1"/>
        <pt x="247" y="516" on="1"/>
        <pt x="194" y="217" on="1"/>
        <pt x="108" y="217" on="1"/>
        <pt x="161" y="516" on="1"/>
        <pt x="75" y="516" on="1"/>
        <pt x="89" y="599" on="1"/>
        <pt x="175" y="599" on="1"/>
        <pt x="199" y="733" on="1"/>
        <pt x="285" y="733" on="1"/>
        <pt x="261" y="599" on="1"/>
        <pt x="346" y="599" on="1"/>
      </contour>
    </TTGlyph>
    <TTGlyph name="daggerdbl" xMin="40" yMin="202" xMax="353" yMax="733">
      <contour>
        <pt x="339" y="533" on="1"/>
        <pt x="252" y="533" on="1"/>
        <pt x="229" y="401" on="1"/>
        <pt x="315" y="401" on="1"/>
        <pt x="301" y="318" on="1"/>
        <pt x="215" y="318" on="1"/>
        <pt x="194" y="202" on="1"/>
        <pt x="108" y="202" on="1"/>
        <pt x="128" y="318" on="1"/>
        <pt x="40" y="318" on="1"/>
        <pt x="55" y="401" on="1"/>
        <pt x="143" y="401" on="1"/>
        <pt x="167" y="533" on="1"/>
        <pt x="78" y="533" on="1"/>
        <pt x="92" y="615" on="1"/>
        <pt x="180" y="615" on="1"/>
        <pt x="201" y="733" on="1"/>
        <pt x="288" y="733" on="1"/>
        <pt x="267" y="615" on="1"/>
        <pt x="353" y="615" on="1"/>
      </contour>
    </TTGlyph>
    <TTGlyph name="dcaron" xMin="15" yMin="-8" xMax="537" yMax="735">
      <component glyphName="caron.alt" x="374" y="-5" flags="0x4"/>
      <component glyphName="d" x="0" y="0" flags="0x4"/>
    </TTGlyph>
    <TTGlyph name="dcroat" xMin="15" yMin="-8" xMax="434" yMax="733">
      <contour>
        <pt x="397" y="637" on="1"/>
        <pt x="434" y="637" on="1"/>
        <pt x="419" y="554" on="1"/>
        <pt x="382" y="554" on="1"/>
        <pt x="284" y="0" on="1"/>
        <pt x="193" y="0" on="1"/>
        <pt x="201" y="44" on="1"/>
        <pt x="178" y="16" on="0"/>
        <pt x="132" y="-8" on="0"/>
        <pt x="111" y="-8" on="1"/>
        <pt x="68" y="-8" on="0"/>
        <pt x="15" y="67" on="0"/>
        <pt x="15" y="141" on="1"/>
        <pt x="15" y="204" on="0"/>
        <pt x="40" y="321" on="0"/>
        <pt x="85" y="413" on="0"/>
        <pt x="149" y="468" on="0"/>
        <pt x="187" y="468" on="1"/>
        <pt x="231" y="468" on="0"/>
        <pt x="263" y="426" on="1"/>
        <pt x="286" y="554" on="1"/>
        <pt x="195" y="554" on="1"/>
        <pt x="210" y="637" on="1"/>
        <pt x="301" y="637" on="1"/>
        <pt x="318" y="733" on="1"/>
        <pt x="414" y="733" on="1"/>
      </contour>
      <contour>
        <pt x="252" y="367" on="1"/>
        <pt x="242" y="378" on="0"/>
        <pt x="222" y="390" on="0"/>
        <pt x="208" y="390" on="1"/>
        <pt x="184" y="390" on="0"/>
        <pt x="147" y="338" on="0"/>
        <pt x="122" y="262" on="0"/>
        <pt x="109" y="176" on="0"/>
        <pt x="109" y="142" on="1"/>
        <pt x="109" y="101" on="0"/>
        <pt x="135" y="72" on="0"/>
        <pt x="152" y="72" on="1"/>
        <pt x="166" y="72" on="0"/>
        <pt x="194" y="89" on="0"/>
        <pt x="206" y="100" on="1"/>
      </contour>
    </TTGlyph>
    <TTGlyph name="degree" xMin="107" yMin="460" xMax="381" yMax="732">
      <contour>
        <pt x="381" y="612" on="1"/>
        <pt x="381" y="582" on="0"/>
        <pt x="359" y="527" on="0"/>
        <pt x="320" y="485" on="0"/>
        <pt x="264" y="460" on="0"/>
        <pt x="230" y="460" on="1"/>
        <pt x="201" y="460" on="0"/>
        <pt x="155" y="479" on="0"/>
        <pt x="124" y="512" on="0"/>
        <pt x="107" y="556" on="0"/>
        <pt x="107" y="580" on="1"/>
        <pt x="107" y="610" on="0"/>
        <pt x="129" y="665" on="0"/>
        <pt x="168" y="707" on="0"/>
        <pt x="224" y="732" on="0"/>
        <pt x="258" y="732" on="1"/>
        <pt x="287" y="732" on="0"/>
        <pt x="333" y="712" on="0"/>
        <pt x="364" y="679" on="0"/>
        <pt x="381" y="636" on="0"/>
      </contour>
      <contour>
        <pt x="309" y="611" on="1"/>
        <pt x="309" y="643" on="0"/>
        <pt x="277" y="676" on="0"/>
        <pt x="253" y="676" on="1"/>
        <pt x="220" y="676" on="0"/>
        <pt x="179" y="620" on="0"/>
        <pt x="179" y="580" on="1"/>
        <pt x="179" y="549" on="0"/>
        <pt x="210" y="516" on="0"/>
        <pt x="235" y="516" on="1"/>
        <pt x="268" y="516" on="0"/>
        <pt x="309" y="571" on="0"/>
      </contour>
    </TTGlyph>
    <TTGlyph name="degree.lin" xMin="107" yMin="460" xMax="381" yMax="732">
      <contour>
        <pt x="381" y="612" on="1"/>
        <pt x="381" y="582" on="0"/>
        <pt x="359" y="527" on="0"/>
        <pt x="320" y="485" on="0"/>
        <pt x="264" y="460" on="0"/>
        <pt x="230" y="460" on="1"/>
        <pt x="201" y="460" on="0"/>
        <pt x="155" y="479" on="0"/>
        <pt x="124" y="512" on="0"/>
        <pt x="107" y="556" on="0"/>
        <pt x="107" y="580" on="1"/>
        <pt x="107" y="610" on="0"/>
        <pt x="129" y="665" on="0"/>
        <pt x="168" y="707" on="0"/>
        <pt x="224" y="732" on="0"/>
        <pt x="258" y="732" on="1"/>
        <pt x="287" y="732" on="0"/>
        <pt x="333" y="712" on="0"/>
        <pt x="364" y="679" on="0"/>
        <pt x="381" y="636" on="0"/>
      </contour>
      <contour>
        <pt x="309" y="611" on="1"/>
        <pt x="309" y="643" on="0"/>
        <pt x="277" y="676" on="0"/>
        <pt x="253" y="676" on="1"/>
        <pt x="220" y="676" on="0"/>
        <pt x="179" y="620" on="0"/>
        <pt x="179" y="580" on="1"/>
        <pt x="179" y="549" on="0"/>
        <pt x="210" y="516" on="0"/>
        <pt x="235" y="516" on="1"/>
        <pt x="268" y="516" on="0"/>
        <pt x="309" y="571" on="0"/>
      </contour>
    </TTGlyph>
    <TTGlyph name="dieresis" xMin="137" yMin="506" xMax="377" yMax="608">
      <contour>
        <pt x="236" y="561" on="1"/>
        <pt x="236" y="538" on="0"/>
        <pt x="204" y="506" on="0"/>
        <pt x="183" y="506" on="1"/>
        <pt x="161" y="506" on="0"/>
        <pt x="137" y="533" on="0"/>
        <pt x="137" y="553" on="1"/>
        <pt x="137" y="576" on="0"/>
        <pt x="169" y="608" on="0"/>
        <pt x="189" y="608" on="1"/>
        <pt x="212" y="608" on="0"/>
        <pt x="236" y="581" on="0"/>
      </contour>
      <contour>
        <pt x="377" y="561" on="1"/>
        <pt x="377" y="538" on="0"/>
        <pt x="345" y="506" on="0"/>
        <pt x="324" y="506" on="1"/>
        <pt x="302" y="506" on="0"/>
        <pt x="278" y="533" on="0"/>
        <pt x="278" y="553" on="1"/>
        <pt x="278" y="576" on="0"/>
        <pt x="310" y="608" on="0"/>
        <pt x="330" y="608" on="1"/>
        <pt x="353" y="608" on="0"/>
        <pt x="377" y="581" on="0"/>
      </contour>
    </TTGlyph>
    <TTGlyph name="divide" xMin="50" yMin="214" xMax="351" yMax="529">
      <contour>
        <pt x="223" y="261" on="1"/>
        <pt x="223" y="241" on="0"/>
        <pt x="195" y="214" on="0"/>
        <pt x="178" y="214" on="1"/>
        <pt x="158" y="214" on="0"/>
        <pt x="138" y="236" on="0"/>
        <pt x="138" y="254" on="1"/>
        <pt x="138" y="274" on="0"/>
        <pt x="165" y="301" on="0"/>
        <pt x="183" y="301" on="1"/>
        <pt x="202" y="301" on="0"/>
        <pt x="223" y="278" on="0"/>
      </contour>
      <contour>
        <pt x="61" y="404" on="1"/>
        <pt x="351" y="404" on="1"/>
        <pt x="340" y="339" on="1"/>
        <pt x="50" y="339" on="1"/>
      </contour>
      <contour>
        <pt x="263" y="489" on="1"/>
        <pt x="263" y="469" on="0"/>
        <pt x="235" y="442" on="0"/>
        <pt x="218" y="442" on="1"/>
        <pt x="198" y="442" on="0"/>
        <pt x="178" y="465" on="0"/>
        <pt x="178" y="482" on="1"/>
        <pt x="178" y="502" on="0"/>
        <pt x="205" y="529" on="0"/>
        <pt x="223" y="529" on="1"/>
        <pt x="242" y="529" on="0"/>
        <pt x="263" y="507" on="0"/>
      </contour>
    </TTGlyph>
    <TTGlyph name="divide.lin" xMin="50" yMin="214" xMax="351" yMax="529">
      <component glyphName="divide" x="0" y="0" flags="0x204"/>
    </TTGlyph>
    <TTGlyph name="dollar" xMin="-20" yMin="-93" xMax="416" yMax="814">
      <contour>
        <pt x="345" y="716" on="1"/>
        <pt x="368" y="707" on="0"/>
        <pt x="403" y="682" on="0"/>
        <pt x="416" y="671" on="1"/>
        <pt x="372" y="587" on="1"/>
        <pt x="346" y="612" on="0"/>
        <pt x="318" y="626" on="1"/>
        <pt x="249" y="400" on="1"/>
        <pt x="260" y="388" on="1"/>
        <pt x="281" y="361" on="0"/>
        <pt x="315" y="313" on="0"/>
        <pt x="339" y="265" on="0"/>
        <pt x="352" y="215" on="0"/>
        <pt x="352" y="186" on="1"/>
        <pt x="352" y="145" on="0"/>
        <pt x="324" y="73" on="0"/>
        <pt x="273" y="20" on="0"/>
        <pt x="204" y="-11" on="0"/>
        <pt x="163" y="-11" on="1"/>
        <pt x="144" y="-11" on="0"/>
        <pt x="126" y="-8" on="1"/>
        <pt x="102" y="-93" on="1"/>
        <pt x="51" y="-82" on="1"/>
        <pt x="76" y="5" on="1"/>
        <pt x="47" y="16" on="0"/>
        <pt x="0" y="48" on="0"/>
        <pt x="-20" y="65" on="1"/>
        <pt x="24" y="153" on="1"/>
        <pt x="41" y="136" on="0"/>
        <pt x="80" y="106" on="0"/>
        <pt x="102" y="95" on="1"/>
        <pt x="172" y="340" on="1"/>
        <pt x="172" y="341" on="1"/>
        <pt x="130" y="393" on="0"/>
        <pt x="80" y="487" on="0"/>
        <pt x="80" y="543" on="1"/>
        <pt x="80" y="586" on="0"/>
        <pt x="109" y="656" on="0"/>
        <pt x="159" y="705" on="0"/>
        <pt x="227" y="731" on="0"/>
        <pt x="267" y="731" on="1"/>
        <pt x="274" y="731" on="0"/>
        <pt x="287" y="730" on="0"/>
        <pt x="294" y="729" on="1"/>
        <pt x="320" y="814" on="1"/>
        <pt x="372" y="803" on="1"/>
      </contour>
      <contour>
        <pt x="252" y="185" on="1"/>
        <pt x="252" y="214" on="0"/>
        <pt x="228" y="266" on="0"/>
        <pt x="210" y="291" on="1"/>
        <pt x="151" y="81" on="1"/>
        <pt x="164" y="81" on="1"/>
        <pt x="205" y="81" on="0"/>
        <pt x="252" y="143" on="0"/>
      </contour>
      <contour>
        <pt x="178" y="548" on="1"/>
        <pt x="178" y="524" on="0"/>
        <pt x="194" y="477" on="0"/>
        <pt x="212" y="450" on="1"/>
        <pt x="267" y="638" on="1"/>
        <pt x="263" y="638" on="1"/>
        <pt x="221" y="638" on="0"/>
        <pt x="178" y="584" on="0"/>
      </contour>
    </TTGlyph>
    <TTGlyph name="dollar.lin" xMin="-20" yMin="-93" xMax="416" yMax="814">
      <contour>
        <pt x="345" y="716" on="1"/>
        <pt x="368" y="707" on="0"/>
        <pt x="403" y="682" on="0"/>
        <pt x="416" y="671" on="1"/>
        <pt x="372" y="587" on="1"/>
        <pt x="346" y="612" on="0"/>
        <pt x="318" y="626" on="1"/>
        <pt x="249" y="400" on="1"/>
        <pt x="260" y="388" on="1"/>
        <pt x="281" y="361" on="0"/>
        <pt x="315" y="313" on="0"/>
        <pt x="339" y="265" on="0"/>
        <pt x="352" y="215" on="0"/>
        <pt x="352" y="186" on="1"/>
        <pt x="352" y="145" on="0"/>
        <pt x="324" y="73" on="0"/>
        <pt x="273" y="20" on="0"/>
        <pt x="204" y="-11" on="0"/>
        <pt x="163" y="-11" on="1"/>
        <pt x="144" y="-11" on="0"/>
        <pt x="126" y="-8" on="1"/>
        <pt x="102" y="-93" on="1"/>
        <pt x="51" y="-82" on="1"/>
        <pt x="76" y="5" on="1"/>
        <pt x="47" y="16" on="0"/>
        <pt x="0" y="48" on="0"/>
        <pt x="-20" y="65" on="1"/>
        <pt x="24" y="153" on="1"/>
        <pt x="41" y="136" on="0"/>
        <pt x="80" y="106" on="0"/>
        <pt x="102" y="95" on="1"/>
        <pt x="172" y="340" on="1"/>
        <pt x="172" y="341" on="1"/>
        <pt x="130" y="393" on="0"/>
        <pt x="80" y="487" on="0"/>
        <pt x="80" y="543" on="1"/>
        <pt x="80" y="586" on="0"/>
        <pt x="109" y="656" on="0"/>
        <pt x="159" y="705" on="0"/>
        <pt x="227" y="731" on="0"/>
        <pt x="267" y="731" on="1"/>
        <pt x="274" y="731" on="0"/>
        <pt x="287" y="730" on="0"/>
        <pt x="294" y="729" on="1"/>
        <pt x="320" y="814" on="1"/>
        <pt x="372" y="803" on="1"/>
      </contour>
      <contour>
        <pt x="252" y="185" on="1"/>
        <pt x="252" y="214" on="0"/>
        <pt x="228" y="266" on="0"/>
        <pt x="210" y="291" on="1"/>
        <pt x="151" y="81" on="1"/>
        <pt x="164" y="81" on="1"/>
        <pt x="205" y="81" on="0"/>
        <pt x="252" y="143" on="0"/>
      </contour>
      <contour>
        <pt x="178" y="548" on="1"/>
        <pt x="178" y="524" on="0"/>
        <pt x="194" y="477" on="0"/>
        <pt x="212" y="450" on="1"/>
        <pt x="267" y="638" on="1"/>
        <pt x="263" y="638" on="1"/>
        <pt x="221" y="638" on="0"/>
        <pt x="178" y="584" on="0"/>
      </contour>
    </TTGlyph>
    <TTGlyph name="dotaccent" xMin="208" yMin="506" xMax="307" yMax="608">
      <contour>
        <pt x="307" y="561" on="1"/>
        <pt x="307" y="538" on="0"/>
        <pt x="275" y="506" on="0"/>
        <pt x="254" y="506" on="1"/>
        <pt x="232" y="506" on="0"/>
        <pt x="208" y="533" on="0"/>
        <pt x="208" y="553" on="1"/>
        <pt x="208" y="576" on="0"/>
        <pt x="240" y="608" on="0"/>
        <pt x="260" y="608" on="1"/>
        <pt x="283" y="608" on="0"/>
        <pt x="307" y="581" on="0"/>
      </contour>
    </TTGlyph>
    <TTGlyph name="dotlessi" xMin="1" yMin="0" xMax="178" yMax="460">
      <contour>
        <pt x="97" y="0" on="1"/>
        <pt x="1" y="0" on="1"/>
        <pt x="82" y="460" on="1"/>
        <pt x="178" y="460" on="1"/>
      </contour>
    </TTGlyph>
    <TTGlyph name="e" xMin="19" yMin="-11" xMax="332" yMax="471">
      <contour>
        <pt x="167" y="-11" on="1"/>
        <pt x="103" y="-11" on="0"/>
        <pt x="19" y="75" on="0"/>
        <pt x="19" y="161" on="1"/>
        <pt x="19" y="214" on="0"/>
        <pt x="47" y="324" on="0"/>
        <pt x="98" y="414" on="0"/>
        <pt x="172" y="471" on="0"/>
        <pt x="217" y="471" on="1"/>
        <pt x="276" y="471" on="0"/>
        <pt x="332" y="390" on="0"/>
        <pt x="332" y="321" on="1"/>
        <pt x="332" y="295" on="0"/>
        <pt x="320" y="230" on="0"/>
        <pt x="310" y="198" on="1"/>
        <pt x="111" y="198" on="1"/>
        <pt x="110" y="190" on="0"/>
        <pt x="109" y="172" on="0"/>
        <pt x="109" y="162" on="1"/>
        <pt x="109" y="120" on="0"/>
        <pt x="147" y="72" on="0"/>
        <pt x="183" y="72" on="1"/>
        <pt x="203" y="72" on="0"/>
        <pt x="243" y="86" on="0"/>
        <pt x="256" y="93" on="1"/>
        <pt x="264" y="17" on="1"/>
        <pt x="216" y="-11" on="0"/>
      </contour>
      <contour>
        <pt x="239" y="261" on="1"/>
        <pt x="243" y="275" on="0"/>
        <pt x="247" y="315" on="0"/>
        <pt x="247" y="331" on="1"/>
        <pt x="247" y="354" on="0"/>
        <pt x="232" y="390" on="0"/>
        <pt x="211" y="390" on="1"/>
        <pt x="196" y="390" on="0"/>
        <pt x="168" y="369" on="0"/>
        <pt x="146" y="333" on="0"/>
        <pt x="128" y="286" on="0"/>
        <pt x="122" y="261" on="1"/>
      </contour>
    </TTGlyph>
    <TTGlyph name="eacute" xMin="19" yMin="-11" xMax="377" yMax="662">
      <component glyphName="acute" x="38" y="2" flags="0x4"/>
      <component glyphName="e" x="0" y="0" flags="0x4"/>
    </TTGlyph>
    <TTGlyph name="ebreve" xMin="19" yMin="-11" xMax="365" yMax="622">
      <component glyphName="e" x="0" y="0" flags="0x204"/>
      <component glyphName="breve" x="-15" y="2" flags="0x4"/>
    </TTGlyph>
    <TTGlyph name="ecaron" xMin="19" yMin="-11" xMax="383" yMax="640">
      <component glyphName="caron" x="-15" y="2" flags="0x4"/>
      <component glyphName="e" x="0" y="0" flags="0x4"/>
    </TTGlyph>
    <TTGlyph name="ecircumflex" xMin="19" yMin="-11" xMax="355" yMax="645">
      <component glyphName="circumflex" x="-22" y="2" flags="0x4"/>
      <component glyphName="e" x="0" y="0" flags="0x4"/>
    </TTGlyph>
    <TTGlyph name="edieresis" xMin="19" yMin="-11" xMax="361" yMax="610">
      <component glyphName="dieresis" x="-16" y="2" flags="0x4"/>
      <component glyphName="e" x="0" y="0" flags="0x4"/>
    </TTGlyph>
    <TTGlyph name="edotaccent" xMin="19" yMin="-11" xMax="332" yMax="610">
      <component glyphName="e" x="0" y="0" flags="0x204"/>
      <component glyphName="dotaccent" x="-16" y="2" flags="0x4"/>
    </TTGlyph>
    <TTGlyph name="egrave" xMin="19" yMin="-11" xMax="332" yMax="668">
      <component glyphName="e" x="0" y="0" flags="0x204"/>
      <component glyphName="grave" x="-74" y="2" flags="0x4"/>
    </TTGlyph>
    <TTGlyph name="eight" xMin="21" yMin="-12" xMax="416" yMax="732">
      <contour>
        <pt x="416" y="568" on="1"/>
        <pt x="416" y="505" on="0"/>
        <pt x="360" y="392" on="0"/>
        <pt x="303" y="362" on="1"/>
        <pt x="337" y="338" on="0"/>
        <pt x="369" y="267" on="0"/>
        <pt x="369" y="222" on="1"/>
        <pt x="369" y="178" on="0"/>
        <pt x="339" y="94" on="0"/>
        <pt x="287" y="28" on="0"/>
        <pt x="215" y="-12" on="0"/>
        <pt x="172" y="-12" on="1"/>
        <pt x="136" y="-12" on="0"/>
        <pt x="79" y="14" on="0"/>
        <pt x="41" y="59" on="0"/>
        <pt x="21" y="119" on="0"/>
        <pt x="21" y="153" on="1"/>
        <pt x="21" y="186" on="0"/>
        <pt x="35" y="251" on="0"/>
        <pt x="64" y="308" on="0"/>
        <pt x="109" y="355" on="0"/>
        <pt x="141" y="370" on="1"/>
        <pt x="84" y="421" on="0"/>
        <pt x="84" y="507" on="1"/>
        <pt x="84" y="552" on="0"/>
        <pt x="111" y="633" on="0"/>
        <pt x="159" y="695" on="0"/>
        <pt x="228" y="732" on="0"/>
        <pt x="270" y="732" on="1"/>
        <pt x="304" y="732" on="0"/>
        <pt x="359" y="706" on="0"/>
        <pt x="396" y="662" on="0"/>
        <pt x="416" y="602" on="0"/>
      </contour>
      <contour>
        <pt x="318" y="564" on="1"/>
        <pt x="318" y="602" on="0"/>
        <pt x="292" y="646" on="0"/>
        <pt x="267" y="646" on="1"/>
        <pt x="247" y="646" on="0"/>
        <pt x="216" y="618" on="0"/>
        <pt x="193" y="572" on="0"/>
        <pt x="181" y="515" on="0"/>
        <pt x="181" y="487" on="1"/>
        <pt x="181" y="450" on="0"/>
        <pt x="208" y="406" on="0"/>
        <pt x="233" y="406" on="1"/>
        <pt x="252" y="406" on="0"/>
        <pt x="284" y="434" on="0"/>
        <pt x="306" y="479" on="0"/>
        <pt x="318" y="535" on="0"/>
      </contour>
      <contour>
        <pt x="268" y="238" on="1"/>
        <pt x="268" y="278" on="0"/>
        <pt x="238" y="321" on="0"/>
        <pt x="213" y="321" on="1"/>
        <pt x="192" y="321" on="0"/>
        <pt x="158" y="292" on="0"/>
        <pt x="134" y="245" on="0"/>
        <pt x="122" y="187" on="0"/>
        <pt x="122" y="158" on="1"/>
        <pt x="122" y="118" on="0"/>
        <pt x="152" y="75" on="0"/>
        <pt x="177" y="75" on="1"/>
        <pt x="198" y="75" on="0"/>
        <pt x="232" y="104" on="0"/>
        <pt x="256" y="151" on="0"/>
        <pt x="268" y="209" on="0"/>
      </contour>
    </TTGlyph>
    <TTGlyph name="eight.lin" xMin="21" yMin="-12" xMax="416" yMax="732">
      <contour>
        <pt x="172" y="-12" on="1"/>
        <pt x="136" y="-12" on="0"/>
        <pt x="79" y="14" on="0"/>
        <pt x="41" y="59" on="0"/>
        <pt x="21" y="119" on="0"/>
        <pt x="21" y="153" on="1"/>
        <pt x="21" y="186" on="0"/>
        <pt x="35" y="251" on="0"/>
        <pt x="64" y="308" on="0"/>
        <pt x="109" y="355" on="0"/>
        <pt x="141" y="370" on="1"/>
        <pt x="84" y="421" on="0"/>
        <pt x="84" y="507" on="1"/>
        <pt x="84" y="552" on="0"/>
        <pt x="111" y="633" on="0"/>
        <pt x="159" y="695" on="0"/>
        <pt x="228" y="732" on="0"/>
        <pt x="270" y="732" on="1"/>
        <pt x="304" y="732" on="0"/>
        <pt x="359" y="706" on="0"/>
        <pt x="396" y="662" on="0"/>
        <pt x="416" y="602" on="0"/>
        <pt x="416" y="568" on="1"/>
        <pt x="416" y="505" on="0"/>
        <pt x="360" y="392" on="0"/>
        <pt x="303" y="362" on="1"/>
        <pt x="337" y="338" on="0"/>
        <pt x="369" y="267" on="0"/>
        <pt x="369" y="222" on="1"/>
        <pt x="369" y="178" on="0"/>
        <pt x="339" y="94" on="0"/>
        <pt x="287" y="28" on="0"/>
        <pt x="215" y="-12" on="0"/>
      </contour>
      <contour>
        <pt x="268" y="238" on="1"/>
        <pt x="268" y="278" on="0"/>
        <pt x="238" y="321" on="0"/>
        <pt x="213" y="321" on="1"/>
        <pt x="192" y="321" on="0"/>
        <pt x="158" y="292" on="0"/>
        <pt x="134" y="245" on="0"/>
        <pt x="122" y="187" on="0"/>
        <pt x="122" y="158" on="1"/>
        <pt x="122" y="118" on="0"/>
        <pt x="152" y="75" on="0"/>
        <pt x="177" y="75" on="1"/>
        <pt x="198" y="75" on="0"/>
        <pt x="232" y="104" on="0"/>
        <pt x="256" y="151" on="0"/>
        <pt x="268" y="209" on="0"/>
      </contour>
      <contour>
        <pt x="318" y="564" on="1"/>
        <pt x="318" y="602" on="0"/>
        <pt x="292" y="646" on="0"/>
        <pt x="267" y="646" on="1"/>
        <pt x="247" y="646" on="0"/>
        <pt x="216" y="618" on="0"/>
        <pt x="193" y="572" on="0"/>
        <pt x="181" y="515" on="0"/>
        <pt x="181" y="487" on="1"/>
        <pt x="181" y="450" on="0"/>
        <pt x="208" y="406" on="0"/>
        <pt x="233" y="406" on="1"/>
        <pt x="252" y="406" on="0"/>
        <pt x="284" y="434" on="0"/>
        <pt x="306" y="479" on="0"/>
        <pt x="318" y="535" on="0"/>
      </contour>
    </TTGlyph>
    <TTGlyph name="ellipsis" xMin="2" yMin="-11" xMax="477" yMax="111">
      <contour>
        <pt x="121" y="55" on="1"/>
        <pt x="121" y="28" on="0"/>
        <pt x="83" y="-11" on="0"/>
        <pt x="57" y="-11" on="1"/>
        <pt x="31" y="-11" on="0"/>
        <pt x="2" y="21" on="0"/>
        <pt x="2" y="45" on="1"/>
        <pt x="2" y="72" on="0"/>
        <pt x="40" y="111" on="0"/>
        <pt x="65" y="111" on="1"/>
        <pt x="91" y="111" on="0"/>
        <pt x="121" y="80" on="0"/>
      </contour>
      <contour>
        <pt x="299" y="55" on="1"/>
        <pt x="299" y="28" on="0"/>
        <pt x="261" y="-11" on="0"/>
        <pt x="235" y="-11" on="1"/>
        <pt x="209" y="-11" on="0"/>
        <pt x="180" y="21" on="0"/>
        <pt x="180" y="45" on="1"/>
        <pt x="180" y="72" on="0"/>
        <pt x="218" y="111" on="0"/>
        <pt x="243" y="111" on="1"/>
        <pt x="269" y="111" on="0"/>
        <pt x="299" y="80" on="0"/>
      </contour>
      <contour>
        <pt x="477" y="55" on="1"/>
        <pt x="477" y="28" on="0"/>
        <pt x="439" y="-11" on="0"/>
        <pt x="413" y="-11" on="1"/>
        <pt x="387" y="-11" on="0"/>
        <pt x="358" y="21" on="0"/>
        <pt x="358" y="45" on="1"/>
        <pt x="358" y="72" on="0"/>
        <pt x="396" y="111" on="0"/>
        <pt x="421" y="111" on="1"/>
        <pt x="447" y="111" on="0"/>
        <pt x="477" y="80" on="0"/>
      </contour>
    </TTGlyph>
    <TTGlyph name="emacron" xMin="19" yMin="-11" xMax="356" yMax="577">
      <component glyphName="e" x="0" y="0" flags="0x204"/>
      <component glyphName="macron" x="-16" y="2" flags="0x4"/>
    </TTGlyph>
    <TTGlyph name="emdash" xMin="31" yMin="233" xMax="434" yMax="306">
      <contour>
        <pt x="421" y="233" on="1"/>
        <pt x="31" y="233" on="1"/>
        <pt x="44" y="306" on="1"/>
        <pt x="434" y="306" on="1"/>
      </contour>
    </TTGlyph>
    <TTGlyph name="emdash.cap" xMin="49" yMin="334" xMax="452" yMax="407">
      <component glyphName="emdash" x="18" y="101" flags="0x204"/>
    </TTGlyph>
    <TTGlyph name="endash" xMin="31" yMin="233" xMax="284" yMax="306">
      <contour>
        <pt x="271" y="233" on="1"/>
        <pt x="31" y="233" on="1"/>
        <pt x="44" y="306" on="1"/>
        <pt x="284" y="306" on="1"/>
      </contour>
    </TTGlyph>
    <TTGlyph name="endash.cap" xMin="49" yMin="334" xMax="302" yMax="407">
      <component glyphName="endash" x="18" y="101" flags="0x204"/>
    </TTGlyph>
    <TTGlyph name="eogonek" xMin="19" yMin="-193" xMax="332" yMax="471">
      <contour>
        <pt x="167" y="-11" on="1"/>
        <pt x="103" y="-11" on="0"/>
        <pt x="19" y="75" on="0"/>
        <pt x="19" y="161" on="1"/>
        <pt x="19" y="214" on="0"/>
        <pt x="47" y="324" on="0"/>
        <pt x="98" y="414" on="0"/>
        <pt x="172" y="471" on="0"/>
        <pt x="217" y="471" on="1"/>
        <pt x="276" y="471" on="0"/>
        <pt x="332" y="390" on="0"/>
        <pt x="332" y="321" on="1"/>
        <pt x="332" y="295" on="0"/>
        <pt x="320" y="230" on="0"/>
        <pt x="310" y="198" on="1"/>
        <pt x="111" y="198" on="1"/>
        <pt x="110" y="190" on="0"/>
        <pt x="109" y="172" on="0"/>
        <pt x="109" y="162" on="1"/>
        <pt x="109" y="120" on="0"/>
        <pt x="147" y="72" on="0"/>
        <pt x="183" y="72" on="1"/>
        <pt x="203" y="72" on="0"/>
        <pt x="243" y="86" on="0"/>
        <pt x="256" y="93" on="1"/>
        <pt x="264" y="17" on="1"/>
        <pt x="229" y="-12" on="0"/>
        <pt x="176" y="-78" on="0"/>
        <pt x="176" y="-108" on="1"/>
        <pt x="176" y="-135" on="0"/>
        <pt x="202" y="-135" on="1"/>
        <pt x="210" y="-135" on="0"/>
        <pt x="230" y="-128" on="0"/>
        <pt x="237" y="-123" on="1"/>
        <pt x="249" y="-164" on="1"/>
        <pt x="233" y="-177" on="0"/>
        <pt x="195" y="-193" on="0"/>
        <pt x="170" y="-193" on="1"/>
        <pt x="140" y="-193" on="0"/>
        <pt x="107" y="-159" on="0"/>
        <pt x="107" y="-132" on="1"/>
        <pt x="107" y="-98" on="0"/>
        <pt x="142" y="-39" on="0"/>
        <pt x="171" y="-11" on="1"/>
      </contour>
      <contour>
        <pt x="239" y="261" on="1"/>
        <pt x="243" y="275" on="0"/>
        <pt x="247" y="315" on="0"/>
        <pt x="247" y="331" on="1"/>
        <pt x="247" y="354" on="0"/>
        <pt x="232" y="390" on="0"/>
        <pt x="211" y="390" on="1"/>
        <pt x="196" y="390" on="0"/>
        <pt x="168" y="369" on="0"/>
        <pt x="146" y="333" on="0"/>
        <pt x="128" y="286" on="0"/>
        <pt x="122" y="261" on="1"/>
      </contour>
    </TTGlyph>
    <TTGlyph name="equal" xMin="40" yMin="253" xMax="292" yMax="490">
      <contour>
        <pt x="250" y="253" on="1"/>
        <pt x="40" y="253" on="1"/>
        <pt x="53" y="327" on="1"/>
        <pt x="263" y="327" on="1"/>
      </contour>
      <contour>
        <pt x="279" y="416" on="1"/>
        <pt x="69" y="416" on="1"/>
        <pt x="82" y="490" on="1"/>
        <pt x="292" y="490" on="1"/>
      </contour>
    </TTGlyph>
    <TTGlyph name="equal.lin" xMin="40" yMin="253" xMax="292" yMax="490">
      <component glyphName="equal" x="0" y="0" flags="0x204"/>
    </TTGlyph>
    <TTGlyph name="eth" xMin="15" yMin="-10" xMax="350" yMax="741">
      <contour>
        <pt x="282" y="621" on="1"/>
        <pt x="306" y="572" on="0"/>
        <pt x="341" y="445" on="0"/>
        <pt x="341" y="367" on="1"/>
        <pt x="341" y="293" on="0"/>
        <pt x="315" y="157" on="0"/>
        <pt x="265" y="53" on="0"/>
        <pt x="192" y="-10" on="0"/>
        <pt x="145" y="-10" on="1"/>
        <pt x="82" y="-10" on="0"/>
        <pt x="15" y="85" on="0"/>
        <pt x="15" y="168" on="1"/>
        <pt x="15" y="228" on="0"/>
        <pt x="42" y="333" on="0"/>
        <pt x="89" y="410" on="0"/>
        <pt x="150" y="455" on="0"/>
        <pt x="183" y="455" on="1"/>
        <pt x="205" y="455" on="0"/>
        <pt x="243" y="430" on="0"/>
        <pt x="254" y="407" on="1"/>
        <pt x="249" y="454" on="0"/>
        <pt x="223" y="534" on="0"/>
        <pt x="206" y="568" on="1"/>
        <pt x="139" y="521" on="1"/>
        <pt x="102" y="577" on="1"/>
        <pt x="174" y="627" on="1"/>
        <pt x="163" y="644" on="0"/>
        <pt x="142" y="673" on="0"/>
        <pt x="134" y="684" on="1"/>
        <pt x="204" y="741" on="1"/>
        <pt x="213" y="730" on="0"/>
        <pt x="236" y="699" on="0"/>
        <pt x="249" y="680" on="1"/>
        <pt x="313" y="725" on="1"/>
        <pt x="350" y="669" on="1"/>
      </contour>
      <contour>
        <pt x="242" y="297" on="1"/>
        <pt x="242" y="334" on="0"/>
        <pt x="220" y="381" on="0"/>
        <pt x="196" y="381" on="1"/>
        <pt x="173" y="381" on="0"/>
        <pt x="139" y="332" on="0"/>
        <pt x="116" y="261" on="0"/>
        <pt x="104" y="182" on="0"/>
        <pt x="104" y="152" on="1"/>
        <pt x="104" y="116" on="0"/>
        <pt x="124" y="71" on="0"/>
        <pt x="148" y="71" on="1"/>
        <pt x="171" y="71" on="0"/>
        <pt x="206" y="121" on="0"/>
        <pt x="230" y="192" on="0"/>
        <pt x="242" y="270" on="0"/>
      </contour>
    </TTGlyph>
    <TTGlyph name="exclam" xMin="3" yMin="-11" xMax="233" yMax="733">
      <contour>
        <pt x="116" y="200" on="1"/>
        <pt x="55" y="200" on="1"/>
        <pt x="126" y="733" on="1"/>
        <pt x="233" y="733" on="1"/>
      </contour>
      <contour>
        <pt x="122" y="55" on="1"/>
        <pt x="122" y="28" on="0"/>
        <pt x="84" y="-11" on="0"/>
        <pt x="58" y="-11" on="1"/>
        <pt x="32" y="-11" on="0"/>
        <pt x="3" y="21" on="0"/>
        <pt x="3" y="45" on="1"/>
        <pt x="3" y="72" on="0"/>
        <pt x="41" y="111" on="0"/>
        <pt x="66" y="111" on="1"/>
        <pt x="92" y="111" on="0"/>
        <pt x="122" y="80" on="0"/>
      </contour>
    </TTGlyph>
    <TTGlyph name="exclamdown" xMin="-2" yMin="0" xMax="228" yMax="744">
      <contour>
        <pt x="228" y="688" on="1"/>
        <pt x="228" y="661" on="0"/>
        <pt x="190" y="622" on="0"/>
        <pt x="165" y="622" on="1"/>
        <pt x="139" y="622" on="0"/>
        <pt x="109" y="654" on="0"/>
        <pt x="109" y="678" on="1"/>
        <pt x="109" y="705" on="0"/>
        <pt x="147" y="744" on="0"/>
        <pt x="173" y="744" on="1"/>
        <pt x="199" y="744" on="0"/>
        <pt x="228" y="713" on="0"/>
      </contour>
      <contour>
        <pt x="105" y="0" on="1"/>
        <pt x="-2" y="0" on="1"/>
        <pt x="115" y="534" on="1"/>
        <pt x="176" y="534" on="1"/>
      </contour>
    </TTGlyph>
    <TTGlyph name="f" xMin="-11" yMin="-186" xMax="337" yMax="740">
      <contour>
        <pt x="310" y="641" on="1"/>
        <pt x="302" y="646" on="0"/>
        <pt x="280" y="652" on="0"/>
        <pt x="272" y="652" on="1"/>
        <pt x="252" y="652" on="0"/>
        <pt x="226" y="627" on="0"/>
        <pt x="219" y="589" on="1"/>
        <pt x="196" y="460" on="1"/>
        <pt x="268" y="460" on="1"/>
        <pt x="253" y="376" on="1"/>
        <pt x="181" y="376" on="1"/>
        <pt x="82" y="-186" on="1"/>
        <pt x="-11" y="-186" on="1"/>
        <pt x="88" y="376" on="1"/>
        <pt x="35" y="376" on="1"/>
        <pt x="44" y="425" on="1"/>
        <pt x="104" y="464" on="1"/>
        <pt x="128" y="600" on="1"/>
        <pt x="141" y="677" on="0"/>
        <pt x="208" y="740" on="0"/>
        <pt x="260" y="740" on="1"/>
        <pt x="283" y="740" on="0"/>
        <pt x="323" y="729" on="0"/>
        <pt x="337" y="722" on="1"/>
      </contour>
    </TTGlyph>
    <TTGlyph name="f_f" xMin="-9" yMin="-186" xMax="531" yMax="740">
      <contour>
        <pt x="304" y="643" on="1"/>
        <pt x="297" y="646" on="0"/>
        <pt x="278" y="652" on="0"/>
        <pt x="269" y="652" on="1"/>
        <pt x="252" y="652" on="0"/>
        <pt x="227" y="626" on="0"/>
        <pt x="222" y="594" on="1"/>
        <pt x="198" y="460" on="1"/>
        <pt x="290" y="460" on="1"/>
        <pt x="290" y="459" on="1"/>
        <pt x="297" y="461" on="1"/>
        <pt x="321" y="597" on="1"/>
        <pt x="334" y="672" on="0"/>
        <pt x="398" y="740" on="0"/>
        <pt x="455" y="740" on="1"/>
        <pt x="476" y="740" on="0"/>
        <pt x="517" y="729" on="0"/>
        <pt x="531" y="722" on="1"/>
        <pt x="504" y="641" on="1"/>
        <pt x="496" y="645" on="0"/>
        <pt x="473" y="652" on="0"/>
        <pt x="463" y="652" on="1"/>
        <pt x="444" y="652" on="0"/>
        <pt x="419" y="626" on="0"/>
        <pt x="414" y="594" on="1"/>
        <pt x="390" y="460" on="1"/>
        <pt x="462" y="460" on="1"/>
        <pt x="447" y="376" on="1"/>
        <pt x="375" y="376" on="1"/>
        <pt x="276" y="-186" on="1"/>
        <pt x="183" y="-186" on="1"/>
        <pt x="282" y="376" on="1"/>
        <pt x="183" y="376" on="1"/>
        <pt x="84" y="-186" on="1"/>
        <pt x="-9" y="-186" on="1"/>
        <pt x="90" y="376" on="1"/>
        <pt x="37" y="376" on="1"/>
        <pt x="46" y="425" on="1"/>
        <pt x="106" y="464" on="1"/>
        <pt x="129" y="597" on="1"/>
        <pt x="142" y="672" on="0"/>
        <pt x="206" y="740" on="0"/>
        <pt x="263" y="740" on="1"/>
        <pt x="278" y="740" on="0"/>
        <pt x="315" y="732" on="0"/>
        <pt x="327" y="725" on="1"/>
      </contour>
    </TTGlyph>
    <TTGlyph name="f_f_i" xMin="-9" yMin="-186" xMax="629" yMax="740">
      <contour>
        <pt x="496" y="643" on="1"/>
        <pt x="489" y="646" on="0"/>
        <pt x="470" y="652" on="0"/>
        <pt x="461" y="652" on="1"/>
        <pt x="444" y="652" on="0"/>
        <pt x="419" y="626" on="0"/>
        <pt x="414" y="594" on="1"/>
        <pt x="390" y="460" on="1"/>
        <pt x="458" y="460" on="1"/>
        <pt x="444" y="376" on="1"/>
        <pt x="375" y="376" on="1"/>
        <pt x="276" y="-186" on="1"/>
        <pt x="183" y="-186" on="1"/>
        <pt x="282" y="376" on="1"/>
        <pt x="183" y="376" on="1"/>
        <pt x="84" y="-186" on="1"/>
        <pt x="-9" y="-186" on="1"/>
        <pt x="90" y="376" on="1"/>
        <pt x="37" y="376" on="1"/>
        <pt x="46" y="425" on="1"/>
        <pt x="106" y="464" on="1"/>
        <pt x="129" y="597" on="1"/>
        <pt x="142" y="672" on="0"/>
        <pt x="206" y="740" on="0"/>
        <pt x="263" y="740" on="1"/>
        <pt x="278" y="740" on="0"/>
        <pt x="315" y="732" on="0"/>
        <pt x="327" y="725" on="1"/>
        <pt x="304" y="643" on="1"/>
        <pt x="297" y="646" on="0"/>
        <pt x="278" y="652" on="0"/>
        <pt x="269" y="652" on="1"/>
        <pt x="252" y="652" on="0"/>
        <pt x="227" y="626" on="0"/>
        <pt x="222" y="594" on="1"/>
        <pt x="198" y="460" on="1"/>
        <pt x="290" y="460" on="1"/>
        <pt x="290" y="459" on="1"/>
        <pt x="297" y="461" on="1"/>
        <pt x="321" y="597" on="1"/>
        <pt x="334" y="672" on="0"/>
        <pt x="398" y="740" on="0"/>
        <pt x="455" y="740" on="1"/>
        <pt x="470" y="740" on="0"/>
        <pt x="507" y="732" on="0"/>
        <pt x="519" y="725" on="1"/>
      </contour>
      <contour>
        <pt x="516" y="0" on="1"/>
        <pt x="420" y="0" on="1"/>
        <pt x="501" y="460" on="1"/>
        <pt x="597" y="460" on="1"/>
      </contour>
      <contour>
        <pt x="629" y="599" on="1"/>
        <pt x="629" y="569" on="0"/>
        <pt x="592" y="528" on="0"/>
        <pt x="565" y="528" on="1"/>
        <pt x="539" y="528" on="0"/>
        <pt x="512" y="562" on="0"/>
        <pt x="512" y="585" on="1"/>
        <pt x="512" y="615" on="0"/>
        <pt x="549" y="656" on="0"/>
        <pt x="576" y="656" on="1"/>
        <pt x="602" y="656" on="0"/>
        <pt x="629" y="622" on="0"/>
      </contour>
    </TTGlyph>
    <TTGlyph name="f_f_l" xMin="-9" yMin="-186" xMax="643" yMax="740">
      <contour>
        <pt x="496" y="643" on="1"/>
        <pt x="489" y="646" on="0"/>
        <pt x="470" y="652" on="0"/>
        <pt x="461" y="652" on="1"/>
        <pt x="444" y="652" on="0"/>
        <pt x="419" y="626" on="0"/>
        <pt x="414" y="594" on="1"/>
        <pt x="390" y="460" on="1"/>
        <pt x="458" y="460" on="1"/>
        <pt x="444" y="376" on="1"/>
        <pt x="375" y="376" on="1"/>
        <pt x="276" y="-186" on="1"/>
        <pt x="183" y="-186" on="1"/>
        <pt x="282" y="376" on="1"/>
        <pt x="183" y="376" on="1"/>
        <pt x="84" y="-186" on="1"/>
        <pt x="-9" y="-186" on="1"/>
        <pt x="90" y="376" on="1"/>
        <pt x="37" y="376" on="1"/>
        <pt x="46" y="425" on="1"/>
        <pt x="106" y="464" on="1"/>
        <pt x="129" y="597" on="1"/>
        <pt x="142" y="672" on="0"/>
        <pt x="206" y="740" on="0"/>
        <pt x="263" y="740" on="1"/>
        <pt x="278" y="740" on="0"/>
        <pt x="315" y="732" on="0"/>
        <pt x="327" y="725" on="1"/>
        <pt x="304" y="643" on="1"/>
        <pt x="297" y="646" on="0"/>
        <pt x="278" y="652" on="0"/>
        <pt x="269" y="652" on="1"/>
        <pt x="252" y="652" on="0"/>
        <pt x="227" y="626" on="0"/>
        <pt x="222" y="594" on="1"/>
        <pt x="198" y="460" on="1"/>
        <pt x="290" y="460" on="1"/>
        <pt x="290" y="459" on="1"/>
        <pt x="297" y="461" on="1"/>
        <pt x="321" y="597" on="1"/>
        <pt x="334" y="672" on="0"/>
        <pt x="398" y="740" on="0"/>
        <pt x="455" y="740" on="1"/>
        <pt x="470" y="740" on="0"/>
        <pt x="507" y="732" on="0"/>
        <pt x="519" y="725" on="1"/>
      </contour>
      <contour>
        <pt x="513" y="0" on="1"/>
        <pt x="417" y="0" on="1"/>
        <pt x="547" y="733" on="1"/>
        <pt x="643" y="733" on="1"/>
      </contour>
    </TTGlyph>
    <TTGlyph name="fi" xMin="-9" yMin="-186" xMax="436" yMax="740">
      <contour>
        <pt x="302" y="644" on="1"/>
        <pt x="297" y="646" on="0"/>
        <pt x="278" y="652" on="0"/>
        <pt x="270" y="652" on="1"/>
        <pt x="252" y="652" on="0"/>
        <pt x="228" y="627" on="0"/>
        <pt x="222" y="592" on="1"/>
        <pt x="198" y="460" on="1"/>
        <pt x="265" y="460" on="1"/>
        <pt x="250" y="376" on="1"/>
        <pt x="183" y="376" on="1"/>
        <pt x="84" y="-186" on="1"/>
        <pt x="-9" y="-186" on="1"/>
        <pt x="90" y="376" on="1"/>
        <pt x="37" y="376" on="1"/>
        <pt x="46" y="425" on="1"/>
        <pt x="106" y="464" on="1"/>
        <pt x="130" y="600" on="1"/>
        <pt x="143" y="677" on="0"/>
        <pt x="210" y="740" on="0"/>
        <pt x="262" y="740" on="1"/>
        <pt x="279" y="740" on="0"/>
        <pt x="316" y="731" on="0"/>
        <pt x="328" y="724" on="1"/>
      </contour>
      <contour>
        <pt x="323" y="0" on="1"/>
        <pt x="227" y="0" on="1"/>
        <pt x="308" y="460" on="1"/>
        <pt x="404" y="460" on="1"/>
      </contour>
      <contour>
        <pt x="436" y="599" on="1"/>
        <pt x="436" y="569" on="0"/>
        <pt x="399" y="528" on="0"/>
        <pt x="372" y="528" on="1"/>
        <pt x="346" y="528" on="0"/>
        <pt x="319" y="562" on="0"/>
        <pt x="319" y="585" on="1"/>
        <pt x="319" y="615" on="0"/>
        <pt x="356" y="656" on="0"/>
        <pt x="383" y="656" on="1"/>
        <pt x="409" y="656" on="0"/>
        <pt x="436" y="622" on="0"/>
      </contour>
    </TTGlyph>
    <TTGlyph name="five" xMin="1" yMin="-11" xMax="402" yMax="721">
      <contour>
        <pt x="385" y="625" on="1"/>
        <pt x="216" y="625" on="1"/>
        <pt x="183" y="447" on="1"/>
        <pt x="188" y="448" on="0"/>
        <pt x="199" y="449" on="0"/>
        <pt x="205" y="449" on="1"/>
        <pt x="268" y="449" on="0"/>
        <pt x="344" y="354" on="0"/>
        <pt x="344" y="274" on="1"/>
        <pt x="344" y="215" on="0"/>
        <pt x="312" y="111" on="0"/>
        <pt x="253" y="34" on="0"/>
        <pt x="171" y="-11" on="0"/>
        <pt x="122" y="-11" on="1"/>
        <pt x="94" y="-11" on="0"/>
        <pt x="32" y="4" on="0"/>
        <pt x="1" y="21" on="1"/>
        <pt x="31" y="110" on="1"/>
        <pt x="76" y="85" on="0"/>
        <pt x="115" y="85" on="1"/>
        <pt x="145" y="85" on="0"/>
        <pt x="190" y="115" on="0"/>
        <pt x="221" y="163" on="0"/>
        <pt x="237" y="226" on="0"/>
        <pt x="237" y="259" on="1"/>
        <pt x="237" y="313" on="0"/>
        <pt x="187" y="362" on="0"/>
        <pt x="142" y="362" on="1"/>
        <pt x="124" y="362" on="0"/>
        <pt x="95" y="358" on="0"/>
        <pt x="79" y="353" on="1"/>
        <pt x="71" y="361" on="1"/>
        <pt x="137" y="721" on="1"/>
        <pt x="402" y="721" on="1"/>
      </contour>
    </TTGlyph>
    <TTGlyph name="five.lin" xMin="1" yMin="-11" xMax="402" yMax="721">
      <contour>
        <pt x="385" y="625" on="1"/>
        <pt x="216" y="625" on="1"/>
        <pt x="183" y="447" on="1"/>
        <pt x="188" y="448" on="0"/>
        <pt x="199" y="449" on="0"/>
        <pt x="205" y="449" on="1"/>
        <pt x="268" y="449" on="0"/>
        <pt x="344" y="354" on="0"/>
        <pt x="344" y="274" on="1"/>
        <pt x="344" y="215" on="0"/>
        <pt x="312" y="111" on="0"/>
        <pt x="253" y="34" on="0"/>
        <pt x="171" y="-11" on="0"/>
        <pt x="122" y="-11" on="1"/>
        <pt x="94" y="-11" on="0"/>
        <pt x="32" y="4" on="0"/>
        <pt x="1" y="21" on="1"/>
        <pt x="31" y="110" on="1"/>
        <pt x="76" y="85" on="0"/>
        <pt x="115" y="85" on="1"/>
        <pt x="145" y="85" on="0"/>
        <pt x="190" y="115" on="0"/>
        <pt x="221" y="163" on="0"/>
        <pt x="237" y="226" on="0"/>
        <pt x="237" y="259" on="1"/>
        <pt x="237" y="313" on="0"/>
        <pt x="187" y="362" on="0"/>
        <pt x="142" y="362" on="1"/>
        <pt x="124" y="362" on="0"/>
        <pt x="95" y="358" on="0"/>
        <pt x="79" y="353" on="1"/>
        <pt x="71" y="361" on="1"/>
        <pt x="137" y="721" on="1"/>
        <pt x="402" y="721" on="1"/>
      </contour>
    </TTGlyph>
    <TTGlyph name="fl" xMin="-9" yMin="-186" xMax="450" yMax="740">
      <contour>
        <pt x="320" y="0" on="1"/>
        <pt x="224" y="0" on="1"/>
        <pt x="354" y="733" on="1"/>
        <pt x="450" y="733" on="1"/>
      </contour>
      <contour>
        <pt x="302" y="644" on="1"/>
        <pt x="297" y="646" on="0"/>
        <pt x="278" y="652" on="0"/>
        <pt x="270" y="652" on="1"/>
        <pt x="252" y="652" on="0"/>
        <pt x="228" y="627" on="0"/>
        <pt x="222" y="592" on="1"/>
        <pt x="198" y="460" on="1"/>
        <pt x="265" y="460" on="1"/>
        <pt x="250" y="376" on="1"/>
        <pt x="183" y="376" on="1"/>
        <pt x="84" y="-186" on="1"/>
        <pt x="-9" y="-186" on="1"/>
        <pt x="90" y="376" on="1"/>
        <pt x="37" y="376" on="1"/>
        <pt x="46" y="425" on="1"/>
        <pt x="106" y="464" on="1"/>
        <pt x="130" y="600" on="1"/>
        <pt x="143" y="677" on="0"/>
        <pt x="210" y="740" on="0"/>
        <pt x="262" y="740" on="1"/>
        <pt x="279" y="740" on="0"/>
        <pt x="316" y="731" on="0"/>
        <pt x="328" y="724" on="1"/>
      </contour>
    </TTGlyph>
    <TTGlyph name="florin" xMin="3" yMin="0" xMax="375" yMax="732">
      <contour>
        <pt x="348" y="629" on="1"/>
        <pt x="340" y="633" on="0"/>
        <pt x="319" y="639" on="0"/>
        <pt x="308" y="639" on="1"/>
        <pt x="285" y="639" on="0"/>
        <pt x="258" y="610" on="0"/>
        <pt x="249" y="575" on="1"/>
        <pt x="220" y="461" on="1"/>
        <pt x="297" y="461" on="1"/>
        <pt x="278" y="375" on="1"/>
        <pt x="198" y="375" on="1"/>
        <pt x="102" y="0" on="1"/>
        <pt x="3" y="0" on="1"/>
        <pt x="99" y="375" on="1"/>
        <pt x="44" y="375" on="1"/>
        <pt x="55" y="427" on="1"/>
        <pt x="122" y="466" on="1"/>
        <pt x="154" y="592" on="1"/>
        <pt x="174" y="669" on="0"/>
        <pt x="245" y="732" on="0"/>
        <pt x="299" y="732" on="1"/>
        <pt x="324" y="732" on="0"/>
        <pt x="367" y="718" on="0"/>
        <pt x="375" y="714" on="1"/>
      </contour>
    </TTGlyph>
    <TTGlyph name="florin.lin" xMin="3" yMin="0" xMax="375" yMax="732">
      <contour>
        <pt x="348" y="629" on="1"/>
        <pt x="340" y="633" on="0"/>
        <pt x="319" y="639" on="0"/>
        <pt x="308" y="639" on="1"/>
        <pt x="285" y="639" on="0"/>
        <pt x="258" y="610" on="0"/>
        <pt x="249" y="575" on="1"/>
        <pt x="220" y="461" on="1"/>
        <pt x="297" y="461" on="1"/>
        <pt x="278" y="375" on="1"/>
        <pt x="198" y="375" on="1"/>
        <pt x="102" y="0" on="1"/>
        <pt x="3" y="0" on="1"/>
        <pt x="99" y="375" on="1"/>
        <pt x="44" y="375" on="1"/>
        <pt x="55" y="427" on="1"/>
        <pt x="122" y="466" on="1"/>
        <pt x="154" y="592" on="1"/>
        <pt x="174" y="669" on="0"/>
        <pt x="245" y="732" on="0"/>
        <pt x="299" y="732" on="1"/>
        <pt x="324" y="732" on="0"/>
        <pt x="367" y="718" on="0"/>
        <pt x="375" y="714" on="1"/>
      </contour>
    </TTGlyph>
    <TTGlyph name="four" xMin="-1" yMin="0" xMax="409" yMax="724">
      <contour>
        <pt x="368" y="169" on="1"/>
        <pt x="311" y="169" on="1"/>
        <pt x="282" y="0" on="1"/>
        <pt x="190" y="0" on="1"/>
        <pt x="219" y="169" on="1"/>
        <pt x="-1" y="169" on="1"/>
        <pt x="12" y="241" on="1"/>
        <pt x="325" y="724" on="1"/>
        <pt x="409" y="724" on="1"/>
        <pt x="328" y="265" on="1"/>
        <pt x="385" y="265" on="1"/>
      </contour>
      <contour>
        <pt x="283" y="523" on="1"/>
        <pt x="117" y="262" on="1"/>
        <pt x="236" y="262" on="1"/>
      </contour>
    </TTGlyph>
    <TTGlyph name="four.lin" xMin="-1" yMin="0" xMax="409" yMax="724">
      <contour>
        <pt x="368" y="169" on="1"/>
        <pt x="311" y="169" on="1"/>
        <pt x="282" y="0" on="1"/>
        <pt x="190" y="0" on="1"/>
        <pt x="219" y="169" on="1"/>
        <pt x="-1" y="169" on="1"/>
        <pt x="12" y="241" on="1"/>
        <pt x="325" y="724" on="1"/>
        <pt x="409" y="724" on="1"/>
        <pt x="328" y="265" on="1"/>
        <pt x="385" y="265" on="1"/>
      </contour>
      <contour>
        <pt x="283" y="523" on="1"/>
        <pt x="117" y="262" on="1"/>
        <pt x="236" y="262" on="1"/>
      </contour>
    </TTGlyph>
    <TTGlyph name="fraction" xMin="-7" yMin="-13" xMax="522" yMax="755">
      <contour>
        <pt x="36" y="-13" on="1"/>
        <pt x="-7" y="15" on="1"/>
        <pt x="481" y="755" on="1"/>
        <pt x="522" y="728" on="1"/>
      </contour>
    </TTGlyph>
    <TTGlyph name="fraction.lin" xMin="-7" yMin="-13" xMax="522" yMax="755">
      <contour>
        <pt x="36" y="-13" on="1"/>
        <pt x="-7" y="15" on="1"/>
        <pt x="481" y="755" on="1"/>
        <pt x="522" y="728" on="1"/>
      </contour>
    </TTGlyph>
    <TTGlyph name="g" xMin="14" yMin="-195" xMax="364" yMax="468">
      <contour>
        <pt x="274" y="-49" on="1"/>
        <pt x="266" y="-94" on="0"/>
        <pt x="239" y="-150" on="0"/>
        <pt x="201" y="-183" on="0"/>
        <pt x="152" y="-195" on="0"/>
        <pt x="123" y="-195" on="1"/>
        <pt x="95" y="-195" on="0"/>
        <pt x="37" y="-180" on="0"/>
        <pt x="14" y="-172" on="1"/>
        <pt x="33" y="-94" on="1"/>
        <pt x="55" y="-102" on="0"/>
        <pt x="99" y="-112" on="0"/>
        <pt x="116" y="-112" on="1"/>
        <pt x="143" y="-112" on="0"/>
        <pt x="173" y="-81" on="0"/>
        <pt x="179" y="-44" on="1"/>
        <pt x="194" y="38" on="1"/>
        <pt x="152" y="-8" on="0"/>
        <pt x="110" y="-8" on="1"/>
        <pt x="67" y="-8" on="0"/>
        <pt x="14" y="67" on="0"/>
        <pt x="14" y="141" on="1"/>
        <pt x="14" y="204" on="0"/>
        <pt x="39" y="321" on="0"/>
        <pt x="84" y="413" on="0"/>
        <pt x="148" y="468" on="0"/>
        <pt x="186" y="468" on="1"/>
        <pt x="233" y="468" on="0"/>
        <pt x="265" y="423" on="1"/>
        <pt x="272" y="460" on="1"/>
        <pt x="364" y="460" on="1"/>
      </contour>
      <contour>
        <pt x="251" y="367" on="1"/>
        <pt x="241" y="378" on="0"/>
        <pt x="221" y="390" on="0"/>
        <pt x="207" y="390" on="1"/>
        <pt x="183" y="390" on="0"/>
        <pt x="146" y="338" on="0"/>
        <pt x="121" y="262" on="0"/>
        <pt x="108" y="176" on="0"/>
        <pt x="108" y="142" on="1"/>
        <pt x="108" y="101" on="0"/>
        <pt x="134" y="72" on="0"/>
        <pt x="151" y="72" on="1"/>
        <pt x="165" y="72" on="0"/>
        <pt x="193" y="89" on="0"/>
        <pt x="205" y="100" on="1"/>
      </contour>
    </TTGlyph>
    <TTGlyph name="gbreve" xMin="14" yMin="-195" xMax="373" yMax="622">
      <component glyphName="g" x="0" y="0" flags="0x204"/>
      <component glyphName="breve" x="-7" y="2" flags="0x4"/>
    </TTGlyph>
    <TTGlyph name="gcommaaccent" xMin="14" yMin="-195" xMax="364" yMax="714">
      <contour>
        <pt x="196" y="566" on="1"/>
        <pt x="196" y="588" on="0"/>
        <pt x="219" y="634" on="0"/>
        <pt x="255" y="674" on="0"/>
        <pt x="299" y="706" on="0"/>
        <pt x="320" y="714" on="1"/>
        <pt x="330" y="698" on="1"/>
        <pt x="293" y="672" on="0"/>
        <pt x="265" y="630" on="0"/>
        <pt x="259" y="613" on="1"/>
        <pt x="281" y="611" on="0"/>
        <pt x="305" y="584" on="0"/>
        <pt x="305" y="565" on="1"/>
        <pt x="305" y="541" on="0"/>
        <pt x="272" y="506" on="0"/>
        <pt x="249" y="506" on="1"/>
        <pt x="226" y="506" on="0"/>
        <pt x="196" y="537" on="0"/>
      </contour>
      <contour>
        <pt x="274" y="-49" on="1"/>
        <pt x="266" y="-94" on="0"/>
        <pt x="239" y="-150" on="0"/>
        <pt x="201" y="-183" on="0"/>
        <pt x="152" y="-195" on="0"/>
        <pt x="123" y="-195" on="1"/>
        <pt x="95" y="-195" on="0"/>
        <pt x="37" y="-180" on="0"/>
        <pt x="14" y="-172" on="1"/>
        <pt x="33" y="-94" on="1"/>
        <pt x="55" y="-102" on="0"/>
        <pt x="99" y="-112" on="0"/>
        <pt x="116" y="-112" on="1"/>
        <pt x="143" y="-112" on="0"/>
        <pt x="173" y="-81" on="0"/>
        <pt x="179" y="-44" on="1"/>
        <pt x="194" y="38" on="1"/>
        <pt x="152" y="-8" on="0"/>
        <pt x="110" y="-8" on="1"/>
        <pt x="67" y="-8" on="0"/>
        <pt x="14" y="67" on="0"/>
        <pt x="14" y="141" on="1"/>
        <pt x="14" y="204" on="0"/>
        <pt x="39" y="321" on="0"/>
        <pt x="84" y="413" on="0"/>
        <pt x="148" y="468" on="0"/>
        <pt x="186" y="468" on="1"/>
        <pt x="233" y="468" on="0"/>
        <pt x="265" y="423" on="1"/>
        <pt x="272" y="460" on="1"/>
        <pt x="364" y="460" on="1"/>
      </contour>
      <contour>
        <pt x="251" y="367" on="1"/>
        <pt x="241" y="378" on="0"/>
        <pt x="221" y="390" on="0"/>
        <pt x="207" y="390" on="1"/>
        <pt x="183" y="390" on="0"/>
        <pt x="146" y="338" on="0"/>
        <pt x="121" y="262" on="0"/>
        <pt x="108" y="176" on="0"/>
        <pt x="108" y="142" on="1"/>
        <pt x="108" y="101" on="0"/>
        <pt x="134" y="72" on="0"/>
        <pt x="151" y="72" on="1"/>
        <pt x="165" y="72" on="0"/>
        <pt x="193" y="89" on="0"/>
        <pt x="205" y="100" on="1"/>
      </contour>
    </TTGlyph>
    <TTGlyph name="gdotaccent" xMin="14" yMin="-195" xMax="364" yMax="610">
      <component glyphName="g" x="0" y="0" flags="0x204"/>
      <component glyphName="dotaccent" x="-8" y="2" flags="0x4"/>
    </TTGlyph>
    <TTGlyph name="germandbls" xMin="-6" yMin="-95" xMax="391" yMax="740">
      <contour>
        <pt x="261" y="213" on="1"/>
        <pt x="293" y="195" on="0"/>
        <pt x="322" y="134" on="0"/>
        <pt x="322" y="96" on="1"/>
        <pt x="322" y="53" on="0"/>
        <pt x="296" y="-18" on="0"/>
        <pt x="252" y="-68" on="0"/>
        <pt x="193" y="-95" on="0"/>
        <pt x="160" y="-95" on="1"/>
        <pt x="146" y="-95" on="0"/>
        <pt x="114" y="-90" on="0"/>
        <pt x="103" y="-85" on="1"/>
        <pt x="123" y="-7" on="1"/>
        <pt x="128" y="-9" on="0"/>
        <pt x="144" y="-12" on="0"/>
        <pt x="151" y="-12" on="1"/>
        <pt x="189" y="-12" on="0"/>
        <pt x="229" y="49" on="0"/>
        <pt x="229" y="92" on="1"/>
        <pt x="229" y="127" on="0"/>
        <pt x="195" y="167" on="0"/>
        <pt x="162" y="170" on="1"/>
        <pt x="162" y="171" on="1"/>
        <pt x="160" y="183" on="1"/>
        <pt x="263" y="376" on="1"/>
        <pt x="154" y="376" on="1"/>
        <pt x="88" y="0" on="1"/>
        <pt x="-6" y="0" on="1"/>
        <pt x="100" y="600" on="1"/>
        <pt x="114" y="677" on="0"/>
        <pt x="181" y="740" on="0"/>
        <pt x="233" y="740" on="1"/>
        <pt x="256" y="740" on="0"/>
        <pt x="295" y="729" on="0"/>
        <pt x="309" y="722" on="1"/>
        <pt x="283" y="641" on="1"/>
        <pt x="275" y="646" on="0"/>
        <pt x="253" y="652" on="0"/>
        <pt x="244" y="652" on="1"/>
        <pt x="224" y="652" on="0"/>
        <pt x="199" y="627" on="0"/>
        <pt x="192" y="589" on="1"/>
        <pt x="169" y="460" on="1"/>
        <pt x="387" y="460" on="1"/>
        <pt x="391" y="448" on="1"/>
      </contour>
    </TTGlyph>
    <TTGlyph name="grave" xMin="177" yMin="502" xMax="361" yMax="666">
      <contour>
        <pt x="328" y="502" on="1"/>
        <pt x="177" y="596" on="1"/>
        <pt x="229" y="666" on="1"/>
        <pt x="361" y="542" on="1"/>
      </contour>
    </TTGlyph>
    <TTGlyph name="greater" xMin="14" yMin="125" xMax="271" yMax="610">
      <contour>
        <pt x="65" y="125" on="1"/>
        <pt x="14" y="187" on="1"/>
        <pt x="174" y="364" on="1"/>
        <pt x="77" y="562" on="1"/>
        <pt x="147" y="610" on="1"/>
        <pt x="271" y="358" on="1"/>
      </contour>
    </TTGlyph>
    <TTGlyph name="greater.lin" xMin="14" yMin="125" xMax="271" yMax="610">
      <component glyphName="greater" x="0" y="0" flags="0x204"/>
    </TTGlyph>
    <TTGlyph name="guillemotleft" xMin="23" yMin="60" xMax="339" yMax="387">
      <contour>
        <pt x="246" y="222" on="1"/>
        <pt x="281" y="60" on="1"/>
        <pt x="193" y="60" on="1"/>
        <pt x="159" y="224" on="1"/>
        <pt x="251" y="387" on="1"/>
        <pt x="339" y="387" on="1"/>
      </contour>
      <contour>
        <pt x="109" y="222" on="1"/>
        <pt x="144" y="60" on="1"/>
        <pt x="57" y="60" on="1"/>
        <pt x="23" y="224" on="1"/>
        <pt x="115" y="387" on="1"/>
        <pt x="202" y="387" on="1"/>
      </contour>
    </TTGlyph>
    <TTGlyph name="guillemotleft.cap" xMin="49" yMin="207" xMax="365" yMax="534">
      <component glyphName="guillemotleft" x="26" y="147" flags="0x204"/>
    </TTGlyph>
    <TTGlyph name="guillemotright" xMin="-15" yMin="60" xMax="301" yMax="387">
      <contour>
        <pt x="209" y="60" on="1"/>
        <pt x="122" y="60" on="1"/>
        <pt x="215" y="225" on="1"/>
        <pt x="180" y="387" on="1"/>
        <pt x="267" y="387" on="1"/>
        <pt x="301" y="223" on="1"/>
      </contour>
      <contour>
        <pt x="73" y="60" on="1"/>
        <pt x="-15" y="60" on="1"/>
        <pt x="78" y="225" on="1"/>
        <pt x="43" y="387" on="1"/>
        <pt x="131" y="387" on="1"/>
        <pt x="165" y="223" on="1"/>
      </contour>
    </TTGlyph>
    <TTGlyph name="guillemotright.cap" xMin="11" yMin="207" xMax="327" yMax="534">
      <component glyphName="guillemotright" x="26" y="147" flags="0x204"/>
    </TTGlyph>
    <TTGlyph name="guilsinglleft" xMin="22" yMin="60" xMax="201" yMax="387">
      <contour>
        <pt x="108" y="222" on="1"/>
        <pt x="143" y="60" on="1"/>
        <pt x="56" y="60" on="1"/>
        <pt x="22" y="224" on="1"/>
        <pt x="114" y="387" on="1"/>
        <pt x="201" y="387" on="1"/>
      </contour>
    </TTGlyph>
    <TTGlyph name="guilsinglleft.cap" xMin="47" yMin="207" xMax="226" yMax="534">
      <component glyphName="guilsinglleft" x="25" y="147" flags="0x204"/>
    </TTGlyph>
    <TTGlyph name="guilsinglright" xMin="-10" yMin="60" xMax="170" yMax="387">
      <contour>
        <pt x="78" y="60" on="1"/>
        <pt x="-10" y="60" on="1"/>
        <pt x="84" y="225" on="1"/>
        <pt x="49" y="387" on="1"/>
        <pt x="136" y="387" on="1"/>
        <pt x="170" y="223" on="1"/>
      </contour>
    </TTGlyph>
    <TTGlyph name="guilsinglright.cap" xMin="17" yMin="207" xMax="197" yMax="534">
      <component glyphName="guilsinglright" x="27" y="147" flags="0x204"/>
    </TTGlyph>
    <TTGlyph name="h" xMin="-2" yMin="0" xMax="357" yMax="733">
      <contour>
        <pt x="357" y="389" on="1"/>
        <pt x="357" y="370" on="0"/>
        <pt x="353" y="350" on="1"/>
        <pt x="291" y="0" on="1"/>
        <pt x="195" y="0" on="1"/>
        <pt x="253" y="331" on="1"/>
        <pt x="255" y="342" on="0"/>
        <pt x="256" y="355" on="0"/>
        <pt x="256" y="360" on="1"/>
        <pt x="256" y="371" on="0"/>
        <pt x="243" y="385" on="0"/>
        <pt x="229" y="385" on="1"/>
        <pt x="196" y="385" on="0"/>
        <pt x="155" y="347" on="1"/>
        <pt x="94" y="0" on="1"/>
        <pt x="-2" y="0" on="1"/>
        <pt x="127" y="733" on="1"/>
        <pt x="223" y="733" on="1"/>
        <pt x="164" y="395" on="1"/>
        <pt x="190" y="428" on="0"/>
        <pt x="245" y="470" on="0"/>
        <pt x="280" y="470" on="1"/>
        <pt x="318" y="470" on="0"/>
        <pt x="357" y="426" on="0"/>
      </contour>
    </TTGlyph>
    <TTGlyph name="hbar" xMin="-2" yMin="0" xMax="357" yMax="733">
      <contour>
        <pt x="357" y="389" on="1"/>
        <pt x="357" y="370" on="0"/>
        <pt x="353" y="350" on="1"/>
        <pt x="291" y="0" on="1"/>
        <pt x="195" y="0" on="1"/>
        <pt x="253" y="331" on="1"/>
        <pt x="255" y="342" on="0"/>
        <pt x="256" y="355" on="0"/>
        <pt x="256" y="360" on="1"/>
        <pt x="256" y="371" on="0"/>
        <pt x="243" y="385" on="0"/>
        <pt x="229" y="385" on="1"/>
        <pt x="196" y="385" on="0"/>
        <pt x="155" y="347" on="1"/>
        <pt x="94" y="0" on="1"/>
        <pt x="-2" y="0" on="1"/>
        <pt x="95" y="554" on="1"/>
        <pt x="58" y="554" on="1"/>
        <pt x="73" y="637" on="1"/>
        <pt x="110" y="637" on="1"/>
        <pt x="127" y="733" on="1"/>
        <pt x="223" y="733" on="1"/>
        <pt x="206" y="637" on="1"/>
        <pt x="297" y="637" on="1"/>
        <pt x="282" y="554" on="1"/>
        <pt x="192" y="554" on="1"/>
        <pt x="164" y="395" on="1"/>
        <pt x="190" y="428" on="0"/>
        <pt x="245" y="470" on="0"/>
        <pt x="280" y="470" on="1"/>
        <pt x="318" y="470" on="0"/>
        <pt x="357" y="426" on="0"/>
      </contour>
    </TTGlyph>
    <TTGlyph name="hcoslug" xMin="50" yMin="-100" xMax="644" yMax="700">
      <contour>
        <pt x="273" y="18" on="1"/>
        <pt x="275" y="40" on="0"/>
        <pt x="254" y="40" on="1"/>
        <pt x="245" y="40" on="0"/>
        <pt x="234" y="29" on="0"/>
        <pt x="234" y="19" on="1"/>
        <pt x="235" y="-1" on="0"/>
        <pt x="255" y="-1" on="1"/>
        <pt x="270" y="-1" on="0"/>
        <pt x="273" y="13" on="1"/>
        <pt x="266" y="13" on="1"/>
        <pt x="264" y="6" on="0"/>
        <pt x="257" y="6" on="1"/>
        <pt x="247" y="6" on="0"/>
        <pt x="247" y="18" on="1"/>
      </contour>
      <contour>
        <pt x="254" y="35" on="1"/>
        <pt x="261" y="35" on="0"/>
        <pt x="261" y="23" on="1"/>
        <pt x="247" y="23" on="1"/>
        <pt x="247" y="35" on="0"/>
      </contour>
      <contour>
        <pt x="195" y="78" on="1"/>
        <pt x="187" y="78" on="0"/>
        <pt x="187" y="94" on="1"/>
        <pt x="187" y="109" on="0"/>
        <pt x="195" y="109" on="1"/>
        <pt x="203" y="109" on="0"/>
        <pt x="203" y="94" on="1"/>
        <pt x="203" y="78" on="0"/>
      </contour>
      <contour>
        <pt x="210" y="4" on="1"/>
        <pt x="202" y="4" on="0"/>
        <pt x="202" y="20" on="1"/>
        <pt x="202" y="35" on="0"/>
        <pt x="210" y="35" on="1"/>
        <pt x="218" y="35" on="0"/>
        <pt x="218" y="20" on="1"/>
        <pt x="218" y="4" on="0"/>
      </contour>
      <contour>
        <pt x="210" y="-1" on="1"/>
        <pt x="219" y="-1" on="0"/>
        <pt x="231" y="11" on="0"/>
        <pt x="231" y="20" on="1"/>
        <pt x="231" y="29" on="0"/>
        <pt x="219" y="40" on="0"/>
        <pt x="210" y="40" on="1"/>
        <pt x="201" y="40" on="0"/>
        <pt x="189" y="29" on="0"/>
        <pt x="189" y="20" on="1"/>
        <pt x="189" y="10" on="0"/>
        <pt x="201" y="-1" on="0"/>
      </contour>
      <contour>
        <pt x="546" y="4" on="1"/>
        <pt x="538" y="4" on="0"/>
        <pt x="538" y="20" on="1"/>
        <pt x="538" y="35" on="0"/>
        <pt x="546" y="35" on="1"/>
        <pt x="554" y="35" on="0"/>
        <pt x="554" y="20" on="1"/>
        <pt x="554" y="4" on="0"/>
      </contour>
      <contour>
        <pt x="546" y="-1" on="1"/>
        <pt x="555" y="-1" on="0"/>
        <pt x="567" y="11" on="0"/>
        <pt x="567" y="20" on="1"/>
        <pt x="567" y="29" on="0"/>
        <pt x="555" y="40" on="0"/>
        <pt x="546" y="40" on="1"/>
        <pt x="537" y="40" on="0"/>
        <pt x="525" y="29" on="0"/>
        <pt x="525" y="20" on="1"/>
        <pt x="525" y="10" on="0"/>
        <pt x="537" y="-1" on="0"/>
      </contour>
      <contour>
        <pt x="125" y="74" on="1"/>
        <pt x="155" y="74" on="1"/>
        <pt x="155" y="81" on="1"/>
        <pt x="145" y="81" on="1"/>
        <pt x="145" y="97" on="1"/>
        <pt x="149" y="97" on="1"/>
        <pt x="154" y="97" on="0"/>
        <pt x="155" y="89" on="1"/>
        <pt x="162" y="89" on="1"/>
        <pt x="162" y="112" on="1"/>
        <pt x="155" y="112" on="1"/>
        <pt x="154" y="104" on="0"/>
        <pt x="149" y="104" on="1"/>
        <pt x="145" y="104" on="1"/>
        <pt x="145" y="122" on="1"/>
        <pt x="157" y="122" on="1"/>
        <pt x="162" y="122" on="0"/>
        <pt x="166" y="117" on="0"/>
        <pt x="168" y="109" on="1"/>
        <pt x="176" y="109" on="1"/>
        <pt x="176" y="129" on="1"/>
        <pt x="125" y="129" on="1"/>
        <pt x="125" y="122" on="1"/>
        <pt x="132" y="122" on="1"/>
        <pt x="132" y="81" on="1"/>
        <pt x="125" y="81" on="1"/>
      </contour>
      <contour>
        <pt x="195" y="73" on="1"/>
        <pt x="204" y="73" on="0"/>
        <pt x="216" y="85" on="0"/>
        <pt x="216" y="94" on="1"/>
        <pt x="216" y="103" on="0"/>
        <pt x="204" y="114" on="0"/>
        <pt x="195" y="114" on="1"/>
        <pt x="186" y="114" on="0"/>
        <pt x="174" y="103" on="0"/>
        <pt x="174" y="94" on="1"/>
        <pt x="174" y="84" on="0"/>
        <pt x="186" y="73" on="0"/>
      </contour>
      <contour>
        <pt x="644" y="-100" on="1"/>
        <pt x="50" y="-100" on="1"/>
        <pt x="50" y="700" on="1"/>
        <pt x="644" y="700" on="1"/>
      </contour>
      <contour>
        <pt x="498" y="-1" on="1"/>
        <pt x="520" y="-1" on="0"/>
        <pt x="522" y="22" on="1"/>
        <pt x="514" y="22" on="1"/>
        <pt x="512" y="6" on="0"/>
        <pt x="500" y="6" on="1"/>
        <pt x="484" y="6" on="0"/>
        <pt x="484" y="28" on="1"/>
        <pt x="484" y="50" on="0"/>
        <pt x="498" y="50" on="1"/>
        <pt x="508" y="50" on="0"/>
        <pt x="513" y="34" on="1"/>
        <pt x="521" y="34" on="1"/>
        <pt x="521" y="56" on="1"/>
        <pt x="513" y="56" on="1"/>
        <pt x="512" y="50" on="1"/>
        <pt x="505" y="57" on="0"/>
        <pt x="496" y="57" on="1"/>
        <pt x="485" y="57" on="0"/>
        <pt x="469" y="41" on="0"/>
        <pt x="469" y="27" on="1"/>
        <pt x="469" y="-1" on="0"/>
      </contour>
      <contour>
        <pt x="372" y="80" on="1"/>
        <pt x="364" y="80" on="0"/>
        <pt x="364" y="93" on="1"/>
        <pt x="364" y="106" on="0"/>
        <pt x="372" y="106" on="1"/>
        <pt x="379" y="106" on="0"/>
        <pt x="379" y="93" on="1"/>
        <pt x="379" y="80" on="0"/>
      </contour>
      <contour>
        <pt x="276" y="0" on="1"/>
        <pt x="299" y="0" on="1"/>
        <pt x="299" y="7" on="1"/>
        <pt x="294" y="7" on="1"/>
        <pt x="294" y="32" on="1"/>
        <pt x="308" y="32" on="1"/>
        <pt x="308" y="7" on="1"/>
        <pt x="303" y="7" on="1"/>
        <pt x="303" y="0" on="1"/>
        <pt x="326" y="0" on="1"/>
        <pt x="326" y="7" on="1"/>
        <pt x="320" y="7" on="1"/>
        <pt x="320" y="59" on="1"/>
        <pt x="310" y="57" on="1"/>
        <pt x="306" y="59" on="0"/>
        <pt x="301" y="59" on="1"/>
        <pt x="293" y="59" on="0"/>
        <pt x="282" y="50" on="0"/>
        <pt x="282" y="40" on="1"/>
        <pt x="282" y="39" on="1"/>
        <pt x="275" y="39" on="1"/>
        <pt x="275" y="32" on="1"/>
        <pt x="282" y="32" on="1"/>
        <pt x="282" y="7" on="1"/>
        <pt x="276" y="7" on="1"/>
      </contour>
      <contour>
        <pt x="368" y="0" on="1"/>
        <pt x="394" y="0" on="1"/>
        <pt x="394" y="7" on="1"/>
        <pt x="386" y="7" on="1"/>
        <pt x="386" y="23" on="1"/>
        <pt x="390" y="32" on="0"/>
        <pt x="393" y="32" on="1"/>
        <pt x="393" y="31" on="1"/>
        <pt x="393" y="25" on="0"/>
        <pt x="399" y="25" on="1"/>
        <pt x="406" y="25" on="0"/>
        <pt x="406" y="32" on="1"/>
        <pt x="406" y="40" on="0"/>
        <pt x="398" y="40" on="1"/>
        <pt x="390" y="40" on="0"/>
        <pt x="386" y="29" on="1"/>
        <pt x="386" y="39" on="1"/>
        <pt x="368" y="39" on="1"/>
        <pt x="368" y="32" on="1"/>
        <pt x="374" y="32" on="1"/>
        <pt x="374" y="7" on="1"/>
        <pt x="368" y="7" on="1"/>
      </contour>
      <contour>
        <pt x="352" y="73" on="1"/>
        <pt x="358" y="73" on="1"/>
        <pt x="362" y="81" on="1"/>
        <pt x="367" y="73" on="0"/>
        <pt x="376" y="73" on="1"/>
        <pt x="385" y="73" on="0"/>
        <pt x="392" y="87" on="0"/>
        <pt x="392" y="94" on="1"/>
        <pt x="392" y="114" on="0"/>
        <pt x="377" y="114" on="1"/>
        <pt x="367" y="114" on="0"/>
        <pt x="364" y="105" on="1"/>
        <pt x="364" y="132" on="1"/>
        <pt x="346" y="132" on="1"/>
        <pt x="346" y="125" on="1"/>
        <pt x="352" y="125" on="1"/>
      </contour>
      <contour>
        <pt x="400" y="75" on="1"/>
        <pt x="393" y="75" on="0"/>
        <pt x="393" y="68" on="1"/>
        <pt x="393" y="59" on="0"/>
        <pt x="404" y="59" on="1"/>
        <pt x="416" y="59" on="0"/>
        <pt x="422" y="75" on="1"/>
        <pt x="435" y="106" on="1"/>
        <pt x="440" y="106" on="1"/>
        <pt x="440" y="113" on="1"/>
        <pt x="423" y="113" on="1"/>
        <pt x="423" y="106" on="1"/>
        <pt x="428" y="106" on="1"/>
        <pt x="420" y="86" on="1"/>
        <pt x="411" y="106" on="1"/>
        <pt x="417" y="106" on="1"/>
        <pt x="417" y="113" on="1"/>
        <pt x="392" y="113" on="1"/>
        <pt x="392" y="106" on="1"/>
        <pt x="397" y="106" on="1"/>
        <pt x="399" y="101" on="0"/>
        <pt x="403" y="93" on="1"/>
        <pt x="406" y="87" on="0"/>
        <pt x="411" y="77" on="0"/>
        <pt x="413" y="73" on="1"/>
        <pt x="411" y="65" on="0"/>
        <pt x="405" y="65" on="1"/>
        <pt x="407" y="67" on="0"/>
        <pt x="405" y="75" on="0"/>
      </contour>
      <contour>
        <pt x="247" y="428" on="1"/>
        <pt x="247" y="441" on="0"/>
        <pt x="262" y="457" on="0"/>
        <pt x="274" y="457" on="1"/>
        <pt x="287" y="457" on="0"/>
        <pt x="303" y="436" on="0"/>
        <pt x="303" y="419" on="1"/>
        <pt x="303" y="406" on="0"/>
        <pt x="293" y="382" on="0"/>
        <pt x="285" y="369" on="1"/>
        <pt x="268" y="386" on="0"/>
        <pt x="247" y="411" on="0"/>
      </contour>
      <contour>
        <pt x="302" y="74" on="1"/>
        <pt x="309" y="74" on="1"/>
        <pt x="310" y="78" on="1"/>
        <pt x="312" y="76" on="0"/>
        <pt x="318" y="73" on="0"/>
        <pt x="323" y="73" on="1"/>
        <pt x="337" y="73" on="0"/>
        <pt x="337" y="86" on="1"/>
        <pt x="337" y="92" on="0"/>
        <pt x="329" y="97" on="0"/>
        <pt x="320" y="99" on="0"/>
        <pt x="313" y="101" on="0"/>
        <pt x="313" y="104" on="1"/>
        <pt x="313" y="108" on="0"/>
        <pt x="318" y="108" on="1"/>
        <pt x="323" y="108" on="0"/>
        <pt x="328" y="101" on="1"/>
        <pt x="335" y="101" on="1"/>
        <pt x="335" y="114" on="1"/>
        <pt x="329" y="114" on="1"/>
        <pt x="327" y="109" on="1"/>
        <pt x="324" y="114" on="0"/>
        <pt x="316" y="114" on="1"/>
        <pt x="309" y="114" on="0"/>
        <pt x="302" y="107" on="0"/>
        <pt x="302" y="102" on="1"/>
        <pt x="302" y="96" on="0"/>
        <pt x="309" y="91" on="0"/>
        <pt x="318" y="88" on="0"/>
        <pt x="326" y="86" on="0"/>
        <pt x="326" y="83" on="1"/>
        <pt x="326" y="79" on="0"/>
        <pt x="321" y="79" on="1"/>
        <pt x="315" y="79" on="0"/>
        <pt x="309" y="88" on="1"/>
        <pt x="302" y="88" on="1"/>
      </contour>
      <contour>
        <pt x="261" y="219" on="1"/>
        <pt x="238" y="219" on="0"/>
        <pt x="209" y="250" on="0"/>
        <pt x="209" y="273" on="1"/>
        <pt x="209" y="297" on="0"/>
        <pt x="225" y="313" on="1"/>
        <pt x="239" y="300" on="0"/>
        <pt x="278" y="257" on="0"/>
        <pt x="299" y="231" on="1"/>
        <pt x="284" y="219" on="0"/>
      </contour>
      <contour>
        <pt x="274" y="122" on="1"/>
        <pt x="274" y="113" on="1"/>
        <pt x="267" y="113" on="1"/>
        <pt x="267" y="106" on="1"/>
        <pt x="274" y="106" on="1"/>
        <pt x="274" y="86" on="1"/>
        <pt x="274" y="73" on="0"/>
        <pt x="286" y="73" on="1"/>
        <pt x="297" y="73" on="0"/>
        <pt x="300" y="86" on="1"/>
        <pt x="295" y="88" on="1"/>
        <pt x="294" y="81" on="0"/>
        <pt x="290" y="81" on="1"/>
        <pt x="286" y="81" on="0"/>
        <pt x="286" y="86" on="1"/>
        <pt x="286" y="106" on="1"/>
        <pt x="299" y="106" on="1"/>
        <pt x="299" y="113" on="1"/>
        <pt x="286" y="113" on="1"/>
        <pt x="286" y="124" on="1"/>
      </contour>
      <contour>
        <pt x="428" y="306" on="1"/>
        <pt x="435" y="295" on="0"/>
        <pt x="457" y="281" on="0"/>
        <pt x="471" y="281" on="1"/>
        <pt x="492" y="281" on="0"/>
        <pt x="521" y="312" on="0"/>
        <pt x="521" y="335" on="1"/>
        <pt x="521" y="358" on="0"/>
        <pt x="492" y="387" on="0"/>
        <pt x="471" y="387" on="1"/>
        <pt x="436" y="387" on="0"/>
        <pt x="411" y="349" on="1"/>
        <pt x="409" y="369" on="0"/>
        <pt x="382" y="387" on="0"/>
        <pt x="362" y="386" on="1"/>
        <pt x="371" y="401" on="0"/>
        <pt x="371" y="420" on="1"/>
        <pt x="371" y="433" on="0"/>
        <pt x="359" y="460" on="0"/>
        <pt x="335" y="481" on="0"/>
        <pt x="299" y="494" on="0"/>
        <pt x="276" y="494" on="1"/>
        <pt x="251" y="494" on="0"/>
        <pt x="211" y="480" on="0"/>
        <pt x="182" y="456" on="0"/>
        <pt x="167" y="425" on="0"/>
        <pt x="167" y="409" on="1"/>
        <pt x="167" y="387" on="0"/>
        <pt x="182" y="357" on="0"/>
        <pt x="198" y="340" on="1"/>
        <pt x="116" y="312" on="0"/>
        <pt x="116" y="249" on="1"/>
        <pt x="116" y="229" on="0"/>
        <pt x="133" y="195" on="0"/>
        <pt x="163" y="170" on="0"/>
        <pt x="202" y="156" on="0"/>
        <pt x="225" y="156" on="1"/>
        <pt x="288" y="156" on="0"/>
        <pt x="329" y="201" on="1"/>
        <pt x="354" y="175" on="0"/>
        <pt x="391" y="156" on="0"/>
        <pt x="414" y="156" on="1"/>
        <pt x="446" y="156" on="0"/>
        <pt x="492" y="206" on="0"/>
        <pt x="494" y="250" on="1"/>
        <pt x="487" y="252" on="1"/>
        <pt x="479" y="239" on="0"/>
        <pt x="460" y="223" on="0"/>
        <pt x="444" y="223" on="1"/>
        <pt x="429" y="223" on="0"/>
        <pt x="401" y="242" on="0"/>
        <pt x="382" y="264" on="1"/>
        <pt x="393" y="279" on="0"/>
        <pt x="417" y="299" on="0"/>
      </contour>
      <contour>
        <pt x="219" y="74" on="1"/>
        <pt x="241" y="74" on="1"/>
        <pt x="241" y="81" on="1"/>
        <pt x="237" y="81" on="1"/>
        <pt x="237" y="96" on="1"/>
        <pt x="237" y="106" on="0"/>
        <pt x="244" y="106" on="1"/>
        <pt x="250" y="106" on="0"/>
        <pt x="250" y="99" on="1"/>
        <pt x="250" y="81" on="1"/>
        <pt x="246" y="81" on="1"/>
        <pt x="246" y="74" on="1"/>
        <pt x="268" y="74" on="1"/>
        <pt x="268" y="81" on="1"/>
        <pt x="262" y="81" on="1"/>
        <pt x="262" y="100" on="1"/>
        <pt x="262" y="114" on="0"/>
        <pt x="250" y="114" on="1"/>
        <pt x="241" y="114" on="0"/>
        <pt x="236" y="103" on="1"/>
        <pt x="236" y="113" on="1"/>
        <pt x="219" y="113" on="1"/>
        <pt x="219" y="106" on="1"/>
        <pt x="225" y="106" on="1"/>
        <pt x="225" y="81" on="1"/>
        <pt x="219" y="81" on="1"/>
      </contour>
      <contour>
        <pt x="446" y="33" on="1"/>
        <pt x="446" y="26" on="1"/>
        <pt x="452" y="26" on="1"/>
        <pt x="450" y="21" on="0"/>
        <pt x="446" y="17" on="1"/>
        <pt x="443" y="20" on="0"/>
        <pt x="438" y="26" on="0"/>
        <pt x="434" y="30" on="1"/>
        <pt x="445" y="35" on="0"/>
        <pt x="445" y="42" on="1"/>
        <pt x="445" y="47" on="0"/>
        <pt x="438" y="54" on="0"/>
        <pt x="431" y="54" on="1"/>
        <pt x="423" y="54" on="0"/>
        <pt x="414" y="46" on="0"/>
        <pt x="414" y="40" on="1"/>
        <pt x="414" y="34" on="0"/>
        <pt x="420" y="28" on="1"/>
        <pt x="407" y="24" on="0"/>
        <pt x="407" y="13" on="1"/>
        <pt x="407" y="-1" on="0"/>
        <pt x="425" y="-1" on="1"/>
        <pt x="434" y="-1" on="0"/>
        <pt x="440" y="5" on="1"/>
        <pt x="445" y="-1" on="0"/>
        <pt x="452" y="-1" on="1"/>
        <pt x="462" y="-1" on="0"/>
        <pt x="465" y="11" on="1"/>
        <pt x="460" y="12" on="1"/>
        <pt x="459" y="7" on="0"/>
        <pt x="456" y="7" on="1"/>
        <pt x="453" y="7" on="0"/>
        <pt x="450" y="12" on="1"/>
        <pt x="453" y="15" on="0"/>
        <pt x="457" y="21" on="0"/>
        <pt x="459" y="26" on="1"/>
        <pt x="464" y="26" on="1"/>
        <pt x="464" y="33" on="1"/>
      </contour>
      <contour>
        <pt x="429" y="6" on="1"/>
        <pt x="419" y="6" on="0"/>
        <pt x="419" y="16" on="1"/>
        <pt x="419" y="21" on="0"/>
        <pt x="423" y="25" on="1"/>
        <pt x="427" y="21" on="0"/>
        <pt x="433" y="14" on="0"/>
        <pt x="437" y="9" on="1"/>
        <pt x="433" y="6" on="0"/>
      </contour>
      <contour>
        <pt x="294" y="42" on="1"/>
        <pt x="294" y="49" on="0"/>
        <pt x="297" y="54" on="0"/>
        <pt x="300" y="54" on="1"/>
        <pt x="302" y="54" on="0"/>
        <pt x="303" y="53" on="1"/>
        <pt x="302" y="51" on="0"/>
        <pt x="302" y="49" on="1"/>
        <pt x="302" y="44" on="0"/>
        <pt x="308" y="44" on="1"/>
        <pt x="308" y="39" on="1"/>
        <pt x="294" y="39" on="1"/>
      </contour>
      <contour>
        <pt x="425" y="43" on="1"/>
        <pt x="425" y="48" on="0"/>
        <pt x="430" y="48" on="1"/>
        <pt x="436" y="48" on="0"/>
        <pt x="436" y="42" on="1"/>
        <pt x="436" y="36" on="0"/>
        <pt x="431" y="33" on="1"/>
        <pt x="425" y="39" on="0"/>
      </contour>
      <contour>
        <pt x="312" y="342" on="1"/>
        <pt x="342" y="362" on="0"/>
        <pt x="354" y="376" on="1"/>
        <pt x="371" y="359" on="0"/>
        <pt x="367" y="321" on="0"/>
        <pt x="353" y="296" on="1"/>
        <pt x="343" y="307" on="0"/>
        <pt x="324" y="330" on="0"/>
      </contour>
      <contour>
        <pt x="366" y="18" on="1"/>
        <pt x="368" y="40" on="0"/>
        <pt x="347" y="40" on="1"/>
        <pt x="339" y="40" on="0"/>
        <pt x="327" y="28" on="0"/>
        <pt x="327" y="19" on="1"/>
        <pt x="327" y="-1" on="0"/>
        <pt x="348" y="-1" on="1"/>
        <pt x="362" y="-1" on="0"/>
        <pt x="366" y="13" on="1"/>
        <pt x="359" y="13" on="1"/>
        <pt x="358" y="6" on="0"/>
        <pt x="350" y="6" on="1"/>
        <pt x="340" y="6" on="0"/>
        <pt x="340" y="18" on="1"/>
      </contour>
      <contour>
        <pt x="347" y="35" on="1"/>
        <pt x="354" y="35" on="0"/>
        <pt x="354" y="23" on="1"/>
        <pt x="340" y="23" on="1"/>
        <pt x="340" y="35" on="0"/>
      </contour>
      <contour>
        <pt x="124" y="0" on="1"/>
        <pt x="153" y="0" on="1"/>
        <pt x="153" y="7" on="1"/>
        <pt x="145" y="7" on="1"/>
        <pt x="145" y="25" on="1"/>
        <pt x="167" y="25" on="1"/>
        <pt x="167" y="7" on="1"/>
        <pt x="159" y="7" on="1"/>
        <pt x="159" y="0" on="1"/>
        <pt x="188" y="0" on="1"/>
        <pt x="188" y="7" on="1"/>
        <pt x="180" y="7" on="1"/>
        <pt x="180" y="48" on="1"/>
        <pt x="188" y="48" on="1"/>
        <pt x="188" y="55" on="1"/>
        <pt x="159" y="55" on="1"/>
        <pt x="159" y="48" on="1"/>
        <pt x="167" y="48" on="1"/>
        <pt x="167" y="32" on="1"/>
        <pt x="145" y="32" on="1"/>
        <pt x="145" y="48" on="1"/>
        <pt x="153" y="48" on="1"/>
        <pt x="153" y="55" on="1"/>
        <pt x="124" y="55" on="1"/>
        <pt x="124" y="48" on="1"/>
        <pt x="132" y="48" on="1"/>
        <pt x="132" y="7" on="1"/>
        <pt x="124" y="7" on="1"/>
      </contour>
      <contour>
        <pt x="576" y="13" on="1"/>
        <pt x="569" y="13" on="0"/>
        <pt x="569" y="6" on="1"/>
        <pt x="569" y="-1" on="0"/>
        <pt x="576" y="-1" on="1"/>
        <pt x="583" y="-1" on="0"/>
        <pt x="583" y="6" on="1"/>
        <pt x="583" y="13" on="0"/>
      </contour>
    </TTGlyph>
    <TTGlyph name="hungarumlaut" xMin="131" yMin="506" xMax="418" yMax="691">
      <contour>
        <pt x="165" y="514" on="1"/>
        <pt x="131" y="539" on="1"/>
        <pt x="231" y="691" on="1"/>
        <pt x="292" y="645" on="1"/>
      </contour>
      <contour>
        <pt x="291" y="506" on="1"/>
        <pt x="256" y="530" on="1"/>
        <pt x="357" y="683" on="1"/>
        <pt x="418" y="637" on="1"/>
      </contour>
    </TTGlyph>
    <TTGlyph name="hyphen" xMin="29" yMin="226" xMax="191" yMax="310">
      <contour>
        <pt x="177" y="226" on="1"/>
        <pt x="29" y="226" on="1"/>
        <pt x="43" y="310" on="1"/>
        <pt x="191" y="310" on="1"/>
      </contour>
    </TTGlyph>
    <TTGlyph name="hyphen.cap" xMin="47" yMin="329" xMax="209" yMax="413">
      <component glyphName="hyphen" x="18" y="103" flags="0x204"/>
    </TTGlyph>
</ttFont>
